<?xml version="1.0" encoding="UTF-8" standalone="no"?>
<svg
   xmlns:dc="http://purl.org/dc/elements/1.1/"
   xmlns:cc="http://creativecommons.org/ns#"
   xmlns:rdf="http://www.w3.org/1999/02/22-rdf-syntax-ns#"
   xmlns:svg="http://www.w3.org/2000/svg"
   xmlns="http://www.w3.org/2000/svg"
   xmlns:sodipodi="http://sodipodi.sourceforge.net/DTD/sodipodi-0.dtd"
   xmlns:inkscape="http://www.inkscape.org/namespaces/inkscape"
   inkscape:version="1.0.1 (3bc2e813f5, 2020-09-07)"
   sodipodi:docname="logo-short.svg"
   id="svg8"
   version="1.1"
   viewBox="0 0 48.569754 49.999984">
  <defs
     id="defs2" />
  <sodipodi:namedview
     inkscape:guide-bbox="true"
     inkscape:document-rotation="0"
     inkscape:object-nodes="true"
     inkscape:snap-smooth-nodes="false"
     inkscape:snap-intersection-paths="false"
     inkscape:object-paths="true"
     inkscape:window-maximized="1"
     inkscape:window-y="-8"
     inkscape:window-x="-8"
     inkscape:window-height="1137"
     inkscape:window-width="3840"
     inkscape:measure-end="0,0"
     inkscape:measure-start="0,0"
     inkscape:snap-nodes="true"
     showguides="true"
     showborder="false"
     showgrid="false"
     inkscape:current-layer="svg8"
     inkscape:document-units="px"
     inkscape:cy="27.645526"
     inkscape:cx="25.025721"
     inkscape:zoom="7.9999999"
     inkscape:pageshadow="2"
     inkscape:pageopacity="0.0"
     borderopacity="1.0"
     bordercolor="#666666"
     pagecolor="#ffffff"
     id="base"
     inkscape:snap-global="true"
     units="px"
     fit-margin-top="0"
     fit-margin-left="0"
     fit-margin-right="0"
     fit-margin-bottom="0" />
  <metadata
     id="metadata5">
    <rdf:RDF>
      <cc:Work
         rdf:about="">
        <dc:format>image/svg+xml</dc:format>
        <dc:type
           rdf:resource="http://purl.org/dc/dcmitype/StillImage" />
        <dc:title></dc:title>
      </cc:Work>
    </rdf:RDF>
  </metadata>
  <g
     id="g1144"
     inkscape:label="dice 1">
    <path
       id="path1374"
       style="font-variation-settings:normal;opacity:1;vector-effect:none;fill:none;fill-opacity:1;stroke:#000000;stroke-width:0.510074;stroke-linecap:butt;stroke-linejoin:round;stroke-miterlimit:4;stroke-dasharray:none;stroke-dashoffset:0;stroke-opacity:1;stop-color:#000000;stop-opacity:1"
       d="m 38.9637,15.4342 c -0.0619,-8e-4 -0.1242,-5e-4 -0.1866,9e-4 -1.0987,0.0249 -2.263,0.3882 -3.0192,1.0023 l -4.139,3.3608 c -0.2117,0.1719 -0.3797,0.3513 -0.5059,0.533 l -6e-4,7e-4 c -0.576,0.7617 -1.1643,2.0282 -1.2679,2.9654 -0.0236,0.18 -0.0212,0.3792 0.0112,0.5962 l 0.6916,4.6324 c 0.1835,1.229 1.3285,2.6802 2.6023,3.2841 l 4.9884,2.3649 c 0.0048,0.0023 0.0094,0.0043 0.0141,0.0066 0.0069,0.0032 0.0137,0.0059 0.0205,0.009 0.0386,0.0179 0.0771,0.0355 0.1152,0.0517 0.0119,0.0051 0.0235,0.0096 0.0354,0.0145 0.007,0.0032 0.0132,0.0057 0.0204,0.0091 1.0269,0.4914 2.5841,0.3449 3.6496,-0.1835 0.2539,-0.1122 0.527,-0.3036 0.8064,-0.5771 l 3.8097,-3.7282 c 0.9984,-0.9771 1.7511,-2.7815 1.7031,-4.0837 L 48.1293,20.72 c -0.0157,-0.4268 -0.1076,-0.7622 -0.2568,-0.9981 l -4e-4,-8e-4 c -0.3197,-0.6882 -0.9029,-1.4067 -1.5394,-1.903 -0.2264,-0.2221 -0.5499,-0.4093 -0.9647,-0.542 l -5.1779,-1.6568 c -0.3744,-0.1197 -0.793,-0.1796 -1.2264,-0.1851 z" />
    <path
       id="path1124"
       style="display:inline;opacity:1;fill:#0b6acb;fill-opacity:1;stroke:none;stroke-width:0.0235607;stroke-opacity:1"
       d="m 38.9637,15.4342 c -0.0619,-8e-4 -0.1242,-5e-4 -0.1866,9e-4 -1.0987,0.0249 -2.263,0.3882 -3.0192,1.0023 l -4.139,3.3608 c -0.2117,0.1719 -0.3797,0.3513 -0.5059,0.533 l -6e-4,7e-4 c -0.576,0.7617 -1.1643,2.0282 -1.2679,2.9654 -0.0236,0.18 -0.0212,0.3792 0.0112,0.5962 l 0.6916,4.6324 c 0.1835,1.229 1.3285,2.6802 2.6023,3.2841 l 4.9884,2.3649 c 0.0048,0.0023 0.0094,0.0043 0.0141,0.0066 0.0069,0.0032 0.0137,0.0059 0.0205,0.009 0.0386,0.0179 0.0771,0.0355 0.1152,0.0517 0.0119,0.0051 0.0235,0.0096 0.0354,0.0145 0.007,0.0032 0.0132,0.0057 0.0204,0.0091 1.0269,0.4914 2.5841,0.3449 3.6496,-0.1835 0.2539,-0.1122 0.527,-0.3036 0.8064,-0.5771 l 3.8097,-3.7282 c 0.9984,-0.9771 1.7511,-2.7815 1.7031,-4.0837 L 48.1293,20.72 c -0.0157,-0.4268 -0.1076,-0.7622 -0.2568,-0.9981 l -4e-4,-8e-4 c -0.3197,-0.6882 -0.9029,-1.4067 -1.5394,-1.903 -0.2264,-0.2221 -0.5499,-0.4093 -0.9647,-0.542 l -5.1779,-1.6568 c -0.3744,-0.1197 -0.793,-0.1796 -1.2264,-0.1851 z m 8.1778,3.886 c 0.0022,-10e-5 0.0043,3e-4 0.0066,2e-4 -0.0032,10e-5 -0.0063,0 -0.0095,2e-4 0.001,-10e-5 0.002,-3e-4 0.0029,-4e-4 z m -16.0496,2.9153 c 0.0062,2e-4 0.0128,0.0012 0.0191,0.0014 -0.0106,-4e-4 -0.0212,-9e-4 -0.0316,-0.0011 0.0043,10e-5 0.0082,-4e-4 0.0125,-3e-4 z" />
    <path
       style="display:inline;opacity:0.2;fill:#000000;fill-opacity:1;stroke:none;stroke-width:0.0235607;stroke-opacity:1"
       d="m 31.8534,22.3951 5.1846,1.9332 c 1.5289,0.57 2.9113,2.2152 3.0513,3.6513 l 0.4937,5.0639 c 0.1305,1.3385 -0.9795,1.8263 -2.4449,1.1315 L 33.1496,31.81 c -1.2738,-0.6039 -2.4188,-2.0551 -2.6023,-3.284 l -0.6915,-4.6325 c -0.1954,-1.3087 0.6785,-1.9902 1.9976,-1.4984 z"
       id="path5140" />
    <path
       style="display:inline;opacity:0.9;fill:#ffffff;fill-opacity:1;stroke:none;stroke-width:0.0277184;stroke-opacity:1"
       d="m 32.6751,25.17 c -0.1948,0.0037 -0.3116,0.1484 -0.2793,0.3839 0.0429,0.3129 0.3333,0.6716 0.6507,0.8026 0.3197,0.132 0.5471,-0.0161 0.5056,-0.3324 -0.0417,-0.3174 -0.3377,-0.6804 -0.6588,-0.809 C 32.8136,25.1832 32.74,25.1687 32.6751,25.17 Z m 3.6619,1.4685 c -0.2137,-4e-4 -0.3456,0.1461 -0.3166,0.3895 0.0384,0.3234 0.3467,0.6989 0.691,0.8411 0.347,0.1432 0.6004,-0.0041 0.5637,-0.331 -0.0369,-0.328 -0.3514,-0.7089 -0.7,-0.8485 -0.0865,-0.0346 -0.1669,-0.051 -0.2381,-0.0511 z m -3.196,1.9619 c -0.1926,-0.0058 -0.3084,0.1271 -0.2773,0.3542 0.0414,0.3018 0.3272,0.659 0.6405,0.7997 0.3155,0.1417 0.5407,0.0109 0.5007,-0.2939 -0.0402,-0.3059 -0.3314,-0.6677 -0.6483,-0.8063 -0.0787,-0.0344 -0.1514,-0.0517 -0.2156,-0.0537 z m 3.6098,1.5803 c -0.2108,-0.0106 -0.3412,0.1235 -0.3134,0.3577 0.037,0.3114 0.34,0.6855 0.6794,0.8379 0.3418,0.1534 0.5924,0.0246 0.557,-0.29 -0.0354,-0.3157 -0.3447,-0.695 -0.6882,-0.8453 -0.0852,-0.0372 -0.1645,-0.0568 -0.2348,-0.0603 z"
       id="path5144" />
    <path
       id="path5156"
       d="m 41.9871,23.4703 4.1195,-3.6389 c 1.0761,-0.9505 1.9702,-0.5354 2.0227,0.8886 l 0.1832,4.9734 c 0.0479,1.3021 -0.7047,3.1066 -1.7032,4.0837 l -3.8097,3.7281 c -1.0897,1.0664 -2.0842,0.8956 -2.213,-0.4253 l -0.4935,-5.0615 c -0.1417,-1.454 0.7117,-3.5038 1.894,-4.5481 z"
       style="display:inline;opacity:0.2;fill:#ffffff;fill-opacity:1;stroke:none;stroke-width:0.0235607;stroke-opacity:1" />
    <path
       style="display:inline;opacity:0.9;fill:#ffffff;fill-opacity:1;stroke:none;stroke-width:0.0277184;stroke-opacity:1"
       d="m 45.9554,22.9305 c -0.0768,0.0014 -0.1674,0.0437 -0.2629,0.1306 -0.256,0.2328 -0.4485,0.6947 -0.4291,1.0295 0.0194,0.3332 0.2415,0.412 0.4951,0.1784 0.2524,-0.2324 0.4425,-0.6884 0.4254,-1.0207 -0.0107,-0.2088 -0.1004,-0.3201 -0.2285,-0.3178 z m -2.8786,2.6205 c -0.0822,0.0044 -0.1783,0.0508 -0.2789,0.1423 -0.2696,0.2452 -0.4672,0.7194 -0.4401,1.0565 0.0269,0.3355 0.2659,0.4061 0.5329,0.1601 0.2658,-0.2447 0.4607,-0.7125 0.4363,-1.0472 -0.0153,-0.2102 -0.1133,-0.3192 -0.2502,-0.3117 z m 1.5742,0.5094 c -0.0782,0.0049 -0.1703,0.0507 -0.2669,0.1403 -0.2589,0.24 -0.4514,0.7017 -0.4289,1.029 0.0224,0.3256 0.2494,0.3926 0.506,0.1519 0.2553,-0.2395 0.4453,-0.6952 0.4252,-1.0202 -0.0126,-0.2041 -0.1049,-0.3093 -0.2354,-0.301 z m 1.4948,0.4838 c -0.0746,0.0053 -0.1627,0.0504 -0.2557,0.1382 -0.2489,0.235 -0.4364,0.6849 -0.418,1.0028 0.0184,0.3164 0.2341,0.3802 0.4808,0.1445 0.2456,-0.2346 0.4309,-0.6789 0.4147,-0.9947 -0.0101,-0.1982 -0.0973,-0.2997 -0.2218,-0.2908 z m -2.7584,2.6421 c -0.0874,-0.0058 -0.1955,0.0431 -0.3095,0.1507 -0.2619,0.2473 -0.4542,0.7088 -0.4285,1.0284 0.0255,0.3182 0.2573,0.3733 0.5168,0.1255 0.2582,-0.2466 0.448,-0.702 0.4249,-1.0197 -0.0131,-0.1795 -0.0913,-0.2774 -0.2037,-0.2849 z"
       id="path5158" />
    <path
       id="path5170"
       d="m 40.1902,15.6193 5.1778,1.6568 c 1.4678,0.4696 1.7959,1.6214 0.7022,2.5874 l -4.1218,3.6409 c -1.1643,1.0285 -3.3181,1.4176 -4.7931,0.8676 L 31.9609,22.4352 C 30.5898,21.9239 30.4518,20.746 31.619,19.7983 l 4.1388,-3.3608 c 1.1,-0.8932 3.0633,-1.2562 4.4324,-0.8182 z"
       style="display:inline;opacity:0.3;fill:#ffffff;fill-opacity:1;stroke:none;stroke-width:0.0235607;stroke-opacity:1" />
    <path
       style="display:inline;opacity:0.9;fill:#ffffff;fill-opacity:1;stroke:none;stroke-width:0.0277184;stroke-opacity:1"
       d="m 39.1001,17.0808 c -0.2858,-0.0109 -0.6041,0.0794 -0.8008,0.2424 -0.2631,0.2181 -0.2105,0.4848 0.1191,0.5954 0.3309,0.111 0.8136,0.0222 1.0765,-0.1979 0.2621,-0.2194 0.2052,-0.4855 -0.1255,-0.5944 -0.0824,-0.0272 -0.174,-0.0419 -0.2693,-0.0455 z m 3.7096,1.2231 c -0.2944,-0.012 -0.6183,0.0802 -0.8146,0.2479 -0.2626,0.2244 -0.1989,0.4997 0.1441,0.6148 0.3443,0.1155 0.8375,0.0253 1.0999,-0.2011 0.2616,-0.2258 0.1932,-0.5005 -0.1509,-0.6139 -0.0857,-0.0282 -0.1804,-0.0437 -0.2785,-0.0477 z m -5.7078,0.4382 c -0.2877,-0.0123 -0.6099,0.0794 -0.8112,0.2462 -0.2692,0.2232 -0.2214,0.4975 0.1085,0.6124 0.331,0.1153 0.8189,0.026 1.088,-0.1993 0.2683,-0.2246 0.216,-0.4983 -0.1149,-0.6115 -0.0825,-0.0282 -0.1745,-0.0438 -0.2704,-0.0478 z m 3.7132,1.2712 c -0.2963,-0.0135 -0.6245,0.0801 -0.8255,0.2519 -0.2688,0.2296 -0.2099,0.513 0.1335,0.6327 0.3446,0.12 0.8435,0.0291 1.1121,-0.2028 0.2679,-0.2311 0.2042,-0.5138 -0.1403,-0.6316 -0.0858,-0.0293 -0.1811,-0.0458 -0.2798,-0.0502 z m -5.758,0.429 c -0.2895,-0.0136 -0.6159,0.0795 -0.8219,0.2503 -0.2755,0.2284 -0.2329,0.5106 0.097,0.63 0.3312,0.1198 0.8246,0.0298 1.1001,-0.2008 0.2746,-0.2299 0.2272,-0.5114 -0.104,-0.6291 -0.0824,-0.0293 -0.1748,-0.0458 -0.2712,-0.0504 z m 3.7157,1.3213 c -0.2983,-0.0149 -0.6307,0.08 -0.8366,0.2559 -0.2753,0.2352 -0.2214,0.527 0.1223,0.6514 0.3449,0.1248 0.8493,0.0331 1.1245,-0.2044 0.2743,-0.2368 0.2155,-0.5278 -0.1293,-0.6503 -0.0859,-0.0305 -0.1815,-0.0476 -0.2809,-0.0526 z"
       id="path5174" />
  </g>
  <g
     id="g3116"
     style="display:inline"
     inkscape:label="D">
    <path
       id="path1376"
       style="display:inline;fill:none;fill-opacity:1;stroke:#000000;stroke-width:0.510074;stroke-linecap:butt;stroke-linejoin:round;stroke-miterlimit:4;stroke-dasharray:none;stroke-opacity:1"
       d="M 15.0385,0.25503 13.0549,2.08412 13.0034,6.38645 C 10.1952,6.51526 6.56268,4.29962 6.79454,2.90844 7.02641,1.51723 9.78297,1.56893 9.78297,1.56893 5.30028,0.0746892 3.60003,7.28818 3.60003,7.28818 c 0.90169,2.08677 5.46166,3.14302 5.46166,3.14302 -1.05626,1.082 -3.32345,5.7192 -3.32345,5.7192 0,0 1.86205,6.6009 1.44284,12.1601 -0.46254,6.1339 -5.05154,6.8172 -5.0754,7.0332 -0.54102,0.6183 -0.86774,2.2326 -1.133435,3.3234 -0.415818,1.7072 0.191225,1.7822 1.648915,2.9369 0,0 2.05242,1.4543 1.85471,3.1946 C 4.4696,44.8537 4.52755,45.829 1.71942,46.9883 -1.08871,48.1476 0.998147,49.745 0.998147,49.745 0.251032,47.9932 1.77077,47.89 3.36805,47.0398 4.96533,46.1896 5.31081,44.9271 5.24895,44.2318 5.07409,42.2664 1.95112,40.1356 1.95112,40.1356 5.24846,37.761 13.0291,39.0276 12.9518,39.208 c -0.0773,0.1803 -0.0515,10.6143 0.2576,10.3309 0.3092,-0.2833 1.4944,-10.0734 1.4944,-10.0734 0.9532,0.1546 3.581,1.1079 3.581,1.1079 1.2366,-2.937 1.6745,-3.0914 3.7613,-5.848 2.0867,-2.7566 4.8692,-7.7547 4.7403,-14.1696 C 26.6576,14.1409 25.7044,11.4617 23.3084,8.60208 20.9125,5.74243 15.1675,6.33493 15.1675,6.33493 15.0387,4.6346 15.9918,0.873266 15.9918,0.873266 Z m -3.6582,10.69137 1.6746,0.1289 0.0515,22.7484 c 0,0 -4.79179,-0.1804 -5.66772,0.3091 0,0 5.07542,-4.8799 4.03502,-11.9842 -0.4101,-2.8005 -1.48506,-6.9665 -0.0934,-11.2022 z m 4.0892,0.2214 c 1.4595,0.0077 7.2858,0.6353 7.0918,10.1867 -0.1962,9.6588 -3.4265,13.4225 -3.4265,13.4225 0,0 -1.9065,-0.6701 -3.9417,-0.8246 l -0.0515,-22.774 c 0,0 0.1194,-0.0117 0.3279,-0.0106 z m -6.18323,1.3165 c 0,0 -0.29147,3.6798 -0.09108,4.7364 L 7.44636,18.2226 7.13668,16.4374 c 0,0 1.45735,-3.2062 2.14959,-3.9531 z m 0,5.3558 0.30969,1.8034 -1.71239,0.9473 -0.29147,-1.767 z M 9.75991,20.19 10.0149,21.8842 8.24791,22.8497 8.04752,21.1738 Z m 0.36429,2.2407 0.1093,1.5303 -1.76699,0.929 -0.09108,-1.512 z m 0.1458,2.1132 c 0,0 -0.0729,2.9511 -2.33178,6.8496 0,0 0.71046,-2.095 0.54651,-5.9388 z" />
    <path
       id="path3066"
       style="display:inline;fill:#0b6acb;fill-opacity:1;stroke:none;stroke-width:0.145735;stroke-linecap:butt;stroke-linejoin:miter;stroke-opacity:1"
       d="M 15.0385,0.25503 13.0549,2.08412 13.0034,6.38645 C 10.1952,6.51526 6.56268,4.29962 6.79454,2.90844 7.02641,1.51723 9.78297,1.56893 9.78297,1.56893 5.30028,0.0746892 3.60003,7.28818 3.60003,7.28818 c 0.90169,2.08677 5.46166,3.14302 5.46166,3.14302 -1.05626,1.082 -3.32345,5.7192 -3.32345,5.7192 0,0 1.86205,6.6009 1.44284,12.1601 -0.46254,6.1339 -5.05154,6.8172 -5.0754,7.0332 -0.54102,0.6183 -0.86774,2.2326 -1.133435,3.3234 -0.415818,1.7072 0.191225,1.7822 1.648915,2.9369 0,0 2.05242,1.4543 1.85471,3.1946 C 4.4696,44.8537 4.52755,45.829 1.71942,46.9883 -1.08871,48.1476 0.998147,49.745 0.998147,49.745 0.251032,47.9932 1.77077,47.89 3.36805,47.0398 4.96533,46.1896 5.31081,44.9271 5.24895,44.2318 5.07409,42.2664 1.95112,40.1356 1.95112,40.1356 5.24846,37.761 13.0291,39.0276 12.9518,39.208 c -0.0773,0.1803 -0.0515,10.6143 0.2576,10.3309 0.3092,-0.2833 1.4944,-10.0734 1.4944,-10.0734 0.9532,0.1546 3.581,1.1079 3.581,1.1079 1.2366,-2.937 1.6745,-3.0914 3.7613,-5.848 2.0867,-2.7566 4.8692,-7.7547 4.7403,-14.1696 C 26.6576,14.1409 25.7044,11.4617 23.3084,8.60208 20.9125,5.74243 15.1675,6.33493 15.1675,6.33493 15.0387,4.6346 15.9918,0.873266 15.9918,0.873266 Z m -3.6582,10.69137 1.6746,0.1289 0.0515,22.7484 c 0,0 -4.79179,-0.1804 -5.66772,0.3091 0,0 5.07542,-4.8799 4.03502,-11.9842 -0.4101,-2.8005 -1.48506,-6.9665 -0.0934,-11.2022 z m 4.0892,0.2214 c 1.4595,0.0077 7.2858,0.6353 7.0918,10.1867 -0.1962,9.6588 -3.4265,13.4225 -3.4265,13.4225 0,0 -1.9065,-0.6701 -3.9417,-0.8246 l -0.0515,-22.774 c 0,0 0.1194,-0.0117 0.3279,-0.0106 z m -6.18323,1.3165 c 0,0 -0.29147,3.6798 -0.09108,4.7364 L 7.44636,18.2226 7.13668,16.4374 c 0,0 1.45735,-3.2062 2.14959,-3.9531 z m 0,5.3558 0.30969,1.8034 -1.71239,0.9473 -0.29147,-1.767 z M 9.75991,20.19 10.0149,21.8842 8.24791,22.8497 8.04752,21.1738 Z m 0.36429,2.2407 0.1093,1.5303 -1.76699,0.929 -0.09108,-1.512 z m 0.1458,2.1132 c 0,0 -0.0729,2.9511 -2.33178,6.8496 0,0 0.71046,-2.095 0.54651,-5.9388 z" />
    <path
       id="path3105"
       style="display:inline;opacity:0.2;fill:#000000;fill-opacity:1;stroke:none;stroke-width:0.145735;stroke-linecap:butt;stroke-linejoin:miter;stroke-opacity:1"
       d="m 15.0384,0.25506 -1.9836,1.82909 -0.0515,4.30232 1.0893,1.15251 0.1292,-5.46735 z M 8.59481,1.36515 C 4.99655,1.36384 3.59996,7.28821 3.59996,7.28821 c 0.90169,2.08677 5.46166,3.14299 5.46166,3.14299 -1.05627,1.082 -3.32345,5.7193 -3.32345,5.7193 0,0 1.86205,6.6008 1.44284,12.16 -0.46254,6.1339 -5.05154,6.8172 -5.0754,7.0332 -0.54102,0.6183 -0.86774,2.2326 -1.13343,3.3234 -0.415817,1.7071 0.19123,1.7822 1.64891,2.9369 0,0 2.05242,1.4543 1.85471,3.1945 -0.00627,0.0552 0.05168,1.0304 -2.75645,2.1898 C -1.08877,48.1476 0.998082,49.745 0.998082,49.745 0.191879,48.9137 1.05842,48.2708 1.05842,48.2708 l 2.9e-4,3e-4 c 0.43346,-0.4831 1.3574,-0.7247 2.30928,-1.2313 0.19145,-0.1019 0.36395,-0.2099 0.52089,-0.3219 v -3e-4 c 1.39436,-1.9772 0.87228,-3.0262 0.7523,-3.266 -0.75703,-1.5128 -3.2335,-3.2972 -3.2335,-3.2972 L 1.95106,40.1356 C 5.2484,37.761 13.029,39.0276 12.9518,39.2079 12.8756,39.3856 12.8995,49.5116 13.1957,49.544 L 14.0032,38.0739 C 12.744,37.8077 11.4504,37.6461 10.0029,37.6074 7.08858,37.5294 2.17507,38.6671 2.17507,38.6671 l 0.74547,-2.3992 c 1.90448,-0.7353 3.6119,-2.8273 4.46029,-4.0202 L 7.14031,31.6442 c 0.24246,-0.7325 0.45333,-1.8445 0.5559,-3.2047 0.41921,-5.5593 -1.35175,-12.151 -1.35175,-12.151 0,0 1.53936,-3.0503 2.67959,-4.7182 l 0.26216,0.914 c 0,0 -0.29147,3.6798 -0.09109,4.7364 l -1.74882,1.0019 0.00512,0.3521 0.14061,0.2491 1.69417,-0.9837 0.30969,1.8035 -1.71239,0.9472 0.02078,0.3558 0.14317,0.2272 1.71239,-0.9837 0.25496,1.6941 -1.76696,0.9655 -0.0168,0.3091 0.14432,0.2192 1.74874,-0.9473 0.1093,1.5303 -1.76696,0.929 -0.06831,0.3083 0.08653,0.2564 1.78524,-0.9108 c 0,0 -0.0729,2.9511 -2.33175,6.8496 l 0.26699,0.6492 C 9.59342,29.9795 11.3373,26.5092 10.6934,22.1122 10.2709,19.3144 9.57362,15.9742 9.94913,12.6514 10.0288,11.946 10.5073,9.59493 10.5073,9.59493 l 0.873,1.35147 1.6745,0.1289 0.0515,22.7484 1.0463,1.2103 -0.0654,-25.0098 1.0543,1.1542 c 0,0 0.1194,-0.0116 0.3279,-0.0106 1.4596,0.0077 7.2858,0.6353 7.0918,10.1867 -0.1962,9.6588 -3.4265,13.4225 -3.4265,13.4225 l 0.3498,1.3415 1.1115,-1.4158 c 1.8765,-3.2105 2.6679,-6.9261 2.981,-10.5966 0.2476,-3.0807 0.3371,-6.3253 -0.9387,-9.2126 C 21.4747,11.8754 18.2568,9.83461 15.0185,10.0208 11.7354,10.123 7.61142,9.26182 4.87202,7.10632 5.04848,6.53306 5.98341,4.41917 5.9935,4.46544 c 0,0 0.44431,-2.1471 1.31759,-2.32038 7.3e-4,-2.9e-4 0.00151,-1.4e-4 0.00227,-2.9e-4 h 2.9e-4 C 8.17685,1.53966 9.7829,1.56895 9.7829,1.56895 9.36265,1.42886 8.96705,1.36528 8.59481,1.36514 Z m 5.40869,36.70875 0.7002,1.3916 c 0.9532,0.1546 3.5811,1.1078 3.5811,1.1078 L 17.6406,39.1177 C 16.39,38.6819 15.2126,38.3296 14.0035,38.0739 Z" />
    <path
       id="path2954"
       style="display:inline;opacity:0.3;fill:#ffffff;stroke:none;stroke-width:0.145735;stroke-linecap:butt;stroke-linejoin:miter;stroke-opacity:1"
       d="m 15.0384,0.25506 -0.8166,1.81657 -0.1292,5.46735 c 0.438,0.00809 0.8672,-0.0079 1.2803,-0.04981 1.8387,-0.08068 3.7585,-0.00477 5.4668,0.74717 1.2135,0.5019 2.0277,1.58857 2.7183,2.65736 1.5566,2.4382 1.8795,5.4175 2.0092,8.2267 0.1642,2.5756 -0.0363,5.1205 -0.7639,7.5828 -0.8346,2.9019 -2.3426,5.6559 -4.2073,7.9995 l -1.1115,1.4158 c -0.7069,0.9379 -1.3591,1.926 -1.8439,2.9992 l 0.6442,1.4556 c 1.2366,-2.9369 1.6744,-3.0913 3.7612,-5.8479 2.0867,-2.7566 4.8692,-7.7547 4.7404,-14.1696 C 26.6575,14.1409 25.7043,11.4618 23.3083,8.6021 20.9124,5.74246 15.1674,6.33495 15.1674,6.33495 15.0386,4.63462 15.9917,0.873296 15.9917,0.873296 Z M 19.4845,36.1185 19.1347,34.777 c 0,0 -1.9065,-0.6701 -3.9417,-0.8246 l -0.0515,-22.774 -1.0543,-1.1542 0.0654,25.0098 -1.0463,-1.2103 c 0,0 -4.79176,-0.1804 -5.66769,0.3091 0,0 0.31063,-0.2995 0.76055,-0.8539 0.00117,-0.0014 0.00231,-0.0032 0.00341,-0.0046 0.01882,-0.0231 0.0402,-0.0513 0.05949,-0.0754 0.08763,-0.1095 0.17975,-0.2279 0.27582,-0.3555 0.0579,-0.0768 0.11673,-0.1559 0.17704,-0.2391 0.02194,-0.0303 0.04327,-0.0585 0.06547,-0.0897 8.7e-4,-0.0012 0.00194,-0.0027 0.00284,-0.0039 0.08253,-0.1157 0.16696,-0.239 0.25248,-0.3661 0.03026,-0.045 0.06083,-0.0913 0.09136,-0.1377 0.06854,-0.1042 0.13779,-0.2126 0.20722,-0.3237 0.02729,-0.0437 0.05434,-0.0853 0.08169,-0.1301 0.00131,-0.0021 0.00267,-0.0044 0.004,-0.0065 0.08466,-0.1386 0.16931,-0.2839 0.25389,-0.4324 0.20125,-0.3536 0.40053,-0.7334 0.59063,-1.1408 0.2019,-0.433 0.3932,-0.8955 0.565,-1.3851 0.0026,-0.0075 0.0053,-0.0149 0.008,-0.0225 0.0559,-0.1603 0.1099,-0.3234 0.1613,-0.4895 0.1031,-0.3329 0.196,-0.6777 0.277,-1.0327 0.0047,-0.0205 0.0091,-0.0412 0.0136,-0.0618 0.035,-0.1564 0.0675,-0.3148 0.0974,-0.4753 0.004,-0.0214 0.0083,-0.0426 0.0122,-0.0641 0.0643,-0.3541 0.1153,-0.7185 0.1518,-1.0915 0.0037,-0.0382 0.0068,-0.0767 0.0102,-0.115 0.0131,-0.1474 0.0236,-0.2962 0.0319,-0.4464 0.003,-0.0547 0.0068,-0.1091 0.0091,-0.1642 0.0019,-0.0442 0.0034,-0.0885 0.0048,-0.1329 0.0036,-0.1109 0.0058,-0.2224 0.0066,-0.3348 10e-5,-0.0239 8e-4,-0.0476 8e-4,-0.0717 0,-0.0066 -3e-4,-0.0133 -3e-4,-0.0199 0,-0.1307 -0.0024,-0.2625 -0.0065,-0.3951 C 11.6064,23.6388 11.6052,23.6066 11.604,23.5744 11.5985,23.43 11.5917,23.2847 11.5812,23.1381 11.5709,22.9928 11.5571,22.8459 11.5417,22.6986 11.5381,22.6647 11.5344,22.6307 11.5306,22.5967 11.5139,22.4482 11.4957,22.2992 11.4736,22.1487 11.428,21.837 11.3737,21.507 11.3159,21.1632 11.3088,21.1205 11.3022,21.08 11.2949,21.0369 11.291,21.0136 11.2866,20.9873 11.2826,20.964 11.2251,20.6235 11.1656,20.2732 11.1062,19.9063 11.0897,19.8046 11.0737,19.703 11.0575,19.5994 11.0445,19.5167 11.0318,19.4343 11.0191,19.3504 10.9997,19.2231 10.9812,19.0947 10.9627,18.965 10.9504,18.8784 10.9384,18.7917 10.9265,18.704 10.9086,18.5712 10.8916,18.4375 10.875,18.3023 10.8656,18.2248 10.8567,18.1469 10.8477,18.0686 10.8311,17.9237 10.8152,17.7783 10.8007,17.6309 10.7932,17.5541 10.7868,17.4766 10.78,17.3992 c -0.0133,-0.1485 -0.0259,-0.2971 -0.0365,-0.4478 -0.0052,-0.0749 -0.0091,-0.1508 -0.0136,-0.2263 -0.0095,-0.1578 -0.0185,-0.3158 -0.0245,-0.4759 -0.0023,-0.0628 -0.0029,-0.1266 -0.0046,-0.1898 -0.0455,-1.6324 0.1054,-3.3659 0.6795,-5.113 l -0.873,-1.35147 c 0,0 -0.4785,2.35107 -0.55816,3.05647 -0.3755,3.3228 0.32176,6.663 0.74426,9.4608 0.6439,4.397 -1.09996,7.8673 -2.48824,9.9305 L 7.93817,31.3935 c 0,0 0.71046,-2.095 0.5465,-5.9388 L 8.39814,25.1983 8.46646,24.89 8.37537,23.378 8.23106,23.1588 8.24785,22.8497 8.04747,21.1738 7.90429,20.9466 7.88352,20.5908 7.59205,18.8238 7.45143,18.5747 7.44632,18.2226 7.13663,16.4374 c 0,0 1.45735,-3.2062 2.1496,-3.9531 l -0.26216,-0.914 c -1.14023,1.6679 -2.67959,4.7182 -2.67959,4.7182 0,0 1.77096,6.5917 1.35175,12.151 -0.10257,1.3602 -0.31344,2.4722 -0.5559,3.2047 l 0.24052,0.6035 c -0.8484,1.1929 -2.55581,3.2849 -4.46029,4.0202 0,0 2.44283,-0.6449 4.725,-0.9894 1.7662,-0.2732 3.51144,-0.2956 5.28744,-0.2855 0.4059,0.0023 0.8133,0.0162 1.2205,0.0418 1.8083,0.1137 3.6182,0.4613 5.331,1.0837 z M 14.0926,7.53898 13.0033,6.38647 C 10.1952,6.51529 6.56261,4.29965 6.79447,2.90847 6.84929,2.57955 7.04638,2.33214 7.31365,2.14478 7.31278,2.14493 7.31197,2.14488 7.31109,2.14507 6.43781,2.31835 5.99349,4.46545 5.99349,4.46545 7.69358,6.30053 11.1048,7.48379 14.0926,7.53898 Z M 14.0032,38.0734 13.1957,49.544 c 0.0044,5e-4 0.0089,-8e-4 0.0134,-0.0048 l 3e-4,-3e-4 c 0.3091,-0.2834 1.4943,-10.0734 1.4943,-10.0734 z M 1.95105,40.1356 1.40767,40.1544 c 0,0 2.47648,1.7844 3.2335,3.2972 0.11998,0.2398 0.64207,1.2888 -0.7523,3.266 C 5.04116,45.8947 5.30332,44.8437 5.24888,44.2318 5.07402,42.2664 1.95105,40.1356 1.95105,40.1356 Z m -0.89263,8.1352 c 0,0 -0.866541,0.6429 -0.060338,1.4742 C 0.6962,49.0371 0.764815,48.5987 1.05871,48.2711 Z" />
  </g>
</svg>
