<svg xmlns="http://www.w3.org/2000/svg" xmlns:xlink="http://www.w3.org/1999/xlink" viewBox="0 0 219.983 50"><path d="M205.543 24.742c0 2.465-.023 7.068-.117 7.75-.657.164-2.16.305-2.489.328l-.094.493c.54-.047 3.006-.094 3.969-.094 1.08 0 3.452.047 4.039.094l-.094-.493c-.517-.047-2.067-.211-2.466-.329-.07-1.08-.117-4.696-.117-6.223v-.61c.399 0 1.362-.07 2.254-.141.376.493 6.622 7.702 8.266 8.454l1.034-.165c-2.443-2.583-6.224-8.735-6.482-9.323 1.808-1.01 3.311-2.959 3.311-4.438 0-1.292-.775-2.184-2.019-2.677-1.597-.634-4.392-.658-6.623-.658l-5.072.024.07.493c.517.047 2.114.188 2.513.282.094.446.117 4.955.117 5.8Zm2.631-.54c0-1.668.047-5.871.117-6.834 4.063 0 5.425 1.832 5.425 3.335 0 2.324-1.668 3.405-2.677 3.78-1.01.376-2.02.447-2.865.447Z" display="inline" fill="none" fill-opacity="1" opacity="1" stroke="#000" stroke-dasharray="none" stroke-dashoffset="0" stroke-linecap="butt" stroke-linejoin="round" stroke-miterlimit="4" stroke-opacity="1" stroke-width=".510074120062"/><path d="M205.543 24.742c0 2.465-.023 7.068-.117 7.75-.657.164-2.16.305-2.489.328l-.094.493c.54-.047 3.006-.094 3.969-.094 1.08 0 3.452.047 4.039.094l-.094-.493c-.517-.047-2.067-.211-2.466-.329-.07-1.08-.117-4.696-.117-6.223v-.61c.399 0 1.362-.07 2.254-.141.376.493 6.622 7.702 8.266 8.454l1.034-.165c-2.443-2.583-6.224-8.735-6.482-9.323 1.808-1.01 3.311-2.959 3.311-4.438 0-1.292-.775-2.184-2.019-2.677-1.597-.634-4.392-.658-6.623-.658l-5.072.024.07.493c.517.047 2.114.188 2.513.282.094.446.117 4.955.117 5.8Zm2.631-.54c0-1.668.047-5.871.117-6.834 4.063 0 5.425 1.832 5.425 3.335 0 2.324-1.668 3.405-2.677 3.78-1.01.376-2.02.447-2.865.447Z" display="inline" fill="#0b6acb" fill-opacity="1" stroke="none" stroke-width=".5870874124600001"/><path d="m202.843 16.735.07.492c.517.047 2.114.188 2.513.282.094.446.117 4.955.117 5.8v1.433c0 2.465-.023 7.068-.117 7.75l-.355.237-2.163.244-.065.34c.54-.047 3.006-.094 3.969-.094 1.08 0 3.451.047 4.039.094l-.282-.245-2.59-.297-.928-.657-.161-14.362-1.262-.709-2.505-.11Zm6.154.325c-.638-.003-1.054.032-1.054.032l.348.276c4.062 0 5.424 1.832 5.424 3.335 0 1.523-.715 2.509-1.493 3.115l.002.002.982-.043c.64-.353 2.458-2.185 2.177-3.754-.645-2.423-4.472-2.956-6.386-2.963m3.043 8.02c-1.334.186-2.778.237-4.142.275l.275.303c.399 0 1.362-.07 2.255-.141.375.493 6.622 7.702 8.266 8.454l.535-.085c-.823-.293-7.189-8.806-7.189-8.806" display="inline" fill="#000" fill-opacity="1" opacity=".2" stroke="none" stroke-width=".58708707445483"/><path d="m207.915 16.71-5.073.024.28.2 2.506.11 1.262.708.161 14.362.928.657 2.59.297.281.245-.094-.493c-.516-.047-2.066-.211-2.466-.329-.07-1.08-.117-4.696-.117-6.223v-.61l-.275-.303c1.364-.038 2.808-.089 4.142-.275 0 0 6.366 8.513 7.19 8.806l.497-.08-.177-.193c-2.444-2.682-6.052-8.557-6.305-9.13 1.513-.794 3.307-2.78 3.312-4.438 0-1.292-.775-2.184-2.019-2.677-1.597-.634-4.392-.658-6.623-.658m1.082.35c1.914.007 5.741.54 6.386 2.963.281 1.57-1.537 3.4-2.177 3.754l-.983.044a4.5 4.5 0 0 1-1.185.662c-1.009.376-2.019.447-2.865.447V24.2c0-1.667.047-5.87.118-6.833l-.348-.276s.416-.035 1.054-.032m-3.571 15.431c-.658.165-2.161.306-2.49.33l-.029.152 2.164-.244Z" display="inline" fill="#fff" fill-opacity="1" opacity=".3" stroke="none" stroke-width=".58708707445483"/><path d="M190.615 25.164c0 2.584-.071 6.905-.165 7.327-.634.165-2.043.306-2.419.329l-.117.493a97 97 0 0 1 3.569-.094c1.48 0 6.693.094 7.374.212.024.375.024.798.024 1.432l.493.094c.094-1.174.61-4.744.775-5.425l-.54.141c-.141.517-.259 1.245-.517 2.067-1.08.61-3.288.798-5.636.798-.07-.68-.164-5.8-.164-7.233v-.47c2.019 0 3.851.142 4.579.517 0 .47-.024 1.08-.047 1.574l.446.188c.118-.752.54-3.97.611-4.392l-.493.047a5.7 5.7 0 0 1-.235 1.01c-.564.211-2.842.376-4.861.376v-.47c0-1.386.094-5.918.164-6.247 1.245 0 4.861.306 5.284.987.023.47 0 1.526 0 1.69l.516.165c.047-.728.353-4.368.47-4.861l-.54.094a9 9 0 0 1-.188 1.103c-.634.165-6.153.165-6.904.165-.517 0-1.292-.024-2.067-.024l-2.113-.07.094.493c.563.07 1.996.235 2.442.329.094.728.165 4.462.165 6.575Z" display="inline" fill="none" fill-opacity="1" opacity="1" stroke="#000" stroke-dasharray="none" stroke-dashoffset="0" stroke-linecap="butt" stroke-linejoin="round" stroke-miterlimit="4" stroke-opacity="1" stroke-width=".510074120062"/><path d="M190.615 25.164c0 2.584-.071 6.905-.165 7.327-.634.165-2.043.306-2.419.329l-.117.493a97 97 0 0 1 3.569-.094c1.48 0 6.693.094 7.374.212.024.375.024.798.024 1.432l.493.094c.094-1.174.61-4.744.775-5.425l-.54.141c-.141.517-.259 1.245-.517 2.067-1.08.61-3.288.798-5.636.798-.07-.68-.164-5.8-.164-7.233v-.47c2.019 0 3.851.142 4.579.517 0 .47-.024 1.08-.047 1.574l.446.188c.118-.752.54-3.97.611-4.392l-.493.047a5.7 5.7 0 0 1-.235 1.01c-.564.211-2.842.376-4.861.376v-.47c0-1.386.094-5.918.164-6.247 1.245 0 4.861.306 5.284.987.023.47 0 1.526 0 1.69l.516.165c.047-.728.353-4.368.47-4.861l-.54.094a9 9 0 0 1-.188 1.103c-.634.165-6.153.165-6.904.165-.517 0-1.292-.024-2.067-.024l-2.113-.07.094.493c.563.07 1.996.235 2.442.329.094.728.165 4.462.165 6.575Z" display="inline" fill="#0b6acb" fill-opacity="1" stroke="none" stroke-width=".5870874124600001"/><path d="m199.42 15.472-.234.04a9 9 0 0 1-.188 1.104l.265-.105zm-11.506 1.215.094.493c.563.07 1.996.235 2.442.329.094.728.164 4.462.164 6.575v1.08c0 2.584-.07 6.905-.164 7.327l-.394.234-2.054.217-.088.371a97 97 0 0 1 3.569-.094c1.48 0 6.693.094 7.374.212.023.375.024.798.024 1.432l.337.065v-.002l-.021-1.813-.282-.391-5.92.127-.86-.864-.151-14.165-1.157-.674-2.642-.246Zm5.185.463.356.288v.001c1.245 0 4.861.305 5.284.986.024.47 0 1.526 0 1.69l.344.11.041-2.464-.406-.556Zm5.511 5.598-.223.021a5.6 5.6 0 0 1-.235 1.01c-.09.034-.239.066-.411.097l.002.003.677-.112Zm-.705 1.74-4.946.007.332.34c2.02 0 3.851.142 4.579.517 0 .47-.023 1.08-.047 1.574l.288.12.103-2.107Zm1.906 5.133-.203.052c-.14.517-.258 1.245-.516 2.067q-.285.16-.665.281v.001l.986-.291.397-2.107Z" display="inline" fill="#000" fill-opacity="1" opacity=".2" stroke="none" stroke-width=".58708707445483"/><path d="m199.726 15.419-.306.053-.156 1.04-.266.104c-.634.165-6.152.165-6.904.165-.516 0-1.292-.024-2.067-.024l-2.113-.07.271.213 2.642.246 1.157.674.151 14.165.86.864 5.92-.127.282.391.021 1.813v.001l.156.03c.094-1.174.61-4.744.775-5.425l-.338.088v.004l-.398 2.107-.986.291c-1.191.388-3.032.516-4.97.516-.071-.68-.165-5.8-.165-7.233v-.47l-.332-.34 4.946-.007.309.451-.103 2.107.159.068c.117-.752.54-3.97.61-4.392l-.27.026-.19 1.019-.677.112-.002-.003c-.893.162-2.756.278-4.45.278v-.47c0-1.384.094-5.912.165-6.245l-.357-.289 5.62.055.406.556-.041 2.464.173.055c.047-.728.352-4.368.469-4.861ZM190.45 32.49c-.634.165-2.043.306-2.419.33l-.029.121 2.054-.217Z" display="inline" fill="#fff" fill-opacity="1" opacity=".3" stroke="none" stroke-width=".58708707445483"/><path d="M172.256 21.478c.141-.4.611-2.114.846-2.725.704-.657 7.186-1.056 8.783-1.01-.752 1.363-10.169 14.372-11.343 15.617a289 289 0 0 1 6.411-.14c2.161 0 6.81.117 7.092.281 0 .446-.094 1.808-.117 2.255l.54.164c.094-1.198 1.174-7.35 1.291-8.032l-.54.141c-.164.587-.681 2.654-.986 3.053-1.221 1.01-6.81 1.41-9.722 1.292 1.244-1.902 9.933-13.832 11.225-15.452-1.456.07-6.223.117-6.716.117-.587 0-5.449-.117-5.942-.211-.023-.352-.047-1.55-.07-2.184l-.54-.118c-.071 1.01-.235 4.768-.752 7.022Z" display="inline" fill="none" fill-opacity="1" opacity="1" stroke="#000" stroke-dasharray="none" stroke-dashoffset="0" stroke-linecap="butt" stroke-linejoin="round" stroke-miterlimit="4" stroke-opacity="1" stroke-width=".510074120062"/><path d="M172.256 21.478c.141-.4.611-2.114.846-2.725.704-.657 7.186-1.056 8.783-1.01-.752 1.363-10.169 14.372-11.343 15.617a289 289 0 0 1 6.411-.14c2.161 0 6.81.117 7.092.281 0 .446-.094 1.808-.117 2.255l.54.164c.094-1.198 1.174-7.35 1.291-8.032l-.54.141c-.164.587-.681 2.654-.986 3.053-1.221 1.01-6.81 1.41-9.722 1.292 1.244-1.902 9.933-13.832 11.225-15.452-1.456.07-6.223.117-6.716.117-.587 0-5.449-.117-5.942-.211-.023-.352-.047-1.55-.07-2.184l-.54-.118c-.071 1.01-.235 4.768-.752 7.022Z" display="inline" fill="#0b6acb" fill-opacity="1" stroke="none" stroke-width=".5870874124600001"/><path d="M172.467 14.526c-.07 1.01-.234 4.768-.751 7.022l.392-.051.584-2.401.409-.343h.001c.704-.657 7.186-1.056 8.783-1.01-.752 1.363-10.169 14.372-11.343 15.617 2.09-.07 5.401-.14 6.411-.14 2.16 0 6.81.117 7.092.28 0 .447-.094 1.81-.118 2.255l.344.105.121-2.757-.624-.609-9.878.308-.718-.65 10.432-14.359-1.617-.385-8.743.144-.496-.644-.019-2.08Zm12.973 13.446-.221.057c-.164.587-.681 2.654-.986 3.053-.152.126-.373.242-.647.35h.001l1.119-.393Z" display="inline" fill="#000" fill-opacity="1" opacity=".2" stroke="none" stroke-width=".58708707445483"/><path d="m172.467 14.526.262.302.019 2.08.496.644 8.743-.144 1.617.385-10.432 14.36.718.65 9.878-.309.624.61-.121 2.756.197.06c.011-.15.039-.377.077-.661.039-.285.089-.626.147-1.004.117-.756.264-1.658.413-2.545.296-1.773.595-3.481.654-3.822l-.319.084-.734 3.067-1.455.51h-.002c-2.082.665-6.327.922-8.738.825q.117-.18.316-.47h.001q.2-.289.469-.674a441 441 0 0 1 2.972-4.154c.592-.82 1.214-1.678 1.837-2.534 2.489-3.423 4.984-6.81 5.63-7.62-.364.017-.935.033-1.595.048a393 393 0 0 1-5.122.07c-.44 0-3.284-.067-4.887-.14-.534-.024-.931-.049-1.054-.072-.012-.176-.023-.564-.035-.986l-.001-.035c-.012-.412-.023-.855-.035-1.163Zm.634 4.227-.409.343-.584 2.4.044-.005.104-.014.176-.567.035-.118.383-1.278.071-.229.049-.152a11 11 0 0 1 .131-.38" display="inline" fill="#fff" fill-opacity="1" opacity=".3" stroke="none" stroke-width=".58708707445483"/><use xlink:href="#a" width="100%" height="100%" transform="translate(84.945)"/><use xlink:href="#b" width="100%" height="100%" transform="translate(53.296)"/><g display="inline"><path d="M125.876 16.142c-.307-.001-.575.019-.783.063l-3.319.7-.005.001h-.001l-.164.035c-1.01.214-1.873 1.687-2.25 3.427l-.013.057q-.014.06-.027.122l-1.276 6.556c-.347 1.787.663 3.664 2.277 4.215l6.002 2.048.009.003c.009.003.027.01.037.012.933.323 3.465.737 4.273.264l1.018-.596 1.657-.97c.669-.392 1.487-1.992 1.853-3.62l1.393-6.192c.212-.941.25-1.732.138-2.228q0-.008-.003-.014-.008-.04-.018-.078c-.087-.353-.242-.763-.501-.97h-.002c-.275-.232-.845-.494-1.632-.727l-5.384-1.593c-1.078-.319-2.356-.512-3.279-.515z" opacity="1" fill="none" fill-opacity="1" stroke="#000" stroke-width=".510073" stroke-linecap="butt" stroke-linejoin="round" stroke-miterlimit="4" stroke-dasharray="none" stroke-dashoffset="0" stroke-opacity="1"/><path d="M125.876 16.142c-.307-.001-.575.019-.783.063l-3.319.7-.005.001h-.001l-.164.035c-1.01.214-1.873 1.687-2.25 3.427l-.013.057q-.014.06-.027.122l-1.276 6.556c-.347 1.787.663 3.664 2.277 4.215l6.002 2.048.009.003c.009.003.027.01.037.012.933.323 3.465.737 4.273.264l1.018-.596 1.657-.97c.669-.392 1.487-1.992 1.853-3.62l1.393-6.192c.212-.941.25-1.732.138-2.228q0-.008-.003-.014-.008-.04-.018-.078c-.087-.353-.242-.763-.501-.97h-.002c-.275-.232-.845-.494-1.632-.727l-5.384-1.593c-1.078-.319-2.356-.512-3.279-.515" opacity="1" fill="#0b6acb" fill-opacity="1" stroke="none" stroke-width=".0268108" stroke-opacity="1"/><path d="m126.317 33.366-6.001-2.049c-1.614-.55-2.625-2.427-2.278-4.214l1.276-6.556c.351-1.803 1.941-2.853 3.576-2.348l6.08 1.877c1.694.523 2.768 2.44 2.396 4.29l-1.355 6.727c-.369 1.833-2.021 2.844-3.694 2.273" opacity=".2" fill="#000" fill-opacity="1" stroke="none" stroke-width=".0268108" stroke-opacity="1"/><path d="M122.845 21.868c-.306.008-.572.238-.641.587-.084.43.162.88.551 1.004.389.125.775-.123.86-.554s-.163-.881-.553-1.005a.7.7 0 0 0-.217-.032m1.689 3.073c-.309.005-.577.234-.646.584-.085.43.163.883.555 1.012.393.128.781-.118.866-.55.086-.432-.164-.886-.557-1.013a.7.7 0 0 0-.218-.033m1.702 3.096c-.311.003-.582.23-.651.581-.086.432.164.888.559 1.02.396.13.787-.113.873-.546s-.165-.89-.561-1.02a.7.7 0 0 0-.22-.036" opacity=".9" fill="#fff" fill-opacity="1" stroke="none" stroke-width=".0315422" stroke-opacity="1"/><path d="m133.311 32.079-2.592 1.517c-.753.44-1.093-.59-.738-2.352l1.353-6.723c.387-1.923 1.338-3.735 2.105-4.023l2.631-.985c.677-.253.884.99.487 2.754l-1.393 6.191c-.366 1.63-1.184 3.23-1.853 3.62" opacity=".2" fill="#fff" fill-opacity="1" stroke="none" stroke-width=".0268108" stroke-opacity="1"/><path d="M133.142 23.9a.13.13 0 0 0-.061.012c-.177.077-.395.496-.486.935-.091.437-.02.723.156.642s.391-.495.482-.927c.08-.38.039-.651-.091-.662m.876 3.772a.1.1 0 0 0-.056.016c-.165.084-.37.482-.458.888-.088.404-.025.66.139.572.163-.087.366-.481.453-.882.078-.352.041-.595-.078-.594" display="inline" opacity=".9" fill="#fff" fill-opacity="1" stroke="none" stroke-width=".0315422" stroke-opacity="1"/><path d="m128.93 20.064-6.078-1.877c-1.617-.5-2.073-1.072-1.078-1.282l3.319-.7c.832-.176 2.625.027 4.062.452l5.384 1.593c1.511.447 2.23 1.001 1.576 1.247l-2.626.983c-.79.296-2.846.113-4.559-.416" opacity=".3" fill="#fff" fill-opacity="1" stroke="none" stroke-width=".0268108" stroke-opacity="1"/><path d="M128.382 18.018c.195-.053.65-.006 1.018.105.369.111.516.246.325.3-.192.056-.653.01-1.027-.103s-.514-.248-.316-.302" opacity=".9" fill="#fff" fill-opacity="1" stroke="none" stroke-width=".0315422" stroke-opacity="1"/></g><use xlink:href="#a" width="100%" height="100%" transform="translate(31.648)"/><g id="b"><path d="M85.997 17.274c.892.047 2.043.164 2.583.282 0 .775-.258 13.949-.657 14.935-.54.165-1.292.235-1.95.329l-.07.493a73 73 0 0 1 3.194-.094c.61 0 3.053.047 3.475.094l-.07-.493c-.446-.047-2.207-.211-2.56-.329-.305-.845-.587-13.174-.516-13.644.775.893 5.237 6.34 5.565 6.693.54.61 7.045 8.196 7.75 8.853.141-.939.329-10.802.399-11.906.047-.751.164-4.062.446-4.978.634-.094 1.48-.282 1.785-.329l.094-.493c-.493.047-2.442.094-2.959.094s-3.053-.047-3.5-.094l.118.493c.658.047 1.902.235 2.372.329.47 1.22.493 9.464.493 12.07-.751-.634-4.485-5.166-5.096-5.824-.399-.422-5.119-6.34-5.636-7.139-1.831.094-4.039.118-5.354.165z" display="inline" opacity="1" fill="none" fill-opacity="1" stroke="#000" stroke-width=".510074" stroke-linecap="butt" stroke-linejoin="round" stroke-miterlimit="4" stroke-dasharray="none" stroke-dashoffset="0" stroke-opacity="1"/><path d="M85.997 17.274c.892.047 2.043.164 2.583.282 0 .775-.258 13.949-.657 14.935-.54.165-1.292.235-1.95.329l-.07.493a73 73 0 0 1 3.194-.094c.61 0 3.053.047 3.475.094l-.07-.493c-.446-.047-2.207-.211-2.56-.329-.305-.845-.587-13.174-.516-13.644.775.893 5.237 6.34 5.565 6.693.54.61 7.045 8.196 7.75 8.853.141-.939.329-10.802.399-11.906.047-.751.164-4.062.446-4.978.634-.094 1.48-.282 1.785-.329l.094-.493c-.493.047-2.442.094-2.959.094s-3.053-.047-3.5-.094l.118.493c.658.047 1.902.235 2.372.329.47 1.22.493 9.464.493 12.07-.751-.634-4.485-5.166-5.096-5.824-.399-.422-5.119-6.34-5.636-7.139-1.831.094-4.039.118-5.354.165z" display="inline" fill="#0b6acb" fill-opacity="1" stroke="none" stroke-width=".587087"/><path d="m99.007 16.687.117.493c.658.047 1.902.235 2.372.329.47 1.22.493 9.464.493 12.07l.496.226.145-12.112-.764-.498-2.56-.267zm-13.104.094.094.493c.892.047 2.043.164 2.583.282 0 .775-.258 13.949-.657 14.935l-.245.222-1.72.22-.055.38a73 73 0 0 1 3.194-.094c.61 0 3.051.047 3.475.094l-.412-.275-2.646-.389-.547-.51.091-13.426.367.134c.775.893 5.238 6.34 5.566 6.693.54.61 7.045 8.196 7.75 8.853l-.89-3.183-11.43-13.488-1.454-.658-2.696-.09zm19.131.21-1.675.201.227.317c.634-.094 1.48-.282 1.785-.329z" opacity=".2" fill="#000" fill-opacity="1" stroke="none" stroke-width=".587087"/><path d="M91.257 16.616c-1.831.094-4.039.118-5.354.165l.368.192 2.696.091 1.453.657 11.431 13.489q.144-1.695 0 0l.89 3.183c.14-.939.328-10.802.399-11.906.047-.751.164-4.062.446-4.978l-.227-.317 1.675-.2.337.188.094-.493c-.493.047-2.443.094-2.959.094-.517 0-3.053-.047-3.499-.094l.298.24 2.561.267.764.499-.145 12.112-.496-.226c-.751-.634-4.485-5.166-5.096-5.824-.399-.422-5.119-6.34-5.636-7.139m-2.199 2.097-.09 13.426.546.51 2.646.39.412.274-.07-.493c-.446-.047-2.208-.211-2.56-.329-.305-.845-.587-13.174-.516-13.644Zm-1.135 13.778c-.54.165-1.292.235-1.95.33l-.016.113 1.721-.221z" display="inline" opacity=".3" fill="#fff" fill-opacity="1" stroke="none" stroke-width=".145735" stroke-linecap="butt" stroke-linejoin="miter" stroke-opacity="1"/></g><g id="a"><path d="m79.788 10.893-2.44 2.92 2.434 2.965c-1.74-.007-3.6-.048-4.011-.091l.117.493c.446.047 1.996.235 2.466.329.094.798.117 5.19.117 5.964v1.386c0 2.301-.023 6.646-.117 7.632-.493.094-2.09.305-2.489.329l-.094.493c.705-.047 2.865-.094 3.663-.094 1.456 0 3.899.047 4.415.094l-.117-.493c-.47-.047-1.879-.188-2.466-.329-.094-.47-.117-4.392-.117-7.444V23.59c0-2.889.023-5.613.117-6.082.845-.094 1.996-.282 2.466-.33l.117-.492c-.399.046-2.419.093-3.616.093l-.44-.002 2.479-2.965z" display="inline" opacity="1" fill="none" fill-opacity="1" stroke="#000" stroke-width=".510073" stroke-linecap="butt" stroke-linejoin="round" stroke-miterlimit="4" stroke-dasharray="none" stroke-dashoffset="0" stroke-opacity="1"/><path d="m79.788 10.893-2.44 2.92 2.434 2.965c-1.74-.007-3.6-.048-4.011-.091l.117.493c.446.047 1.996.235 2.466.329.094.798.117 5.19.117 5.964v1.386c0 2.301-.023 6.646-.117 7.632-.493.094-2.09.305-2.489.329l-.094.493c.705-.047 2.865-.094 3.663-.094 1.456 0 3.899.047 4.415.094l-.117-.493c-.47-.047-1.879-.188-2.466-.329-.094-.47-.117-4.392-.117-7.444V23.59c0-2.889.023-5.613.117-6.082.845-.094 1.996-.282 2.466-.33l.117-.492c-.399.046-2.419.093-3.616.093l-.44-.002 2.479-2.965z" display="inline" opacity="1" fill="#0b6acb" fill-opacity="1" stroke="none" stroke-width=".587087"/><path d="m79.788 10.893-2.44 2.92 2.434 2.965h.006v-2.965zm-4.017 5.794zm0 0 .117.493c.446.047 1.996.235 2.466.329.094.798.117 5.19.117 5.965v1.385c0 2.301-.023 6.646-.117 7.632l-.37.232-2.147.245-.066.345c.705-.047 2.865-.094 3.663-.094 1.456 0 3.898.047 4.415.094l-.353-.265-2.69-.42-.818-.736-.007-14.16-.949-.55-2.936-.284zm7.608.315-2.44.206.327.3c.845-.093 1.996-.281 2.466-.328z" display="inline" opacity=".2" fill="#000" fill-opacity="1" stroke="none" stroke-width=".587087"/><path d="M79.788 13.813v2.971l2.484-2.97z" display="inline" opacity=".05" fill="#000" fill-opacity="1" stroke="none" stroke-width=".145735" stroke-linecap="butt" stroke-linejoin="miter" stroke-opacity="1"/><path d="M79.788 10.893v2.92h2.484zm-4.016 5.794h-.001l.325.21 2.936.286.95.55.006 14.16.818.735 2.69.42.353.265-.117-.493c-.47-.047-1.879-.188-2.466-.329-.094-.47-.117-4.391-.117-7.444V23.59c0-2.889.023-5.613.117-6.082l-.326-.301 2.439-.206.353.178.117-.493c-.399.047-2.419.094-3.616.094l-.44-.003h-.011c-1.74-.007-3.598-.048-4.01-.091zm2.582 15.804c-.493.094-2.09.306-2.489.329l-.028.148 2.147-.245z" display="inline" opacity=".3" fill="#fff" fill-opacity="1" stroke="none" stroke-width=".587087"/></g><path d="M55.727 32.82c-.352-.047-1.667-.235-2.09-.329-.094-3.03 1.291-9.558 1.902-13.15h.094c.282.892 4.697 12.61 5.354 14.066.705-1.338 5.33-12.61 5.965-14.043h.094c.282 1.738 2.325 12.305 2.372 13.174-.47.047-2.255.259-2.584.282l-.046.493c.68-.047 3.264-.094 4.344-.094 1.104 0 2.513.047 3.311.094l-.117-.493c-.423-.07-1.362-.188-1.95-.329-.399-1.48-2.63-12.352-3.076-14.982.493-.118 1.644-.282 1.973-.329l.07-.493c-.54.047-2.512.094-3.264.094-.822 0-2.419-.047-3.17-.094l.117.493c.423.07 1.151.164 1.597.329-.047.54-4.11 10.262-4.79 11.6-.728-1.784-3.593-9.463-4.274-11.6.446-.094 1.103-.259 1.76-.329l.095-.493c-.658.047-2.513.094-3.523.094-1.244 0-3.076-.047-3.381-.094l.14.493 2.325.329c-.352 1.925-2.912 13.526-3.428 15.006-.517.14-1.268.235-1.668.305l-.164.493a54 54 0 0 1 2.607-.094c.446 0 3.17.047 3.499.094Z" display="inline" fill="none" fill-opacity="1" opacity="1" stroke="#000" stroke-dasharray="none" stroke-dashoffset="0" stroke-linecap="butt" stroke-linejoin="round" stroke-miterlimit="4" stroke-opacity="1" stroke-width=".510074120062"/><path d="M55.727 32.82c-.352-.047-1.667-.235-2.09-.329-.094-3.03 1.291-9.558 1.902-13.15h.094c.282.892 4.697 12.61 5.354 14.066.705-1.338 5.33-12.61 5.965-14.043h.094c.282 1.738 2.325 12.305 2.372 13.174-.47.047-2.255.259-2.584.282l-.046.493c.68-.047 3.264-.094 4.344-.094 1.104 0 2.513.047 3.311.094l-.117-.493c-.423-.07-1.362-.188-1.95-.329-.399-1.48-2.63-12.352-3.076-14.982.493-.118 1.644-.282 1.973-.329l.07-.493c-.54.047-2.512.094-3.264.094-.822 0-2.419-.047-3.17-.094l.117.493c.423.07 1.151.164 1.597.329-.047.54-4.11 10.262-4.79 11.6-.728-1.784-3.593-9.463-4.274-11.6.446-.094 1.103-.259 1.76-.329l.095-.493c-.658.047-2.513.094-3.523.094-1.244 0-3.076-.047-3.381-.094l.14.493 2.325.329c-.352 1.925-2.912 13.526-3.428 15.006-.517.14-1.268.235-1.668.305l-.164.493a54 54 0 0 1 2.607-.094c.446 0 3.17.047 3.499.094Z" display="inline" fill="#0b6acb" fill-opacity="1" stroke="none" stroke-width=".5870874124600001"/><path d="m52.51 16.687.14.493 2.325.329c-.352 1.925-2.912 13.526-3.428 15.006l-.347.234-1.354.172-.13.392a54 54 0 0 1 2.606-.094c.446 0 3.169.047 3.498.094l-.256-.238-2.096-.29-.829-.746 2.52-12.853.38.154v.001h.094c.282.892 4.696 12.608 5.354 14.065l.248-3.456-4.817-12.108-.915-.657-2.756-.316Zm12.399 0 .117.493c.423.07 1.15.164 1.597.329-.047.54-4.11 10.262-4.79 11.6l.33.236 4.484-10.117.305.136h.094c.281 1.738 2.325 12.305 2.372 13.174h-.001l-.373.216-2.22.171-.037.388c.681-.047 3.265-.094 4.345-.094 1.104 0 2.512.047 3.31.094l-.377-.268-2.03-.29-1.066-.88-2.727-13.853-1.107-.798-1.982-.374Zm6.1.31-2.049.136.34.376c.493-.118 1.644-.282 1.973-.329ZM59.093 17l-1.788.154.254.354c.447-.094 1.104-.259 1.761-.329Z" display="inline" fill="#000" fill-opacity="1" opacity=".2" stroke="none" stroke-width=".58708707445483"/><path d="m52.51 16.687.237.182 2.756.316.915.657 4.817 12.108-.248 3.457c.704-1.338 5.33-12.61 5.965-14.043l-.305-.136-4.484 10.117-.33-.235c-.729-1.785-3.593-9.464-4.274-11.601l-.255-.354L59.092 17l.228.179.093-.493c-.657.047-2.512.094-3.522.094-1.244 0-3.076-.047-3.381-.094m12.399 0 .244.163 1.982.374 1.108.798 2.726 13.853 1.067.88 2.03.29.377.268-.117-.493c-.423-.07-1.362-.188-1.95-.329-.399-1.48-2.63-12.352-3.076-14.982l-.34-.376 2.05-.137.263.184.07-.493c-.54.047-2.512.094-3.264.094-.822 0-2.419-.047-3.17-.094m-9.75 2.499-2.52 12.853.829.745 2.096.291.257.238-.094-.493c-.353-.047-1.667-.235-2.09-.329-.094-3.029 1.291-9.558 1.902-13.15Zm-3.612 13.329c-.517.14-1.268.235-1.668.305l-.033.1 1.355-.171Zm17.87.023c-.47.047-2.254.259-2.583.282l-.01.105 2.22-.17Z" display="inline" fill="#fff" fill-opacity="1" opacity=".3" stroke="none" stroke-width=".5870874124600001"/><path d="m38.964 15.434-.187.001c-1.099.025-2.263.388-3.02 1.002l-4.138 3.361q-.317.26-.506.533c-.577.763-1.165 2.03-1.268 2.966q-.037.271.01.596l.692 4.633c.184 1.229 1.329 2.68 2.603 3.284l4.988 2.365.014.007.02.008.116.052.035.015.02.009c1.027.491 2.585.345 3.65-.184.254-.112.527-.303.807-.577l3.81-3.728c.998-.977 1.75-2.782 1.702-4.084l-.183-4.973c-.015-.427-.107-.762-.256-.998-.32-.69-.904-1.408-1.54-1.904-.227-.222-.55-.41-.965-.542L40.19 15.62a4.2 4.2 0 0 0-1.226-.185Z" fill="none" fill-opacity="1" opacity="1" stroke="#000" stroke-dasharray="none" stroke-dashoffset="0" stroke-linecap="butt" stroke-linejoin="round" stroke-miterlimit="4" stroke-opacity="1" stroke-width=".5100738655723214"/><path d="m38.964 15.434-.187.001c-1.099.025-2.263.388-3.02 1.002l-4.138 3.361q-.317.26-.506.533c-.577.763-1.165 2.03-1.268 2.966q-.037.271.01.596l.692 4.633c.184 1.229 1.329 2.68 2.603 3.284l4.988 2.365.014.007.02.008.116.052.035.015.02.009c1.027.491 2.585.345 3.65-.184.254-.112.527-.303.807-.577l3.81-3.728c.998-.977 1.75-2.782 1.702-4.084l-.183-4.973c-.015-.427-.107-.762-.256-.998-.32-.69-.904-1.408-1.54-1.904-.227-.222-.55-.41-.965-.542L40.19 15.62a4.2 4.2 0 0 0-1.226-.185m8.178 3.886h.006-.01zm-16.05 2.915.019.002-.032-.001z" display="inline" fill="#0b6acb" fill-opacity="1" opacity="1" stroke="none" stroke-opacity="1" stroke-width=".023560668813171908"/><path d="m31.853 22.395 5.185 1.933c1.529.57 2.911 2.216 3.051 3.652l.494 5.064c.13 1.338-.98 1.826-2.445 1.131L33.15 31.81c-1.274-.604-2.42-2.055-2.603-3.284l-.691-4.632c-.196-1.31.678-1.99 1.997-1.499" display="inline" fill="#000" fill-opacity="1" opacity=".2" stroke="none" stroke-opacity="1" stroke-width=".023560695571599996"/><path d="M32.675 25.17c-.195.004-.311.148-.28.384.044.313.334.672.651.803.32.131.548-.017.506-.333-.042-.317-.338-.68-.659-.809a.6.6 0 0 0-.218-.045m3.662 1.468c-.214 0-.346.147-.317.39.039.323.347.699.691.841.347.143.6-.004.564-.33-.037-.329-.351-.71-.7-.85a.7.7 0 0 0-.238-.05M33.141 28.6c-.193-.005-.308.127-.277.355.041.301.327.659.64.8.316.141.54.01.5-.295-.04-.306-.33-.667-.647-.806a.6.6 0 0 0-.216-.054m3.61 1.58c-.211-.01-.341.124-.314.358.037.312.34.686.68.838.342.154.592.025.557-.29-.036-.315-.345-.695-.688-.845a.7.7 0 0 0-.235-.06" display="inline" fill="#fff" fill-opacity="1" opacity=".9" stroke="none" stroke-opacity="1" stroke-width=".027718442671699997"/><path d="m41.987 23.47 4.12-3.639c1.076-.95 1.97-.535 2.022.889l.184 4.973c.047 1.302-.705 3.107-1.704 4.084l-3.81 3.728c-1.09 1.067-2.084.896-2.212-.425l-.494-5.062c-.142-1.454.712-3.503 1.894-4.548" display="inline" fill="#fff" fill-opacity="1" opacity=".2" stroke="none" stroke-opacity="1" stroke-width=".023560695571599996"/><path d="M45.955 22.93c-.076.002-.167.044-.262.131-.256.233-.449.695-.43 1.03.02.333.242.412.495.178.253-.232.443-.688.426-1.02-.01-.21-.1-.32-.229-.319m-2.878 2.621q-.125.005-.28.142c-.269.245-.466.72-.44 1.057.028.335.267.406.534.16.266-.245.46-.713.436-1.047-.015-.21-.113-.32-.25-.312m1.574.51c-.078.004-.17.05-.267.14-.259.24-.451.701-.429 1.029.023.325.25.392.506.152s.446-.696.425-1.02c-.012-.205-.105-.31-.235-.302m1.495.483q-.114.007-.256.138c-.249.235-.436.685-.418 1.003s.234.38.48.145c.247-.235.432-.68.416-.995-.01-.198-.098-.3-.222-.29m-2.759 2.642c-.087-.006-.195.043-.31.151-.261.247-.453.709-.428 1.028s.258.374.517.126c.258-.247.448-.702.425-1.02-.013-.18-.091-.277-.204-.285" display="inline" fill="#fff" fill-opacity="1" opacity=".9" stroke="none" stroke-opacity="1" stroke-width=".027718442671699997"/><path d="m40.19 15.62 5.178 1.656c1.468.47 1.796 1.622.702 2.587l-4.122 3.641c-1.164 1.029-3.318 1.418-4.793.868l-5.194-1.937c-1.371-.511-1.51-1.689-.342-2.637l4.139-3.36c1.1-.894 3.063-1.257 4.432-.819" display="inline" fill="#fff" fill-opacity="1" opacity=".3" stroke="none" stroke-opacity="1" stroke-width=".023560695571599996"/><path d="M39.1 17.08c-.286-.01-.604.08-.8.243-.264.218-.211.485.118.596.331.11.814.022 1.077-.198.262-.22.205-.486-.126-.595a1 1 0 0 0-.269-.045m3.71 1.224c-.295-.012-.619.08-.815.248-.262.224-.199.5.144.615.344.115.838.025 1.1-.202.262-.225.193-.5-.15-.613a1 1 0 0 0-.28-.048m-5.708.438c-.288-.012-.61.08-.811.246-.27.224-.222.498.108.613.331.115.82.026 1.088-.2.268-.224.216-.498-.115-.611a1 1 0 0 0-.27-.048m3.713 1.271c-.296-.013-.624.08-.825.252-.27.23-.21.513.133.633.345.12.844.029 1.112-.203.268-.231.204-.514-.14-.631a1 1 0 0 0-.28-.05m-5.758.43c-.29-.014-.616.079-.822.25-.275.228-.233.51.097.63.331.12.825.03 1.1-.201.275-.23.227-.512-.104-.63a1 1 0 0 0-.27-.05m3.716 1.32c-.299-.014-.63.08-.837.256-.275.236-.221.528.123.652.344.125.849.033 1.124-.204.274-.237.215-.528-.13-.65a1 1 0 0 0-.28-.053" display="inline" fill="#fff" fill-opacity="1" opacity=".9" stroke="none" stroke-opacity="1" stroke-width=".027718442671699997"/><g display="inline"><path d="m15.039.255-1.984 1.83-.052 4.301c-2.808.13-6.44-2.086-6.208-3.478.231-1.39 2.988-1.34 2.988-1.34C5.3.076 3.6 7.289 3.6 7.289c.902 2.087 5.462 3.143 5.462 3.143-1.057 1.082-3.324 5.72-3.324 5.72s1.862 6.6 1.443 12.16c-.462 6.133-5.051 6.817-5.075 7.033-.541.618-.868 2.232-1.134 3.323-.416 1.707.191 1.782 1.65 2.937 0 0 2.052 1.454 1.854 3.195-.006.055.052 1.03-2.757 2.19-2.808 1.159-.72 2.756-.72 2.756-.748-1.752.772-1.855 2.369-2.705s1.943-2.113 1.88-2.808c-.174-1.966-3.297-4.096-3.297-4.096 3.297-2.375 11.078-1.108 11-.928-.076.18-.05 10.614.258 10.33.31-.282 1.495-10.072 1.495-10.072.953.154 3.58 1.107 3.58 1.107 1.237-2.937 1.675-3.091 3.762-5.848s4.87-7.754 4.74-14.17c-.128-6.414-1.082-9.093-3.478-11.953s-8.14-2.267-8.14-2.267c-.13-1.7.824-5.462.824-5.462ZM11.38 10.946l1.675.13.051 22.748s-4.791-.18-5.667.309c0 0 5.075-4.88 4.035-11.984-.41-2.8-1.485-6.967-.094-11.203zm4.09.222c1.459.007 7.285.635 7.091 10.186-.196 9.66-3.426 13.423-3.426 13.423s-1.907-.67-3.942-.825l-.051-22.774s.119-.011.328-.01zm-6.184 1.316s-.291 3.68-.09 4.737l-1.75 1.002-.31-1.786s1.458-3.206 2.15-3.953zm0 5.356.31 1.803-1.712.948-.292-1.767zm.474 2.35.255 1.694-1.767.966-.2-1.676Zm.364 2.24.11 1.531-1.768.929-.09-1.512Zm.146 2.114s-.073 2.951-2.332 6.85c0 0 .71-2.095.547-5.94z" display="inline" fill="none" fill-opacity="1" stroke="#000" stroke-width=".510074" stroke-linecap="butt" stroke-linejoin="round" stroke-miterlimit="4" stroke-dasharray="none" stroke-opacity="1"/><path d="m15.039.255-1.984 1.83-.052 4.301c-2.808.13-6.44-2.086-6.208-3.478.231-1.39 2.988-1.34 2.988-1.34C5.3.076 3.6 7.289 3.6 7.289c.902 2.087 5.462 3.143 5.462 3.143-1.057 1.082-3.324 5.72-3.324 5.72s1.862 6.6 1.443 12.16c-.462 6.133-5.051 6.817-5.075 7.033-.541.618-.868 2.232-1.134 3.323-.416 1.707.191 1.782 1.65 2.937 0 0 2.052 1.454 1.854 3.195-.006.055.052 1.03-2.757 2.19-2.808 1.159-.72 2.756-.72 2.756-.748-1.752.772-1.855 2.369-2.705s1.943-2.113 1.88-2.808c-.174-1.966-3.297-4.096-3.297-4.096 3.297-2.375 11.078-1.108 11-.928-.076.18-.05 10.614.258 10.33.31-.282 1.495-10.072 1.495-10.072.953.154 3.58 1.107 3.58 1.107 1.237-2.937 1.675-3.091 3.762-5.848s4.87-7.754 4.74-14.17c-.128-6.414-1.082-9.093-3.478-11.953s-8.14-2.267-8.14-2.267c-.13-1.7.824-5.462.824-5.462ZM11.38 10.946l1.675.13.051 22.748s-4.791-.18-5.667.309c0 0 5.075-4.88 4.035-11.984-.41-2.8-1.485-6.967-.094-11.203m4.09.222c1.459.007 7.285.635 7.091 10.186-.196 9.66-3.426 13.423-3.426 13.423s-1.907-.67-3.942-.825l-.051-22.774s.119-.011.328-.01m-6.184 1.316s-.291 3.68-.09 4.737l-1.75 1.002-.31-1.786s1.458-3.206 2.15-3.953m0 5.356.31 1.803-1.712.948-.292-1.767zm.474 2.35.255 1.694-1.767.966-.2-1.676Zm.364 2.24.11 1.531-1.768.929-.09-1.512Zm.146 2.114s-.073 2.951-2.332 6.85c0 0 .71-2.095.547-5.94z" display="inline" fill="#0b6acb" fill-opacity="1" stroke="none" stroke-width=".145735" stroke-linecap="butt" stroke-linejoin="miter" stroke-opacity="1"/><path d="m15.038.255-1.983 1.83-.052 4.301 1.09 1.153.129-5.467Zm-6.443 1.11C4.997 1.364 3.6 7.288 3.6 7.288c.902 2.087 5.462 3.143 5.462 3.143-1.057 1.082-3.324 5.72-3.324 5.72s1.862 6.6 1.443 12.16c-.463 6.133-5.052 6.817-5.075 7.033-.541.618-.868 2.232-1.134 3.323-.416 1.707.191 1.782 1.65 2.937 0 0 2.051 1.454 1.854 3.195-.006.055.051 1.03-2.757 2.19s-.721 2.756-.721 2.756c-.806-.831.06-1.474.06-1.474.434-.483 1.358-.725 2.31-1.231q.286-.154.52-.322c1.395-1.978.873-3.027.753-3.266-.757-1.513-3.233-3.298-3.233-3.298l.543-.018c3.297-2.375 11.078-1.108 11-.928-.075.178-.052 10.304.245 10.336l.807-11.47a22 22 0 0 0-4-.467c-2.914-.078-7.828 1.06-7.828 1.06l.746-2.4c1.904-.734 3.611-2.826 4.46-4.02l-.24-.603c.242-.732.453-1.844.555-3.204.42-5.56-1.352-12.151-1.352-12.151s1.54-3.05 2.68-4.719l.262.914s-.291 3.68-.09 4.737l-1.75 1.002.005.352.141.249 1.694-.984.31 1.804-1.713.947.021.356.143.227 1.713-.984.255 1.694-1.767.966-.017.309.144.219 1.75-.947.108 1.53-1.767.929-.068.308.087.257 1.785-.911s-.073 2.951-2.332 6.85l.267.649c1.388-2.063 3.132-5.534 2.488-9.93-.422-2.799-1.12-6.139-.744-9.462.08-.705.558-3.056.558-3.056l.873 1.351 1.675.13.051 22.748 1.047 1.21-.066-25.01 1.055 1.154s.119-.011.327-.01c1.46.008 7.286.635 7.092 10.187-.196 9.658-3.426 13.422-3.426 13.422l.35 1.342 1.111-1.416c1.876-3.21 2.668-6.926 2.981-10.597.248-3.08.337-6.325-.939-9.213-1.163-3.018-4.381-5.058-7.62-4.872-3.283.102-7.407-.76-10.146-2.915.176-.573 1.111-2.687 1.121-2.64 0 0 .445-2.148 1.318-2.32l.002-.001c.864-.605 2.47-.576 2.47-.576a3.8 3.8 0 0 0-1.188-.204m5.408 36.709.7 1.392c.954.154 3.582 1.107 3.582 1.107l-.644-1.455c-1.251-.436-2.428-.788-3.637-1.044" display="inline" opacity=".2" fill="#000" fill-opacity="1" stroke="none" stroke-width=".145735" stroke-linecap="butt" stroke-linejoin="miter" stroke-opacity="1"/><path d="m15.038.255-.816 1.817-.13 5.467q.66.012 1.28-.05c1.84-.08 3.76-.005 5.468.747 1.213.502 2.027 1.589 2.718 2.658 1.557 2.438 1.88 5.417 2.01 8.226.163 2.576-.037 5.12-.765 7.583-.834 2.902-2.342 5.656-4.207 8l-1.111 1.415c-.707.938-1.36 1.926-1.844 3l.644 1.455c1.236-2.937 1.674-3.091 3.761-5.848s4.87-7.754 4.74-14.17c-.129-6.414-1.082-9.093-3.478-11.953s-8.14-2.267-8.14-2.267c-.13-1.7.824-5.462.824-5.462Zm4.447 35.864-.35-1.342s-1.907-.67-3.942-.825l-.052-22.774-1.054-1.154.066 25.01-1.047-1.21s-4.791-.18-5.667.309c0 0 .31-.3.76-.854l.004-.005.059-.075a15 15 0 0 0 .453-.595l.065-.09.003-.003a16 16 0 0 0 .551-.828q.042-.064.082-.13l.004-.006a17 17 0 0 0 .844-1.574c.202-.433.394-.895.565-1.385l.008-.022a15 15 0 0 0 .439-1.522l.013-.062q.053-.235.098-.476l.012-.064q.096-.531.152-1.091l.01-.115q.02-.221.032-.447.005-.081.009-.164a12 12 0 0 0 .011-.467l.001-.072v-.02q0-.196-.007-.395l-.003-.097a13 13 0 0 0-.13-1.425q-.07-.469-.158-.986l-.021-.126-.012-.073q-.087-.508-.177-1.058a54 54 0 0 1-.18-1.202l-.051-.402q-.014-.116-.027-.233l-.047-.438q-.011-.115-.021-.232a24 24 0 0 1-.036-.448q-.008-.112-.014-.226-.015-.236-.025-.476l-.004-.19c-.046-1.632.105-3.366.68-5.113l-.874-1.351s-.478 2.351-.558 3.056c-.375 3.323.322 6.663.744 9.461.644 4.397-1.1 7.868-2.488 9.93l-.267-.649s.71-2.095.547-5.938l-.087-.257.068-.308-.09-1.512-.145-.22.017-.308-.2-1.676-.144-.227-.02-.356-.292-1.767-.14-.25-.006-.351-.31-1.786s1.458-3.206 2.15-3.953l-.262-.914c-1.14 1.668-2.68 4.719-2.68 4.719s1.771 6.591 1.352 12.15c-.102 1.36-.313 2.473-.556 3.205l.24.604c-.848 1.193-2.555 3.285-4.46 4.02 0 0 2.443-.645 4.726-.99 1.766-.273 3.511-.295 5.287-.285q.61.003 1.22.042c1.809.114 3.619.461 5.331 1.084m-5.392-28.58-1.09-1.153c-2.808.13-6.44-2.086-6.209-3.478.055-.328.252-.576.52-.763H7.31c-.873.173-1.318 2.32-1.318 2.32 1.7 1.836 5.112 3.019 8.1 3.074m-.09 30.534-.807 11.471q.006.001.013-.005c.31-.284 1.495-10.074 1.495-10.074zM1.951 40.136l-.543.018s2.476 1.785 3.233 3.298c.12.24.642 1.288-.752 3.266 1.152-.823 1.414-1.874 1.36-2.486-.175-1.966-3.298-4.096-3.298-4.096m-.893 8.135s-.866.643-.06 1.474c-.302-.708-.233-1.146.06-1.474Z" display="inline" opacity=".3" fill="#fff" stroke="none" stroke-width=".145735" stroke-linecap="butt" stroke-linejoin="miter" stroke-opacity="1"/></g></svg>