<svg xmlns="http://www.w3.org/2000/svg" viewBox="0 0 48.57 50"><path d="m38.964 15.434-.187.001c-1.099.025-2.263.388-3.02 1.002l-4.138 3.361q-.317.26-.506.533c-.577.763-1.165 2.03-1.268 2.966q-.037.271.01.596l.692 4.633c.184 1.229 1.329 2.68 2.603 3.284l4.988 2.365.014.007.02.008.116.052.035.015.02.009c1.028.491 2.585.345 3.65-.184.254-.112.527-.303.807-.577l3.81-3.728c.998-.977 1.75-2.782 1.702-4.084l-.183-4.973c-.015-.427-.107-.762-.256-.998-.32-.69-.904-1.408-1.54-1.904-.227-.222-.55-.41-.965-.542L40.19 15.62a4.2 4.2 0 0 0-1.226-.185z" opacity="1" fill="none" fill-opacity="1" stroke="#000" stroke-width=".510074" stroke-linecap="butt" stroke-linejoin="round" stroke-miterlimit="4" stroke-dasharray="none" stroke-dashoffset="0" stroke-opacity="1"/><path d="m38.964 15.434-.187.001c-1.099.025-2.263.388-3.02 1.002l-4.138 3.361q-.317.26-.506.533c-.577.763-1.165 2.03-1.268 2.966q-.037.271.01.596l.692 4.633c.184 1.229 1.329 2.68 2.603 3.284l4.988 2.365.014.007.02.008.116.052.035.015.02.009c1.028.491 2.585.345 3.65-.184.254-.112.527-.303.807-.577l3.81-3.728c.998-.977 1.75-2.782 1.702-4.084l-.183-4.973c-.015-.427-.107-.762-.256-.998-.32-.69-.904-1.408-1.54-1.904-.227-.222-.55-.41-.965-.542L40.19 15.62a4.2 4.2 0 0 0-1.226-.185m8.178 3.886h.006-.01zm-16.05 2.915.019.002-.032-.001z" display="inline" opacity="1" fill="#0b6acb" fill-opacity="1" stroke="none" stroke-width=".0235607" stroke-opacity="1"/><path d="m31.853 22.395 5.185 1.933c1.529.57 2.911 2.215 3.051 3.652l.494 5.063c.13 1.339-.98 1.827-2.445 1.132L33.15 31.81c-1.274-.604-2.42-2.055-2.603-3.284l-.691-4.632c-.196-1.31.678-1.99 1.997-1.499" display="inline" opacity=".2" fill="#000" fill-opacity="1" stroke="none" stroke-width=".0235607" stroke-opacity="1"/><path d="M32.675 25.17c-.195.004-.311.148-.28.384.044.313.334.672.651.803.32.132.548-.017.506-.333-.042-.317-.338-.68-.659-.809a.6.6 0 0 0-.218-.045m3.662 1.469c-.214 0-.346.146-.317.389.039.323.347.699.691.841.347.143.6-.004.564-.33-.037-.329-.351-.71-.7-.85a.7.7 0 0 0-.238-.05M33.141 28.6c-.193-.005-.308.127-.277.355.041.301.327.659.64.8.316.141.54.01.5-.295-.04-.306-.33-.667-.647-.806a.6.6 0 0 0-.216-.054m3.61 1.58c-.211-.01-.341.124-.314.358.037.312.34.686.68.838.342.154.592.025.557-.29-.036-.315-.345-.695-.688-.845a.7.7 0 0 0-.235-.06" display="inline" opacity=".9" fill="#fff" fill-opacity="1" stroke="none" stroke-width=".0277184" stroke-opacity="1"/><path d="m41.987 23.47 4.12-3.639c1.076-.95 1.97-.535 2.022.889l.184 4.973c.047 1.303-.705 3.107-1.704 4.084l-3.81 3.728c-1.09 1.067-2.084.896-2.212-.425l-.494-5.062c-.142-1.454.712-3.503 1.894-4.548" display="inline" opacity=".2" fill="#fff" fill-opacity="1" stroke="none" stroke-width=".0235607" stroke-opacity="1"/><path d="M45.955 22.93c-.076.002-.167.044-.263.131-.256.233-.448.695-.429 1.03.02.333.242.412.495.178.253-.232.443-.688.426-1.02-.01-.21-.1-.32-.229-.319m-2.878 2.621q-.125.005-.28.142c-.269.245-.466.72-.44 1.057.028.335.267.406.534.16.265-.245.46-.713.436-1.047-.015-.21-.113-.32-.25-.312m1.574.51c-.078.004-.17.05-.267.14-.259.24-.451.701-.429 1.029.023.325.25.392.506.152.255-.24.445-.696.425-1.02-.012-.205-.105-.31-.235-.302m1.495.483q-.114.007-.256.138c-.249.235-.436.685-.418 1.003s.234.38.48.145c.247-.235.432-.68.416-.995-.01-.198-.098-.3-.222-.29m-2.759 2.642c-.087-.006-.195.043-.31.151-.261.247-.453.709-.428 1.028s.258.374.517.126c.258-.247.448-.702.425-1.02-.013-.18-.091-.277-.204-.285" display="inline" opacity=".9" fill="#fff" fill-opacity="1" stroke="none" stroke-width=".0277184" stroke-opacity="1"/><path d="m40.19 15.62 5.178 1.656c1.468.47 1.796 1.621.702 2.588l-4.122 3.64c-1.164 1.029-3.318 1.418-4.793.868l-5.194-1.937c-1.371-.511-1.51-1.689-.342-2.637l4.139-3.36c1.1-.894 3.063-1.257 4.432-.819" display="inline" opacity=".3" fill="#fff" fill-opacity="1" stroke="none" stroke-width=".0235607" stroke-opacity="1"/><path d="M39.1 17.08c-.286-.01-.604.08-.8.243-.264.218-.211.485.118.596.331.11.814.022 1.077-.198.262-.22.205-.486-.126-.595a1 1 0 0 0-.269-.045m3.71 1.224c-.295-.012-.619.08-.815.248-.262.224-.199.5.144.615.344.115.838.025 1.1-.202.262-.225.193-.5-.15-.613a1 1 0 0 0-.28-.048m-5.708.438c-.288-.012-.61.08-.811.246-.27.223-.222.498.108.613.331.115.82.026 1.088-.2.268-.224.216-.498-.115-.611a1 1 0 0 0-.27-.048m3.713 1.271c-.296-.013-.624.08-.825.252-.27.23-.21.513.133.633.345.12.844.029 1.112-.203.268-.231.204-.514-.14-.632a1 1 0 0 0-.28-.05m-5.758.43c-.29-.014-.616.079-.822.25-.275.228-.233.51.097.63.331.12.825.03 1.1-.201.275-.23.227-.512-.104-.63a1 1 0 0 0-.27-.05m3.716 1.32c-.299-.014-.63.08-.837.256-.275.236-.221.527.122.652.345.125.85.033 1.125-.205.274-.236.216-.527-.13-.65a1 1 0 0 0-.28-.052" display="inline" opacity=".9" fill="#fff" fill-opacity="1" stroke="none" stroke-width=".0277184" stroke-opacity="1"/><g display="inline"><path d="m15.039.255-1.984 1.83-.052 4.301c-2.808.13-6.44-2.086-6.208-3.478.231-1.39 2.988-1.34 2.988-1.34C5.3.076 3.6 7.289 3.6 7.289c.902 2.087 5.462 3.143 5.462 3.143-1.057 1.082-3.324 5.72-3.324 5.72s1.862 6.6 1.443 12.16c-.462 6.133-5.051 6.817-5.075 7.033-.541.618-.868 2.232-1.134 3.323-.416 1.707.191 1.782 1.65 2.937 0 0 2.052 1.454 1.854 3.195-.006.055.052 1.03-2.757 2.19-2.808 1.159-.72 2.756-.72 2.756-.748-1.752.772-1.855 2.37-2.705 1.596-.85 1.942-2.113 1.88-2.808-.175-1.966-3.298-4.096-3.298-4.096 3.297-2.375 11.078-1.108 11-.928s-.05 10.614.258 10.33c.31-.282 1.495-10.072 1.495-10.072.953.154 3.58 1.107 3.58 1.107 1.237-2.937 1.675-3.091 3.762-5.848s4.87-7.754 4.74-14.17c-.128-6.414-1.082-9.093-3.478-11.953s-8.14-2.267-8.14-2.267c-.13-1.7.824-5.462.824-5.462ZM11.38 10.946l1.675.13.051 22.748s-4.791-.18-5.667.309c0 0 5.075-4.88 4.035-11.984-.41-2.8-1.485-6.967-.094-11.203zm4.09.222c1.459.007 7.285.635 7.091 10.186-.196 9.66-3.426 13.423-3.426 13.423s-1.907-.67-3.942-.825l-.051-22.774s.119-.011.328-.01zm-6.184 1.316s-.291 3.68-.09 4.737l-1.75 1.002-.31-1.786s1.458-3.206 2.15-3.953zm0 5.356.31 1.803-1.712.948-.292-1.767zm.474 2.35.255 1.694-1.767.966-.2-1.676Zm.364 2.24.11 1.531-1.767.929-.092-1.512zm.146 2.114s-.073 2.951-2.332 6.85c0 0 .71-2.095.547-5.94z" display="inline" fill="none" fill-opacity="1" stroke="#000" stroke-width=".510074" stroke-linecap="butt" stroke-linejoin="round" stroke-miterlimit="4" stroke-dasharray="none" stroke-opacity="1"/><path d="m15.039.255-1.984 1.83-.052 4.301c-2.808.13-6.44-2.086-6.208-3.478.231-1.39 2.988-1.34 2.988-1.34C5.3.076 3.6 7.289 3.6 7.289c.902 2.087 5.462 3.143 5.462 3.143-1.057 1.082-3.324 5.72-3.324 5.72s1.862 6.6 1.443 12.16c-.462 6.133-5.051 6.817-5.075 7.033-.541.618-.868 2.232-1.134 3.323-.416 1.707.191 1.782 1.65 2.937 0 0 2.052 1.454 1.854 3.195-.006.055.052 1.03-2.757 2.19-2.808 1.159-.72 2.756-.72 2.756-.748-1.752.772-1.855 2.37-2.705 1.596-.85 1.942-2.113 1.88-2.808-.175-1.966-3.298-4.096-3.298-4.096 3.297-2.375 11.078-1.108 11-.928s-.05 10.614.258 10.33c.31-.282 1.495-10.072 1.495-10.072.953.154 3.58 1.107 3.58 1.107 1.237-2.937 1.675-3.091 3.762-5.848s4.87-7.754 4.74-14.17c-.128-6.414-1.082-9.093-3.478-11.953s-8.14-2.267-8.14-2.267c-.13-1.7.824-5.462.824-5.462ZM11.38 10.946l1.675.13.051 22.748s-4.791-.18-5.667.309c0 0 5.075-4.88 4.035-11.984-.41-2.8-1.485-6.967-.094-11.203m4.09.222c1.459.007 7.285.635 7.091 10.186-.196 9.66-3.426 13.423-3.426 13.423s-1.907-.67-3.942-.825l-.051-22.774s.119-.011.328-.01m-6.184 1.316s-.291 3.68-.09 4.737l-1.75 1.002-.31-1.786s1.458-3.206 2.15-3.953m0 5.356.31 1.803-1.712.948-.292-1.767zm.474 2.35.255 1.694-1.767.966-.2-1.676Zm.364 2.24.11 1.531-1.767.929-.092-1.512zm.146 2.114s-.073 2.951-2.332 6.85c0 0 .71-2.095.547-5.94z" display="inline" fill="#0b6acb" fill-opacity="1" stroke="none" stroke-width=".145735" stroke-linecap="butt" stroke-linejoin="miter" stroke-opacity="1"/><path d="m15.038.255-1.983 1.83-.052 4.301 1.09 1.153.129-5.467zm-6.443 1.11C4.997 1.364 3.6 7.288 3.6 7.288c.902 2.087 5.462 3.143 5.462 3.143-1.057 1.082-3.324 5.72-3.324 5.72s1.862 6.6 1.443 12.16c-.463 6.133-5.052 6.817-5.075 7.033-.541.618-.868 2.232-1.134 3.323-.416 1.707.191 1.782 1.65 2.937 0 0 2.052 1.454 1.854 3.195-.006.055.051 1.03-2.757 2.19S1 49.744 1 49.744c-.807-.831.06-1.474.06-1.474.433-.483 1.357-.725 2.309-1.231q.286-.154.52-.322c1.395-1.978.873-3.027.753-3.266-.757-1.513-3.233-3.298-3.233-3.298l.543-.018c3.297-2.375 11.078-1.108 11-.928-.075.178-.052 10.304.245 10.336l.807-11.47a22 22 0 0 0-4-.467c-2.914-.078-7.828 1.06-7.828 1.06l.746-2.4c1.904-.734 3.611-2.826 4.46-4.02l-.24-.603c.242-.732.453-1.844.555-3.204.42-5.56-1.352-12.151-1.352-12.151s1.54-3.05 2.68-4.719l.262.914s-.291 3.68-.09 4.737l-1.75 1.002.005.352.141.249 1.694-.984.31 1.804-1.712.947.02.356.143.227 1.713-.984.255 1.694-1.767.966-.017.309.144.219 1.75-.947.108 1.53-1.767.929-.068.308.087.257 1.785-.911s-.073 2.951-2.332 6.85l.267.649c1.388-2.063 3.132-5.534 2.488-9.93-.422-2.799-1.12-6.139-.744-9.462.08-.705.558-3.056.558-3.056l.873 1.351 1.675.13.051 22.748 1.047 1.21-.066-25.01 1.055 1.154s.119-.011.327-.01c1.46.008 7.286.635 7.092 10.187-.196 9.658-3.426 13.422-3.426 13.422l.35 1.342 1.111-1.416c1.876-3.21 2.668-6.926 2.981-10.597.248-3.08.337-6.325-.939-9.213-1.163-3.018-4.381-5.058-7.62-4.872-3.283.102-7.407-.76-10.146-2.915.176-.573 1.111-2.687 1.122-2.64 0 0 .444-2.148 1.317-2.32l.002-.001c.864-.605 2.47-.576 2.47-.576a3.8 3.8 0 0 0-1.188-.204m5.409 36.709.7 1.392c.953.154 3.58 1.107 3.58 1.107l-.643-1.455c-1.251-.436-2.428-.788-3.637-1.044" display="inline" opacity=".2" fill="#000" fill-opacity="1" stroke="none" stroke-width=".145735" stroke-linecap="butt" stroke-linejoin="miter" stroke-opacity="1"/><path d="m15.038.255-.816 1.817-.13 5.467q.66.013 1.28-.05c1.84-.08 3.76-.005 5.468.747 1.213.502 2.027 1.589 2.718 2.658 1.557 2.438 1.88 5.417 2.01 8.226.163 2.576-.037 5.12-.765 7.583-.834 2.902-2.342 5.656-4.207 8l-1.111 1.415c-.707.938-1.36 1.926-1.844 3l.644 1.455c1.236-2.937 1.674-3.091 3.761-5.848s4.87-7.754 4.74-14.17c-.129-6.414-1.082-9.093-3.478-11.953s-8.14-2.267-8.14-2.267c-.13-1.7.824-5.462.824-5.462Zm4.447 35.863-.35-1.341s-1.907-.67-3.942-.825l-.052-22.774-1.054-1.154.066 25.01-1.047-1.21s-4.791-.18-5.667.309c0 0 .31-.3.76-.854l.004-.005.06-.075a15 15 0 0 0 .452-.595l.065-.09.003-.003a16 16 0 0 0 .551-.828q.042-.064.082-.13l.004-.006a17 17 0 0 0 .844-1.574c.202-.433.394-.895.565-1.385l.008-.022a15 15 0 0 0 .439-1.522l.013-.062q.053-.235.098-.476l.012-.064q.096-.531.152-1.091l.01-.115q.02-.221.032-.447.005-.081.009-.164a12 12 0 0 0 .011-.467l.001-.072v-.02q0-.196-.007-.395l-.003-.097a13 13 0 0 0-.13-1.425q-.07-.469-.158-.986l-.021-.126-.012-.073q-.087-.508-.177-1.058a54 54 0 0 1-.18-1.202l-.051-.402q-.014-.116-.027-.233l-.047-.438q-.011-.115-.021-.232a24 24 0 0 1-.036-.448q-.008-.112-.014-.226-.015-.236-.025-.476l-.004-.19c-.046-1.632.105-3.366.68-5.113l-.874-1.351s-.478 2.351-.558 3.056c-.375 3.323.322 6.663.744 9.461.644 4.397-1.1 7.868-2.488 9.93l-.267-.649s.71-2.095.547-5.938l-.087-.257.068-.308-.09-1.512-.145-.22.017-.308-.2-1.676-.144-.227-.02-.356-.292-1.767-.14-.25-.006-.351-.31-1.786s1.458-3.206 2.15-3.953l-.262-.914c-1.14 1.668-2.68 4.719-2.68 4.719s1.771 6.591 1.352 12.15c-.102 1.36-.313 2.473-.556 3.205l.24.604c-.848 1.193-2.555 3.285-4.46 4.02 0 0 2.443-.645 4.726-.99 1.766-.273 3.511-.295 5.287-.285q.61.003 1.22.042c1.809.114 3.619.461 5.331 1.084M14.093 7.54l-1.09-1.153c-2.808.13-6.44-2.086-6.209-3.478.055-.328.252-.576.52-.763H7.31c-.873.173-1.318 2.32-1.318 2.32 1.7 1.836 5.112 3.019 8.1 3.074m-.09 30.534-.807 11.471q.006.001.013-.005c.31-.284 1.495-10.074 1.495-10.074zM1.951 40.136l-.543.018s2.476 1.785 3.233 3.298c.12.24.642 1.288-.752 3.266 1.152-.823 1.414-1.874 1.36-2.486-.175-1.966-3.298-4.096-3.298-4.096m-.893 8.135s-.866.643-.06 1.474c-.302-.708-.233-1.146.06-1.474Z" display="inline" opacity=".3" fill="#fff" stroke="none" stroke-width=".145735" stroke-linecap="butt" stroke-linejoin="miter" stroke-opacity="1"/></g></svg>