<?xml version="1.0" encoding="UTF-8" standalone="no"?>
<svg
   xmlns:dc="http://purl.org/dc/elements/1.1/"
   xmlns:cc="http://creativecommons.org/ns#"
   xmlns:rdf="http://www.w3.org/1999/02/22-rdf-syntax-ns#"
   xmlns:svg="http://www.w3.org/2000/svg"
   xmlns="http://www.w3.org/2000/svg"
   xmlns:xlink="http://www.w3.org/1999/xlink"
   xmlns:sodipodi="http://sodipodi.sourceforge.net/DTD/sodipodi-0.dtd"
   xmlns:inkscape="http://www.inkscape.org/namespaces/inkscape"
   inkscape:version="1.0.1 (3bc2e813f5, 2020-09-07)"
   sodipodi:docname="dominionizer-logo.svg"
   id="svg8"
   version="1.1"
   viewBox="0 0 399.37937 90.775225"
   height="343.08746"
   width="1509.4653">
  <defs
     id="defs2" />
  <sodipodi:namedview
     inkscape:guide-bbox="true"
     inkscape:document-rotation="0"
     inkscape:object-nodes="true"
     inkscape:snap-smooth-nodes="false"
     inkscape:snap-intersection-paths="false"
     inkscape:object-paths="true"
     inkscape:window-maximized="1"
     inkscape:window-y="-8"
     inkscape:window-x="-8"
     inkscape:window-height="1137"
     inkscape:window-width="3840"
     inkscape:measure-end="0,0"
     inkscape:measure-start="0,0"
     inkscape:snap-nodes="true"
     showguides="true"
     showborder="false"
     showgrid="false"
     inkscape:current-layer="svg8"
     inkscape:document-units="px"
     inkscape:cy="278.79003"
     inkscape:cx="634.91739"
     inkscape:zoom="1"
     inkscape:pageshadow="2"
     inkscape:pageopacity="0.0"
     borderopacity="1.0"
     bordercolor="#666666"
     pagecolor="#ffffff"
     id="base"
     inkscape:snap-global="true"
     units="px"
     fit-margin-top="0"
     fit-margin-left="0"
     fit-margin-right="0"
     fit-margin-bottom="0" />
  <metadata
     id="metadata5">
    <rdf:RDF>
      <cc:Work
         rdf:about="">
        <dc:format>image/svg+xml</dc:format>
        <dc:type
           rdf:resource="http://purl.org/dc/dcmitype/StillImage" />
        <dc:title></dc:title>
      </cc:Work>
    </rdf:RDF>
  </metadata>
  <g
     id="g3121"
     inkscape:label="R"
     transform="translate(72.124435,52.825177)">
    <path
       d="m 301.04078,-7.9065013 c 0,4.4766119 -0.0426,12.8329542 -0.21318,14.0693518 -1.19376,0.2984408 -3.92236,0.5542472 -4.51924,0.5968816 l -0.17054,0.8953224 c 0.98059,-0.085269 5.4572,-0.1705376 7.20521,-0.1705376 1.96119,0 6.26726,0.085269 7.33312,0.1705376 l -0.17054,-0.8953224 c -0.93796,-0.085269 -3.75183,-0.3837096 -4.47661,-0.5968816 -0.1279,-1.9611824 -0.21317,-8.5268799 -0.21317,-11.2981159 v -1.1084944 c 0.72478,0 2.47279,-0.1279031 4.0929,-0.2558063 0.68215,0.8953223 12.0229,13.984083 15.00731,15.3483837 l 1.87591,-0.2984408 c -4.43398,-4.6897839 -11.29811,-15.8599965 -11.76709,-16.9258565 3.28285,-1.8332793 6.01145,-5.3719343 6.01145,-8.0579013 0,-2.344892 -1.40694,-3.964999 -3.66656,-4.860321 -2.89914,-1.151129 -7.97263,-1.193764 -12.0229,-1.193764 l -9.20903,0.04264 0.1279,0.895322 c 0.93796,0.08527 3.8371,0.341075 4.56188,0.511613 0.17054,0.810054 0.21318,8.995858 0.21318,10.530697 z m 4.77505,-0.9805912 c 0,-3.0270415 0.0853,-10.6585995 0.21317,-12.4066095 7.37575,0 9.84855,3.325483 9.84855,6.054084 0,4.220806 -3.02705,6.1819879 -4.86033,6.8641383 -1.83327,0.6821504 -3.66655,0.8100536 -5.20139,0.8100536 z"
       style="font-style:normal;font-variant:normal;font-weight:bold;font-stretch:normal;font-size:42.6344px;line-height:1.25;font-family:'Charlemagne Std';-inkscape-font-specification:'Charlemagne Std, Bold';font-variant-ligatures:normal;font-variant-caps:normal;font-variant-numeric:normal;font-feature-settings:normal;font-variation-settings:normal;text-align:start;letter-spacing:0px;word-spacing:0px;writing-mode:lr-tb;text-anchor:start;display:inline;opacity:1;vector-effect:none;fill:none;fill-opacity:1;stroke:#000000;stroke-width:0.926042;stroke-linecap:butt;stroke-linejoin:round;stroke-miterlimit:4;stroke-dasharray:none;stroke-dashoffset:0;stroke-opacity:1;stop-color:#000000;stop-opacity:1"
       id="path1360"
       inkscape:label="border" />
    <path
       d="m 301.04078,-7.9065013 c 0,4.4766119 -0.0426,12.8329542 -0.21318,14.0693518 -1.19376,0.2984408 -3.92236,0.5542472 -4.51924,0.5968816 l -0.17054,0.8953224 c 0.98059,-0.085269 5.4572,-0.1705376 7.20521,-0.1705376 1.96119,0 6.26726,0.085269 7.33312,0.1705376 l -0.17054,-0.8953224 c -0.93796,-0.085269 -3.75183,-0.3837096 -4.47661,-0.5968816 -0.1279,-1.9611824 -0.21317,-8.5268799 -0.21317,-11.2981159 v -1.1084944 c 0.72478,0 2.47279,-0.1279031 4.0929,-0.2558063 0.68215,0.8953223 12.0229,13.984083 15.00731,15.3483837 l 1.87591,-0.2984408 c -4.43398,-4.6897839 -11.29811,-15.8599965 -11.76709,-16.9258565 3.28285,-1.8332793 6.01145,-5.3719343 6.01145,-8.0579013 0,-2.344892 -1.40694,-3.964999 -3.66656,-4.860321 -2.89914,-1.151129 -7.97263,-1.193764 -12.0229,-1.193764 l -9.20903,0.04264 0.1279,0.895322 c 0.93796,0.08527 3.8371,0.341075 4.56188,0.511613 0.17054,0.810054 0.21318,8.995858 0.21318,10.530697 z m 4.77505,-0.9805912 c 0,-3.0270415 0.0853,-10.6585995 0.21317,-12.4066095 7.37575,0 9.84855,3.325483 9.84855,6.054084 0,4.220806 -3.02705,6.1819879 -4.86033,6.8641383 -1.83327,0.6821504 -3.66655,0.8100536 -5.20139,0.8100536 z"
       style="font-style:normal;font-variant:normal;font-weight:bold;font-stretch:normal;font-size:42.6344px;line-height:1.25;font-family:'Charlemagne Std';-inkscape-font-specification:'Charlemagne Std, Bold';font-variant-ligatures:normal;font-variant-caps:normal;font-variant-numeric:normal;font-feature-settings:normal;text-align:start;letter-spacing:0px;word-spacing:0px;writing-mode:lr-tb;text-anchor:start;display:inline;fill:#0b6acb;fill-opacity:1;stroke:none;stroke-width:1.06586"
       id="path1062"
       inkscape:label="background" />
    <path
       id="path1080"
       style="font-style:normal;font-variant:normal;font-weight:bold;font-stretch:normal;font-size:42.6344px;line-height:1.25;font-family:'Charlemagne Std';-inkscape-font-specification:'Charlemagne Std, Bold';font-variant-ligatures:normal;font-variant-caps:normal;font-variant-numeric:normal;font-feature-settings:normal;text-align:start;letter-spacing:0px;word-spacing:0px;writing-mode:lr-tb;text-anchor:start;display:inline;opacity:0.2;fill:#000000;fill-opacity:1;stroke:none;stroke-width:4.02845"
       inkscape:label="shadow"
       d="m 1119.2617,-84.826172 0.4824,3.378906 c 3.5451,0.322281 14.5029,1.289041 17.2422,1.933594 0.6446,3.061622 0.8047,33.999815 0.8047,39.800781 v 9.830079 c 0,16.919478 -0.16,48.502782 -0.8047,53.175781 -5e-4,1.36e-4 0,-1.36e-4 0,0 l -2.4356,1.632812 -14.8418,1.669922 -0.4453,2.335938 c 3.7062,-0.322277 20.6258,-0.644532 27.2324,-0.644532 7.4117,0 23.6825,0.322288 27.7129,0.644532 l -1.9297,-1.681641 -17.7753,-2.037109 -6.3653,-4.507813 -1.1035,-98.552734 -8.6621,-4.861328 -17.1914,-0.75 z m 42.2285,2.230469 c -4.3781,-0.01725 -7.2304,0.21875 -7.2304,0.21875 l 2.3847,1.896484 c 27.8769,0 37.2227,12.56999 37.2227,22.882813 0,10.449915 -4.9117,17.216551 -10.2461,21.378906 l 0.01,0.01367 v 0.0039 l 6.74,-0.29882 c 4.3889,-2.425828 16.8668,-14.993437 14.9414,-25.759766 -4.4292,-16.630545 -30.6877,-20.284187 -43.8223,-20.335937 z m 20.8809,55.033203 c -9.1537,1.276927 -19.0616,1.624403 -28.4219,1.888672 l 1.8887,2.076172 v 0.0039 -0.0039 c 2.7394,0 9.3455,-0.483383 15.4688,-0.966797 2.5782,3.383895 45.441,52.853353 56.7207,58.009765 l 3.6758,-0.585937 c -5.6533,-2.00974 -49.334,-60.421875 -49.334,-60.421875 z"
       transform="scale(0.26458333)" />
    <path
       id="path1084"
       style="font-style:normal;font-variant:normal;font-weight:bold;font-stretch:normal;font-size:42.6344px;line-height:1.25;font-family:'Charlemagne Std';-inkscape-font-specification:'Charlemagne Std, Bold';font-variant-ligatures:normal;font-variant-caps:normal;font-variant-numeric:normal;font-feature-settings:normal;text-align:start;letter-spacing:0px;word-spacing:0px;writing-mode:lr-tb;text-anchor:start;display:inline;opacity:0.3;fill:#ffffff;fill-opacity:1;stroke:none;stroke-width:4.02845"
       d="m 1154.0645,-84.992188 -34.8067,0.16211 1.9219,1.371094 17.1914,0.75 8.6621,4.861328 1.1035,98.552734 6.3653,4.507813 17.7753,2.037109 1.9297,1.681641 -0.6445,-3.382813 c -3.545,-0.32228 -14.1806,-1.450169 -16.9199,-2.255859 -0.4834,-7.41234 -0.8047,-32.2272126 -0.8047,-42.701172 v -4.189453 l -1.8887,-2.076172 c 9.3603,-0.264269 19.2682,-0.611745 28.4219,-1.888672 0,0 43.6807,58.412135 49.334,60.421875 1.1365,-0.182068 2.2734,-0.362261 3.4101,-0.542967 -0.3974,-0.420398 -0.8068,-0.875147 -1.2148,-1.324218 -16.7678,-18.406029 -41.5274,-58.715764 -43.2578,-62.648438 10.3774,-5.450707 22.6868,-19.076594 22.7251,-30.455077 0,-8.86258 -5.3171,-14.985243 -13.8574,-18.369141 -10.9574,-4.350724 -30.1333,-4.511719 -45.4414,-4.511719 z m 7.4257,2.396485 c 13.1346,0.05175 39.3929,3.704432 43.8221,20.33498 1.9254,10.766329 -10.5523,23.334895 -14.9412,25.760723 l -6.7412,0.298403 v -0.0039 c -2.6555,2.076981 -5.512,3.574413 -8.1319,4.549253 -6.9288,2.5782 -13.8571,3.0625 -19.6582,3.0625 v -4.996094 c 0,-11.44079 0.3213,-40.283977 0.8047,-46.890625 l -2.3847,-1.896484 c 0,0 2.8523,-0.236 7.2304,-0.21875 z m -24.5058,105.888672 c -4.5119,1.12796 -14.8242,2.094719 -17.0801,2.255859 l -0.1992,1.046875 14.8437,-1.669922 z"
       transform="scale(0.26458333)"
       sodipodi:nodetypes="cccccccccccscccccccccscsccccscsccssccccc"
       inkscape:label="light" />
  </g>
  <g
     id="g3129"
     inkscape:label="E"
     transform="translate(72.124435,52.825177)">
    <path
       d="m 273.93729,-7.1390821 c 0,4.6897839 -0.1279,12.5345134 -0.29844,13.3019326 -1.15113,0.2984408 -3.70919,0.5542472 -4.39134,0.5968816 l -0.21317,0.8953224 c 1.66274,-0.085269 5.03085,-0.1705376 6.48042,-0.1705376 2.68597,0 12.15081,0.1705376 13.38721,0.3837096 0.0426,0.6821503 0.0426,1.4495695 0.0426,2.6006985 l 0.89532,0.170538 c 0.17054,-2.1317206 1.1085,-8.6121493 1.40694,-9.84854682 l -0.98059,0.25580632 c -0.25581,0.9379568 -0.46898,2.2596232 -0.93796,3.7518272 -1.96118,1.1084944 -5.96882,1.4495696 -10.23226,1.4495696 -0.1279,-1.2363976 -0.29844,-10.5306967 -0.29844,-13.131395 v -0.852688 c 3.66656,0 6.99204,0.2558064 8.31371,0.9379568 0,0.8526879 -0.0426,1.9611823 -0.0853,2.8565047 l 0.81006,0.3410752 c 0.21317,-1.3643008 0.98059,-7.205213 1.10849,-7.972632 l -0.89532,0.08527 c -0.0853,0.596881 -0.21317,1.193763 -0.42635,1.8332783 -1.02322,0.3837096 -5.15876,0.6821504 -8.82532,0.6821504 v -0.852688 c 0,-2.5154287 0.17054,-10.7438687 0.29844,-11.3407497 2.25963,0 8.82532,0.554247 9.59274,1.790645 0.0426,0.852688 0,2.771236 0,3.069676 l 0.93796,0.298441 c 0.0853,-1.321666 0.63952,-7.929998 0.85269,-8.82532 l -0.98059,0.170537 c -0.0853,0.767419 -0.21317,1.492204 -0.34108,2.003817 -1.15113,0.298441 -11.17021,0.298441 -12.53451,0.298441 -0.93796,0 -2.34489,-0.04264 -3.75183,-0.04264 l -3.83709,-0.127903 0.17053,0.895322 c 1.02323,0.127904 3.62393,0.426344 4.43398,0.596882 0.17054,1.321666 0.29844,8.100536 0.29844,11.9376315 z"
       style="font-style:normal;font-variant:normal;font-weight:bold;font-stretch:normal;font-size:42.6344px;line-height:1.25;font-family:'Charlemagne Std';-inkscape-font-specification:'Charlemagne Std, Bold';font-variant-ligatures:normal;font-variant-caps:normal;font-variant-numeric:normal;font-feature-settings:normal;font-variation-settings:normal;text-align:start;letter-spacing:0px;word-spacing:0px;writing-mode:lr-tb;text-anchor:start;display:inline;opacity:1;vector-effect:none;fill:none;fill-opacity:1;stroke:#000000;stroke-width:0.926042;stroke-linecap:butt;stroke-linejoin:round;stroke-miterlimit:4;stroke-dasharray:none;stroke-dashoffset:0;stroke-opacity:1;stop-color:#000000;stop-opacity:1"
       id="path1362"
       inkscape:label="border" />
    <path
       d="m 273.93729,-7.1390821 c 0,4.6897839 -0.1279,12.5345134 -0.29844,13.3019326 -1.15113,0.2984408 -3.70919,0.5542472 -4.39134,0.5968816 l -0.21317,0.8953224 c 1.66274,-0.085269 5.03085,-0.1705376 6.48042,-0.1705376 2.68597,0 12.15081,0.1705376 13.38721,0.3837096 0.0426,0.6821503 0.0426,1.4495695 0.0426,2.6006985 l 0.89532,0.170538 c 0.17054,-2.1317206 1.1085,-8.6121493 1.40694,-9.84854682 l -0.98059,0.25580632 c -0.25581,0.9379568 -0.46898,2.2596232 -0.93796,3.7518272 -1.96118,1.1084944 -5.96882,1.4495696 -10.23226,1.4495696 -0.1279,-1.2363976 -0.29844,-10.5306967 -0.29844,-13.131395 v -0.852688 c 3.66656,0 6.99204,0.2558064 8.31371,0.9379568 0,0.8526879 -0.0426,1.9611823 -0.0853,2.8565047 l 0.81006,0.3410752 c 0.21317,-1.3643008 0.98059,-7.205213 1.10849,-7.972632 l -0.89532,0.08527 c -0.0853,0.596881 -0.21317,1.193763 -0.42635,1.8332783 -1.02322,0.3837096 -5.15876,0.6821504 -8.82532,0.6821504 v -0.852688 c 0,-2.5154287 0.17054,-10.7438687 0.29844,-11.3407497 2.25963,0 8.82532,0.554247 9.59274,1.790645 0.0426,0.852688 0,2.771236 0,3.069676 l 0.93796,0.298441 c 0.0853,-1.321666 0.63952,-7.929998 0.85269,-8.82532 l -0.98059,0.170537 c -0.0853,0.767419 -0.21317,1.492204 -0.34108,2.003817 -1.15113,0.298441 -11.17021,0.298441 -12.53451,0.298441 -0.93796,0 -2.34489,-0.04264 -3.75183,-0.04264 l -3.83709,-0.127903 0.17053,0.895322 c 1.02323,0.127904 3.62393,0.426344 4.43398,0.596882 0.17054,1.321666 0.29844,8.100536 0.29844,11.9376315 z"
       style="font-style:normal;font-variant:normal;font-weight:bold;font-stretch:normal;font-size:42.6344px;line-height:1.25;font-family:'Charlemagne Std';-inkscape-font-specification:'Charlemagne Std, Bold';font-variant-ligatures:normal;font-variant-caps:normal;font-variant-numeric:normal;font-feature-settings:normal;text-align:start;letter-spacing:0px;word-spacing:0px;writing-mode:lr-tb;text-anchor:start;display:inline;fill:#0b6acb;fill-opacity:1;stroke:none;stroke-width:1.06586"
       id="path1060"
       inkscape:label="background" />
    <path
       id="path1049"
       style="font-style:normal;font-variant:normal;font-weight:bold;font-stretch:normal;font-size:42.6344px;line-height:1.25;font-family:'Charlemagne Std';-inkscape-font-specification:'Charlemagne Std, Bold';font-variant-ligatures:normal;font-variant-caps:normal;font-variant-numeric:normal;font-feature-settings:normal;text-align:start;letter-spacing:0px;word-spacing:0px;writing-mode:lr-tb;text-anchor:start;display:inline;opacity:0.2;fill:#000000;fill-opacity:1;stroke:none;stroke-width:4.02845"
       inkscape:label="shadow"
       d="m 1095.7734,-93.490234 -1.6054,0.279296 c -0.3223,2.899636 -0.8058,5.638705 -1.2891,7.572266 10e-5,-3e-6 0,6.8e-5 0,0 l 1.8222,-0.71875 1.0703,-7.128906 z m -78.9511,8.33789 0.6445,3.382813 c 3.8673,0.483416 13.6962,1.611306 16.7578,2.255859 0.6446,4.995273 1.1289,30.616733 1.1289,45.119141 v 7.412109 c 0,17.7251676 -0.4843,47.374909 -1.1289,50.275391 l -2.7051,1.603515 -14.0898,1.490235 -0.6074,2.544922 c 6.2843,-0.322277 19.0154,-0.644532 24.4941,-0.644532 10.1517,0 45.9227,0.645483 50.5957,1.451172 0.161,2.578206 0.1621,5.479355 0.1621,9.830078 l 2.3184,0.441407 v -0.002 -0.0059 l -0.1445,-12.441406 -1.9375,-2.6875 -40.625,0.875 -5.9004,-5.927735 -1.0371,-97.197265 -7.9375,-4.625 -18.125,-1.6875 z m 35.5781,3.177735 2.4473,1.976562 v 0.002 0.0059 c 2e-4,-0.0011 -3e-4,-0.0048 0,-0.0059 8.5403,0 33.3553,2.094578 36.2558,6.767578 0.161,3.222758 0,10.473601 0,11.601563 l 2.3594,0.75 v -0.002 l 0.2793,-16.904297 -2.7813,-3.8125 z m 37.8164,38.412109 -1.5273,0.144531 c -0.3224,2.255928 -0.8057,4.510669 -1.6114,6.927735 -0.6234,0.233776 -1.6423,0.454315 -2.8203,0.667968 l 0.012,0.01758 4.6465,-0.767578 z m -4.8359,11.941406 -33.9395,0.04297 2.2793,2.337891 v 0.002 c 13.8578,0 26.4265,0.966715 31.4218,3.544922 0,3.222757 -0.1608,7.412979 -0.3222,10.796875 l 1.9707,0.828125 0.7109,-14.460938 z m 13.0761,35.2167971 -1.3886,0.3613281 c -0.9669,3.5450336 -1.7724,8.5398618 -3.545,14.1796878 -1.2934,0.731066 -2.834,1.368645 -4.5625,1.93164 v 0.0059 l 6.7637,-2 2.7285,-14.4589846 z"
       transform="scale(0.26458333)" />
    <path
       id="path1074"
       style="font-style:normal;font-variant:normal;font-weight:bold;font-stretch:normal;font-size:42.6344px;line-height:1.25;font-family:'Charlemagne Std';-inkscape-font-specification:'Charlemagne Std, Bold';font-variant-ligatures:normal;font-variant-caps:normal;font-variant-numeric:normal;font-feature-settings:normal;text-align:start;letter-spacing:0px;word-spacing:0px;writing-mode:lr-tb;text-anchor:start;display:inline;opacity:0.3;fill:#ffffff;fill-opacity:1;stroke:none;stroke-width:4.02845"
       inkscape:label="light"
       d="m 1097.875,-93.855469 -2.1016,0.365235 v 0.0039 l -1.0703,7.128906 -1.8222,0.71875 c 0,6.8e-5 0,-3e-6 0,0 -1e-4,5.64e-4 10e-5,0.0014 0,0.002 -4.3507,1.127966 -42.2166,1.128907 -47.373,1.128907 -3.5451,0 -8.8641,-0.16211 -14.1817,-0.16211 l -14.5019,-0.482422 1.8613,1.462891 18.125,1.6875 7.9375,4.625 1.0371,97.197265 5.9004,5.927735 40.625,-0.875 1.9375,2.6875 0.1445,12.441406 v 0.0059 0.002 l 1.0644,0.203125 c 0.6446,-8.056897 4.1904,-32.5496581 5.3184,-37.2226566 L 1098.457,3.59375 V 3.5957 3.615231 l -2.7285,14.458985 -6.7637,2 v -0.0059 c -8.1771,2.663409 -20.8073,3.546875 -34.1093,3.546875 -0.4834,-4.672998 -1.1289,-39.801448 -1.1289,-49.630859 v -3.222656 -0.002 l -2.2793,-2.337891 33.9395,-0.04297 2.123,3.091797 -0.7109,14.460938 v 0.002 l 1.0918,0.458984 c 0.8056,-5.156412 3.706,-27.232331 4.1894,-30.132812 l -1.8574,0.175781 v 0.002 l -1.3008,6.990234 -4.6465,0.767578 -0.012,-0.01758 c -6.1299,1.111752 -18.9111,1.910157 -30.5351,1.910157 v -3.222657 c 0,-9.502549 0.6455,-40.572848 1.1289,-42.855468 v -0.0059 -0.002 l -2.4473,-1.976562 38.5644,0.378906 2.7813,3.8125 -0.2793,16.904297 v 0.002 l 1.1855,0.376953 c 0.3224,-4.995273 2.417,-29.971575 3.2227,-33.355469 z m -63.6504,117.148438 c -4.3507,1.127965 -14.0175,2.094721 -16.5957,2.255859 l -0.1992,0.837891 14.0898,-1.490235 z"
       transform="scale(0.26458333)" />
  </g>
  <g
     id="g3125"
     inkscape:label="Z"
     transform="translate(72.124435,52.825177)">
    <path
       d="m 240.60783,-13.832682 c 0.25581,-0.724785 1.10849,-3.837096 1.53484,-4.945591 1.27903,-1.193763 13.04613,-1.918548 15.94526,-1.833279 -1.3643,2.472795 -18.46069,26.0922521 -20.59241,28.3518753 3.79446,-0.1279032 9.80591,-0.2558064 11.63919,-0.2558064 3.92237,0 12.36398,0.213172 12.87559,0.5116128 0,0.8100535 -0.17054,3.2828493 -0.21317,4.0929023 l 0.98059,0.298441 c 0.17054,-2.174354 2.13172,-13.34456724 2.34489,-14.5809648 l -0.98059,0.2558064 c -0.29844,1.06585995 -1.2364,4.8176871 -1.79065,5.5424719 -2.21698,1.8332792 -12.36397,2.558064 -17.65064,2.344892 2.25963,-3.4533864 18.03435,-25.1116605 20.37925,-28.0534345 -2.64334,0.127903 -11.29812,0.213172 -12.19344,0.213172 -1.06586,0 -9.89118,-0.213172 -10.78651,-0.38371 -0.0426,-0.639516 -0.0853,-2.81387 -0.1279,-3.964999 l -0.98059,-0.213172 c -0.1279,1.83328 -0.42634,8.654783 -1.3643,12.747686 z"
       style="font-style:normal;font-variant:normal;font-weight:bold;font-stretch:normal;font-size:42.6344px;line-height:1.25;font-family:'Charlemagne Std';-inkscape-font-specification:'Charlemagne Std, Bold';font-variant-ligatures:normal;font-variant-caps:normal;font-variant-numeric:normal;font-feature-settings:normal;font-variation-settings:normal;text-align:start;letter-spacing:0px;word-spacing:0px;writing-mode:lr-tb;text-anchor:start;display:inline;opacity:1;vector-effect:none;fill:none;fill-opacity:1;stroke:#000000;stroke-width:0.926042;stroke-linecap:butt;stroke-linejoin:round;stroke-miterlimit:4;stroke-dasharray:none;stroke-dashoffset:0;stroke-opacity:1;stop-color:#000000;stop-opacity:1"
       id="path1364"
       inkscape:label="border" />
    <path
       d="m 240.60783,-13.832682 c 0.25581,-0.724785 1.10849,-3.837096 1.53484,-4.945591 1.27903,-1.193763 13.04613,-1.918548 15.94526,-1.833279 -1.3643,2.472795 -18.46069,26.0922521 -20.59241,28.3518753 3.79446,-0.1279032 9.80591,-0.2558064 11.63919,-0.2558064 3.92237,0 12.36398,0.213172 12.87559,0.5116128 0,0.8100535 -0.17054,3.2828493 -0.21317,4.0929023 l 0.98059,0.298441 c 0.17054,-2.174354 2.13172,-13.34456724 2.34489,-14.5809648 l -0.98059,0.2558064 c -0.29844,1.06585995 -1.2364,4.8176871 -1.79065,5.5424719 -2.21698,1.8332792 -12.36397,2.558064 -17.65064,2.344892 2.25963,-3.4533864 18.03435,-25.1116605 20.37925,-28.0534345 -2.64334,0.127903 -11.29812,0.213172 -12.19344,0.213172 -1.06586,0 -9.89118,-0.213172 -10.78651,-0.38371 -0.0426,-0.639516 -0.0853,-2.81387 -0.1279,-3.964999 l -0.98059,-0.213172 c -0.1279,1.83328 -0.42634,8.654783 -1.3643,12.747686 z"
       style="font-style:normal;font-variant:normal;font-weight:bold;font-stretch:normal;font-size:42.6344px;line-height:1.25;font-family:'Charlemagne Std';-inkscape-font-specification:'Charlemagne Std, Bold';font-variant-ligatures:normal;font-variant-caps:normal;font-variant-numeric:normal;font-feature-settings:normal;text-align:start;letter-spacing:0px;word-spacing:0px;writing-mode:lr-tb;text-anchor:start;display:inline;fill:#0b6acb;fill-opacity:1;stroke:none;stroke-width:1.06586"
       id="path1058"
       inkscape:label="background" />
    <path
       id="path1036"
       style="font-style:normal;font-variant:normal;font-weight:bold;font-stretch:normal;font-size:42.6344px;line-height:1.25;font-family:'Charlemagne Std';-inkscape-font-specification:'Charlemagne Std, Bold';font-variant-ligatures:normal;font-variant-caps:normal;font-variant-numeric:normal;font-feature-settings:normal;text-align:start;letter-spacing:0px;word-spacing:0px;writing-mode:lr-tb;text-anchor:start;display:inline;opacity:0.2;fill:#000000;fill-opacity:1;stroke:none;stroke-width:4.02845"
       inkscape:label="shadow"
       d="m 910.83398,-99.978516 c -0.4834,6.928933 -1.6112,32.712401 -5.15625,48.181641 l 2.69141,-0.351563 4.00391,-16.476562 2.81054,-2.347656 h 0.002 c 4.83413,-4.51186 49.30828,-7.251964 60.26562,-6.929688 -5.15641,9.345997 -69.77318,98.615942 -77.83008,107.15625 14.34127,-0.483413 37.06131,-0.966797 43.99024,-0.966797 14.8247,0 46.73042,0.805629 48.66406,1.933594 0,3.06162 -0.64552,12.409086 -0.80664,15.470703 l 2.35937,0.716797 0.82618,-18.916015 -4.28125,-4.179688 -67.7793,2.113281 -4.92773,-4.457031 71.58203,-98.53125 -11.0918,-2.642578 -59.99219,0.988281 -3.40234,-4.419922 -0.13281,-14.27539 z m 89.01172,92.259766 -1.51367,0.3945312 c -1.12796,4.0284471 -4.67277,18.2098748 -6.76758,20.9492188 -1.04472,0.863909 -2.55658,1.661584 -4.43945,2.396484 l 0.006,0.002 7.67969,-2.69336 z"
       transform="scale(0.26458333)" />
    <path
       sodipodi:nodetypes="ccccccccccccscscscccccccscscscsccsssscsccccccccccsssscssc"
       transform="scale(0.26458333)"
       d="m 910.83398,-99.978516 1.79493,2.066407 0.13281,14.27539 3.40234,4.419922 59.99281,-0.987516 11.09099,2.641372 -71.58184,98.531691 4.92773,4.457031 67.7793,-2.113281 4.28217,4.179917 -0.82643,18.916464 1.34699,0.409478 c 0.0805,-1.026878 0.26745,-2.586133 0.5332,-4.535156 8e-5,-5.41e-4 -7e-5,-0.0014 0,-0.002 0.26584,-1.949486 0.6109,-4.290349 1.00977,-6.882812 9e-5,-5.89e-4 -9e-5,-0.0014 0,-0.002 0.79794,-5.186102 1.81121,-11.37857 2.82813,-17.460937 1.1e-4,-6.87e-4 -1.2e-4,-0.0013 0,-0.002 2.03405,-12.1659625 4.08742,-23.8881046 4.49022,-26.2246096 l -2.19186,0.5728768 -5.03504,21.0485258 -9.98208,3.499691 c -0.004,-0.0013 -0.009,-0.0026 -0.0137,-0.0039 -14.28898,4.560727 -43.41476,6.32734 -59.96093,5.660156 0.53339,-0.815193 1.26673,-1.900769 2.17382,-3.21875 4.4e-4,-6.36e-4 0.002,-0.0013 0.002,-0.002 0.90771,-1.318854 1.99064,-2.871054 3.22265,-4.625 2.6e-4,-3.6e-4 -2.5e-4,-0.0016 0,-0.002 4.92959,-7.0179518 12.2567,-17.2463602 20.38867,-28.503906 3e-4,-4.15e-4 -2.9e-4,-0.0015 0,-0.002 4.06589,-5.628629 8.33371,-11.513821 12.60352,-17.384765 3.2e-4,-4.33e-4 -3.1e-4,-0.0015 0,-0.002 17.08049,-23.485497 34.20151,-46.727846 38.63285,-52.28711 -2.49768,0.120855 -6.41499,0.230026 -10.93949,0.328125 -9.0489,0.196387 -20.52464,0.342436 -27.92188,0.417969 -3.6995,0.03768 -6.37851,0.05859 -7.2246,0.05859 -3.02134,0 -22.53944,-0.452651 -33.53711,-0.951172 -3.66586,-0.166077 -6.3845,-0.33691 -7.23047,-0.498047 -0.0805,-1.208243 -0.16139,-3.867792 -0.24219,-6.767578 -2e-5,-6.89e-4 2e-5,-0.0013 0,-0.002 -0.002,-0.08206 -0.006,-0.150005 -0.008,-0.232422 -0.0785,-2.830899 -0.15604,-5.870551 -0.23438,-7.984375 z m 4.34961,29.00586 -2.81054,2.347656 -4.00391,16.476562 0.29883,-0.03906 0.71484,-0.09375 1.20703,-3.892578 c 0.0705,-0.237121 0.16666,-0.563909 0.24024,-0.8125 0.46046,-1.555933 0.94962,-3.196142 1.47656,-4.966797 0.39958,-1.343195 0.75997,-2.537793 1.15039,-3.800781 0.16627,-0.538221 0.32908,-1.067829 0.48828,-1.56836 0.11618,-0.365054 0.22694,-0.710187 0.33789,-1.048828 0.30217,-0.923 0.58621,-1.752209 0.83203,-2.404297 0.0202,-0.05349 0.0486,-0.145986 0.0684,-0.197265 z"
       style="font-style:normal;font-variant:normal;font-weight:bold;font-stretch:normal;font-size:26.0332px;line-height:1.25;font-family:'Charlemagne Std';-inkscape-font-specification:'Charlemagne Std, Bold';font-variant-ligatures:normal;font-variant-caps:normal;font-variant-numeric:normal;font-feature-settings:normal;text-align:start;letter-spacing:0px;word-spacing:0px;writing-mode:lr-tb;text-anchor:start;display:inline;opacity:0.3;fill:#ffffff;fill-opacity:1;stroke:none;stroke-width:4.02845"
       id="path1083"
       inkscape:label="light" />
  </g>
  <g
     id="g1207"
     transform="matrix(0.69531915,0,0,0.69531915,116.2882,7.0850786)"
     style="display:inline"
     inkscape:label="dice 2">
    <path
       id="path1366"
       style="font-variation-settings:normal;opacity:1;vector-effect:none;fill:none;fill-opacity:1;stroke:#000000;stroke-width:5.03366;stroke-linecap:butt;stroke-linejoin:round;stroke-miterlimit:4;stroke-dasharray:none;stroke-dashoffset:0;stroke-opacity:1;stop-color:#000000;stop-opacity:1"
       d="m 610.10742,120.78125 c -3.03428,-0.009 -5.67786,0.19029 -7.72851,0.62305 l -32.75586,6.91211 c -0.0187,0.004 -0.0322,0.01 -0.0508,0.0137 -0.005,0.001 -0.009,8.1e-4 -0.0137,0.002 -0.90987,0.19251 -0.59269,0.12448 -1.60937,0.33985 -9.97387,2.11282 -18.4913,16.64612 -22.20703,33.81445 -0.0464,0.18775 -0.0873,0.3788 -0.13086,0.56836 -0.0913,0.39692 -0.18295,0.79256 -0.26172,1.19726 l -12.5918,64.70117 c -3.43204,17.63422 6.5431,36.1548 22.47071,41.5918 l 59.22851,20.2168 c 0.0287,0.01 0.0572,0.0176 0.0859,0.0273 0.0937,0.0321 0.26986,0.0915 0.36133,0.12305 9.2129,3.18028 34.20028,7.26714 42.17773,2.59766 l 10.03711,-5.875 v -0.004 l 16.35547,-9.57422 c 6.60314,-3.86513 14.67221,-19.65471 18.28906,-35.72852 l 13.7461,-61.0957 c 2.09107,-9.29297 2.46851,-17.09283 1.36328,-21.99219 h 0.002 c -0.009,-0.043 -0.0217,-0.0895 -0.0312,-0.13281 -0.0605,-0.259 -0.11459,-0.52952 -0.18359,-0.77148 -0.85163,-3.48033 -2.38788,-7.5344 -4.9375,-9.57032 h -0.0215 c -2.71323,-2.29313 -8.33695,-4.87748 -16.11133,-7.17773 L 642.4629,125.86909 c -10.63763,-3.14756 -23.25262,-5.05955 -32.35547,-5.08789 z"
       transform="scale(0.26458333)"
       sodipodi:nodetypes="sccscscsccccccscccccccccccccss"
       inkscape:label="border" />
    <path
       id="path1386"
       style="opacity:1;fill:#0b6acb;fill-opacity:1;stroke:none;stroke-width:0.264583;stroke-opacity:1"
       d="m 610.10742,120.78125 c -3.03428,-0.009 -5.67786,0.19029 -7.72851,0.62305 l -32.75586,6.91211 c -0.0187,0.004 -0.0322,0.01 -0.0508,0.0137 -0.005,0.001 -0.009,8.1e-4 -0.0137,0.002 -0.90987,0.19251 -0.59269,0.12448 -1.60937,0.33985 -9.97387,2.11282 -18.4913,16.64612 -22.20703,33.81445 -0.0464,0.18775 -0.0873,0.3788 -0.13086,0.56836 -0.0913,0.39692 -0.18295,0.79256 -0.26172,1.19726 l -12.5918,64.70117 c -3.43204,17.63422 6.5431,36.1548 22.47071,41.5918 l 59.22851,20.2168 c 0.0287,0.01 0.0572,0.0176 0.0859,0.0273 0.0937,0.0321 0.26986,0.0915 0.36133,0.12305 9.2129,3.18028 34.20028,7.26714 42.17773,2.59766 l 10.03711,-5.875 v -0.004 l 16.35547,-9.57422 c 6.60314,-3.86513 14.67221,-19.65471 18.28906,-35.72852 l 13.7461,-61.0957 c 2.09107,-9.29297 2.46851,-17.09283 1.36328,-21.99219 h 0.002 c -0.009,-0.043 -0.0217,-0.0895 -0.0312,-0.13281 -0.0605,-0.259 -0.11459,-0.52952 -0.18359,-0.77148 -0.85163,-3.48033 -2.38788,-7.5344 -4.9375,-9.57032 h -0.0215 c -2.71323,-2.29313 -8.33695,-4.87748 -16.11133,-7.17773 L 642.4629,125.86909 c -10.63763,-3.14756 -23.25262,-5.05955 -32.35547,-5.08789 z"
       transform="scale(0.26458333)"
       sodipodi:nodetypes="sccscscsccccccscccccccccccccss"
       inkscape:label="background" />
    <path
       style="opacity:0.2;fill:#000000;fill-opacity:1;stroke:none;stroke-width:0.0700042;stroke-opacity:1"
       d="m 162.57515,76.930751 c 0,0 -15.67071,-5.3493 -15.67071,-5.3493 -4.21418,-1.43854 -6.85391,-6.3386 -5.94585,-11.00432 0,0 3.33167,-17.11855 3.33167,-17.11855 0.916,-4.70648 5.06755,-7.44821 9.33616,-6.13035 0,0 15.87499,4.90113 15.87499,4.90113 4.42439,1.36595 7.22725,6.3688 6.25496,11.19912 0,0 -3.53601,17.56676 -3.53601,17.56676 -0.96364,4.78731 -5.27829,7.42619 -9.64521,5.93551 0,0 0,0 0,0"
       id="path1404"
       inkscape:connector-curvature="0"
       inkscape:label="left side" />
    <path
       inkscape:connector-curvature="0"
       style="opacity:0.9;fill:#ffffff;fill-opacity:1;stroke:none;stroke-width:0.0823579;stroke-opacity:1"
       d="m 153.5089,46.909232 c -0.79963,0.01984 -1.49421,0.619471 -1.67331,1.531689 -0.22029,1.12224 0.42246,2.295575 1.43764,2.621544 1.01704,0.326562 2.02297,-0.320254 2.24484,-1.445905 0.22197,-1.12616 -0.42525,-2.302034 -1.44384,-2.625162 -0.19063,-0.06048 -0.38081,-0.08675 -0.56533,-0.08217 z m 4.41005,8.022248 c -0.80582,0.01413 -1.50614,0.610773 -1.68671,1.524971 -0.22214,1.12467 0.42597,2.30718 1.449,2.641701 1.02491,0.335119 2.03817,-0.306946 2.26188,-1.435055 0.22381,-1.12863 -0.4277,-2.313636 -1.45417,-2.645317 -0.19212,-0.06207 -0.38404,-0.08956 -0.57,-0.0863 z m 4.44366,8.083228 c -0.81211,0.0083 -1.51808,0.602062 -1.70015,1.518253 -0.22397,1.12712 0.42939,2.318147 1.46037,2.661338 1.03287,0.343799 2.05388,-0.293116 2.27945,-1.423686 0.22567,-1.131102 -0.43108,-2.324613 -1.46554,-2.664955 -0.19361,-0.0637 -0.38672,-0.09287 -0.57413,-0.09095 z"
       id="path1408"
       inkscape:label="dots left side" />
    <path
       id="path1394"
       d="m 180.83618,73.569251 c 0,0 -6.7675,3.96136 -6.7675,3.96136 -1.96584,1.1507 -2.85329,-1.54272 -1.92746,-6.14225 0,0 3.53297,-17.55157 3.53297,-17.55157 1.01065,-5.02086 3.49301,-9.75362 5.4966,-10.50394 0,0 6.86974,-2.57262 6.86974,-2.57262 1.76654,-0.66154 2.30798,2.58522 1.27163,7.19088 0,0 -3.63735,16.16488 -3.63735,16.16488 -0.95696,4.25286 -3.09155,8.43061 -4.83863,9.45326 0,0 0,0 0,0"
       style="opacity:0.2;fill:#ffffff;fill-opacity:1;stroke:none;stroke-width:0.0700042;stroke-opacity:1"
       inkscape:connector-curvature="0"
       inkscape:label="right side" />
    <path
       inkscape:connector-curvature="0"
       style="display:inline;opacity:0.9;fill:#ffffff;fill-opacity:1;stroke:none;stroke-width:0.0823579;stroke-opacity:1"
       d="m 180.3951,52.21485 c -0.0483,-0.004 -0.10127,0.0056 -0.15865,0.03049 -0.46196,0.200578 -1.03258,1.296124 -1.27072,2.441194 -0.2371,1.140028 -0.0523,1.888026 0.40876,1.675865 0.45812,-0.210799 1.0193,-1.291974 1.25729,-2.420522 0.20916,-0.991796 0.10113,-1.699212 -0.23668,-1.727027 z m 2.28617,9.847979 c -0.0446,2.38e-4 -0.0935,0.0136 -0.14676,0.04082 -0.42884,0.219199 -0.96516,1.260343 -1.19476,2.320271 -0.22867,1.055532 -0.0643,1.721467 0.3638,1.492417 0.42557,-0.227679 0.95403,-1.255929 1.18339,-2.301669 0.2015,-0.918802 0.10665,-1.553524 -0.20567,-1.551842 z"
       id="path1398"
       inkscape:label="dots right side" />
    <path
       id="path1388"
       d="m 169.39767,42.197351 c 0,0 -15.87125,-4.89997 -15.87125,-4.89997 -4.22084,-1.30312 -5.4116,-2.79857 -2.81366,-3.3468 0,0 8.6667,-1.82891 8.6667,-1.82891 2.17028,-0.458 6.85283,0.0706 10.60555,1.18099 0,0 14.05672,4.15905 14.05672,4.15905 3.94605,1.16754 5.82437,2.61488 4.11435,3.25525 0,0 -6.85461,2.56696 -6.85461,2.56696 -2.06285,0.77251 -7.43099,0.29433 -11.9038,-1.08657 0,0 0,0 0,0"
       style="opacity:0.3;fill:#ffffff;fill-opacity:1;stroke:none;stroke-width:0.0700042;stroke-opacity:1"
       inkscape:connector-curvature="0"
       inkscape:label="top side" />
    <path
       id="path1390"
       d="m 167.96582,36.856571 c 0.51082,-0.13823 1.69818,-0.0155 2.65868,0.27361 0.96312,0.28992 1.34634,0.64117 0.84937,0.78501 -0.50166,0.14521 -1.70587,0.0237 -2.68294,-0.2719 -0.97435,-0.29478 -1.34071,-0.64721 -0.82511,-0.78672 0,0 0,0 0,0"
       style="opacity:0.9;fill:#ffffff;fill-opacity:1;stroke:none;stroke-width:0.0823579;stroke-opacity:1"
       inkscape:connector-curvature="0"
       inkscape:label="dots top side" />
  </g>
  <use
     x="0"
     y="0"
     xlink:href="#g1042"
     id="use1044"
     width="100%"
     height="100%"
     transform="translate(96.760097)"
     style="fill:#0b6acb;fill-opacity:1"
     inkscape:label="N clone" />
  <g
     id="g1042"
     inkscape:label="N"
     transform="translate(72.124435,52.825177)">
    <path
       id="path1368"
       style="font-style:normal;font-variant:normal;font-weight:bold;font-stretch:normal;font-size:42.6344px;line-height:1.25;font-family:'Charlemagne Std';-inkscape-font-specification:'Charlemagne Std, Bold';font-variant-ligatures:normal;font-variant-caps:normal;font-variant-numeric:normal;font-feature-settings:normal;font-variation-settings:normal;text-align:start;letter-spacing:0px;word-spacing:0px;writing-mode:lr-tb;text-anchor:start;display:inline;opacity:1;vector-effect:none;fill:none;fill-opacity:1;stroke:#000000;stroke-width:0.926042;stroke-linecap:butt;stroke-linejoin:round;stroke-miterlimit:4;stroke-dasharray:none;stroke-dashoffset:0;stroke-opacity:1;stop-color:#000000;stop-opacity:1"
       d="m 84.003691,-21.46424 c 1.620108,0.08527 3.709193,0.298441 4.689784,0.511613 0,1.406935 -0.468978,25.3248327 -1.193763,27.1154775 -0.980591,0.2984408 -2.344892,0.426344 -3.538655,0.5968816 l -0.127903,0.8953224 c 1.236397,-0.085269 4.56188,-0.1705376 5.798278,-0.1705376 1.108494,0 5.542472,0.085269 6.309891,0.1705376 L 95.81342,6.7597321 C 95.003366,6.6744633 91.805786,6.3760225 91.16627,6.1628505 90.612023,4.6280121 90.10041,-17.755047 90.228314,-18.607735 c 1.406935,1.620107 9.507471,11.5112873 10.104356,12.1508033 0.98059,1.1084943 12.79032,14.8794053 14.06935,16.0731685 0.2558,-1.7053759 0.59688,-19.6118237 0.72478,-21.6156398 0.0853,-1.364301 0.29844,-7.375751 0.81006,-9.038493 1.15112,-0.170538 2.68596,-0.511613 3.24021,-0.596882 l 0.17054,-0.895322 c -0.89532,0.08527 -4.43398,0.170538 -5.37194,0.170538 -0.93795,0 -5.54247,-0.08527 -6.35252,-0.170538 l 0.21317,0.895322 c 1.19376,0.08527 3.45339,0.426344 4.30607,0.596882 0.85269,2.216989 0.89533,17.1816626 0.89533,21.91408098 -1.3643,-1.15112883 -8.14317,-9.37956788 -9.25167,-10.57333108 -0.72478,-0.7674189 -9.294296,-11.5112879 -10.232253,-12.9608569 -3.325483,0.170537 -7.333117,0.213172 -9.720643,0.298441 z"
       inkscape:label="border" />
    <path
       id="path1048"
       style="font-style:normal;font-variant:normal;font-weight:bold;font-stretch:normal;font-size:42.6344px;line-height:1.25;font-family:'Charlemagne Std';-inkscape-font-specification:'Charlemagne Std, Bold';font-variant-ligatures:normal;font-variant-caps:normal;font-variant-numeric:normal;font-feature-settings:normal;text-align:start;letter-spacing:0px;word-spacing:0px;writing-mode:lr-tb;text-anchor:start;display:inline;fill:#0b6acb;fill-opacity:1;stroke:none;stroke-width:1.06586"
       d="m 84.003691,-21.46424 c 1.620108,0.08527 3.709193,0.298441 4.689784,0.511613 0,1.406935 -0.468978,25.3248327 -1.193763,27.1154775 -0.980591,0.2984408 -2.344892,0.426344 -3.538655,0.5968816 l -0.127903,0.8953224 c 1.236397,-0.085269 4.56188,-0.1705376 5.798278,-0.1705376 1.108494,0 5.542472,0.085269 6.309891,0.1705376 L 95.81342,6.7597321 C 95.003366,6.6744633 91.805786,6.3760225 91.16627,6.1628505 90.612023,4.6280121 90.10041,-17.755047 90.228314,-18.607735 c 1.406935,1.620107 9.507471,11.5112873 10.104356,12.1508033 0.98059,1.1084943 12.79032,14.8794053 14.06935,16.0731685 0.2558,-1.7053759 0.59688,-19.6118237 0.72478,-21.6156398 0.0853,-1.364301 0.29844,-7.375751 0.81006,-9.038493 1.15112,-0.170538 2.68596,-0.511613 3.24021,-0.596882 l 0.17054,-0.895322 c -0.89532,0.08527 -4.43398,0.170538 -5.37194,0.170538 -0.93795,0 -5.54247,-0.08527 -6.35252,-0.170538 l 0.21317,0.895322 c 1.19376,0.08527 3.45339,0.426344 4.30607,0.596882 0.85269,2.216989 0.89533,17.1816626 0.89533,21.91408098 -1.3643,-1.15112883 -8.14317,-9.37956788 -9.25167,-10.57333108 -0.72478,-0.7674189 -9.294296,-11.5112879 -10.232253,-12.9608569 -3.325483,0.170537 -7.333117,0.213172 -9.720643,0.298441 z"
       inkscape:label="background" />
    <path
       id="path1019"
       style="font-style:normal;font-variant:normal;font-weight:bold;font-stretch:normal;font-size:42.6344px;line-height:1.25;font-family:'Charlemagne Std';-inkscape-font-specification:'Charlemagne Std, Bold';font-variant-ligatures:normal;font-variant-caps:normal;font-variant-numeric:normal;font-feature-settings:normal;text-align:start;letter-spacing:0px;word-spacing:0px;writing-mode:lr-tb;text-anchor:start;opacity:0.2;fill:#000000;fill-opacity:1;stroke:none;stroke-width:4.02845"
       inkscape:label="shadow"
       d="m 406.76562,-85.152344 0.80469,3.382813 c 4.51185,0.32228 13.05267,1.611306 16.27539,2.255859 3.22277,8.379171 3.38282,64.939866 3.38282,82.826172 L 430.62891,4.8613281 431.625,-78.25 426.38477,-81.669922 408.8125,-83.5 Z m -89.91601,0.644532 0.64453,3.382812 c 6.12324,0.32228 14.01844,1.127904 17.72461,1.933594 0,5.317549 -1.77237,95.716583 -4.51172,102.484375 l -1.67578,1.519531 -11.80859,1.517578 -0.37305,2.601563 c 4.673,-0.322277 17.24106,-0.644532 21.91406,-0.644532 4.18838,0 20.93808,0.32235 23.84571,0.644532 L 359.78516,27.046875 341.625,24.375 l -3.75,-3.5 0.625,-92.125 2.51953,0.921875 c 5.31755,6.123239 35.93546,43.50676 38.19141,45.923828 3.70616,4.189585 48.3397,56.238139 53.17383,60.75 L 426.28125,14.5 347.8457,-78.052734 337.875,-82.5625 l -18.5,-0.625 z m 131.27539,1.445312 -11.5,1.375 1.5625,2.173828 c 4.35069,-0.644553 10.15129,-1.933583 12.24609,-2.255859 z"
       transform="scale(0.26458333)" />
    <path
       transform="scale(0.26458333)"
       sodipodi:nodetypes="ccccccccccccccsccccccccccccccccccccccc"
       d="m 353.58984,-85.636719 c -12.56875,0.644553 -27.71651,0.80663 -36.74023,1.128907 l 2.52539,1.320312 18.5,0.625 9.97059,4.508884 L 426.28125,14.5 c 0.65744,-7.7544749 0.65744,-7.7544749 0,0 l 6.10352,21.845703 c 0.9668,-6.445515 2.25683,-74.123787 2.74023,-81.697265 0.32239,-5.156414 1.12882,-27.877731 3.0625,-34.16211 l -1.5625,-2.173828 11.5,-1.375 2.30859,1.292969 0.64453,-3.382813 c -3.38388,0.322281 -16.75964,0.644531 -20.30468,0.644532 -3.54501,0 -20.94621,-0.322244 -24.00782,-0.644532 L 408.8125,-83.5 426.38477,-81.669922 431.625,-78.25 430.62891,4.8613281 427.22852,3.3125 c -5.15641,-4.3507229 -30.77719,-35.45103 -34.9668,-39.962891 -2.73933,-2.900478 -35.12684,-43.507642 -38.67188,-48.986328 z M 338.5,-71.25 l -0.625,92.125 3.75,3.5 18.16016,2.671875 2.82422,1.884766 c 8.2e-4,9.3e-5 0.003,-9.3e-5 0.004,0 l -0.48437,-3.382813 c -3.06163,-0.322276 -15.14739,-1.45017 -17.56446,-2.255859 -2.09479,-5.800964 -4.02834,-90.398336 -3.54492,-93.621094 z m -7.79297,94.542969 c -3.70617,1.127965 -8.86119,1.611308 -13.37305,2.255859 l -0.11132,0.78125 11.80859,-1.517578 z"
       style="display:inline;opacity:0.3;fill:#ffffff;fill-opacity:1;stroke:none;stroke-width:0.999999px;stroke-linecap:butt;stroke-linejoin:miter;stroke-opacity:1"
       id="path1017"
       inkscape:label="light" />
  </g>
  <use
     x="0"
     y="0"
     xlink:href="#g1118"
     id="use1009"
     width="100%"
     height="100%"
     transform="translate(154.21662)"
     style="fill:#0b6acb;fill-opacity:1"
     inkscape:label="I clone 2" />
  <use
     x="0"
     y="0"
     xlink:href="#use1009"
     id="use1011"
     width="100%"
     height="100%"
     transform="translate(-96.760097)"
     style="fill:#0b6acb;fill-opacity:1"
     inkscape:label="I clone 1" />
  <g
     transform="translate(69.944923,-63.140373)"
     id="g1118"
     inkscape:label="I">
    <path
       d="m 274.5625,290.65234 -16.73828,20.03516 16.70117,20.34375 C 262.58098,330.98598 249.81836,330.70097 247,330.4043 l 0.80469,3.38476 c 3.06164,0.32228 13.69715,1.61131 16.91992,2.25586 0.64452,5.47869 0.80469,35.61212 0.80469,40.92969 v 9.50586 c 0,15.79151 -0.16002,45.60328 -0.80469,52.37109 -3.38393,0.64453 -14.34075,2.0947 -17.08008,2.25586 L 247,444.49023 c 4.83413,-0.32239 19.65803,-0.64453 25.13672,-0.64453 9.99054,0 26.74991,0.32237 30.29492,0.64453 l -0.80664,-3.38281 c -3.22277,-0.32239 -12.89147,-1.28905 -16.91992,-2.25586 -0.64456,-3.22276 -0.80469,-30.13411 -0.80469,-51.08203 v -9.99023 c 0,-19.81996 0.16001,-38.51162 0.80469,-41.73438 5.80097,-0.64455 13.69715,-1.93358 16.91992,-2.25586 l 0.80664,-3.38476 c -2.73933,0.32228 -16.59839,0.64453 -24.81641,0.64453 -0.98709,0 -2.0098,-0.0138 -3.01562,-0.0176 l 17.00781,-20.34375 z"
       inkscape:label="border"
       style="font-style:normal;font-variant:normal;font-weight:bold;font-stretch:normal;font-size:42.6344px;line-height:1.25;font-family:'Charlemagne Std';-inkscape-font-specification:'Charlemagne Std, Bold';font-variant-ligatures:normal;font-variant-caps:normal;font-variant-numeric:normal;font-feature-settings:normal;font-variation-settings:normal;text-align:start;letter-spacing:0px;word-spacing:0px;writing-mode:lr-tb;text-anchor:start;display:inline;opacity:1;vector-effect:none;fill:none;fill-opacity:1;stroke:#000000;stroke-width:3.5;stroke-linecap:butt;stroke-linejoin:round;stroke-miterlimit:4;stroke-dasharray:none;stroke-dashoffset:0;stroke-opacity:1;stop-color:#000000;stop-opacity:1"
       id="path1370"
       transform="matrix(0.26458333,0,0,0.26458333,2.2658145,6.0153765)" />
    <path
       d="m 274.5625,290.65234 -16.73828,20.03516 16.70117,20.34375 C 262.58098,330.98598 249.81836,330.70097 247,330.4043 l 0.80469,3.38476 c 3.06164,0.32228 13.69715,1.61131 16.91992,2.25586 0.64452,5.47869 0.80469,35.61212 0.80469,40.92969 v 9.50586 c 0,15.79151 -0.16002,45.60328 -0.80469,52.37109 -3.38393,0.64453 -14.34075,2.0947 -17.08008,2.25586 L 247,444.49023 c 4.83413,-0.32239 19.65803,-0.64453 25.13672,-0.64453 9.99054,0 26.74991,0.32237 30.29492,0.64453 l -0.80664,-3.38281 c -3.22277,-0.32239 -12.89147,-1.28905 -16.91992,-2.25586 -0.64456,-3.22276 -0.80469,-30.13411 -0.80469,-51.08203 v -9.99023 c 0,-19.81996 0.16001,-38.51162 0.80469,-41.73438 5.80097,-0.64455 13.69715,-1.93358 16.91992,-2.25586 l 0.80664,-3.38476 c -2.73933,0.32228 -16.59839,0.64453 -24.81641,0.64453 -0.98709,0 -2.0098,-0.0138 -3.01562,-0.0176 l 17.00781,-20.34375 z"
       inkscape:label="background"
       style="font-style:normal;font-variant:normal;font-weight:bold;font-stretch:normal;font-size:42.6344px;line-height:1.25;font-family:'Charlemagne Std';-inkscape-font-specification:'Charlemagne Std, Bold';font-variant-ligatures:normal;font-variant-caps:normal;font-variant-numeric:normal;font-feature-settings:normal;text-align:start;letter-spacing:0px;word-spacing:0px;writing-mode:lr-tb;text-anchor:start;display:inline;opacity:1;fill:#0b6acb;fill-opacity:1;stroke:none;stroke-width:4.02845"
       id="path1065"
       transform="matrix(0.26458333,0,0,0.26458333,2.2658145,6.0153765)" />
    <path
       id="path3207"
       style="font-style:normal;font-variant:normal;font-weight:bold;font-stretch:normal;font-size:42.6344px;line-height:1.25;font-family:'Charlemagne Std';-inkscape-font-specification:'Charlemagne Std, Bold';font-variant-ligatures:normal;font-variant-caps:normal;font-variant-numeric:normal;font-feature-settings:normal;text-align:start;letter-spacing:0px;word-spacing:0px;writing-mode:lr-tb;text-anchor:start;display:inline;opacity:0.2;fill:#000000;fill-opacity:1;stroke:none;stroke-width:4.02845"
       inkscape:label="shadow"
       d="m 274.88867,-124.9082 -16.73828,20.03515 16.69922,20.3418 c 0.0131,7e-4 0.0261,0.0013 0.0391,0.002 V -104.873 Z m -27.5625,39.75195 v 0.002 l 0.004,-0.002 c -9.2e-4,-9.6e-5 -0.003,9.6e-5 -0.004,0 z m 0,0.002 0.80469,3.382813 c 3.06164,0.32228 13.69715,1.611309 16.91992,2.255859 0.64452,5.47869 0.80469,35.612118 0.80469,40.929687 v 9.50586 c 0,15.79151 -0.16002,45.603284 -0.80469,52.371094 l -2.53711,1.58789 -14.73633,1.683594 -0.45117,2.367188 c 4.83413,-0.32239 19.65803,-0.644532 25.13672,-0.644532 9.98927,0 26.74505,0.322412 30.29297,0.644532 l -2.42188,-1.820313 -18.46093,-2.882813 -5.61328,-5.044921 -0.0449,-97.16211 -6.51172,-3.771484 -20.14648,-1.955078 z m 52.20313,2.158203 -16.73633,1.414063 2.23828,2.066406 c 5.80097,-0.64455 13.69715,-1.933579 16.91992,-2.255859 z"
       transform="matrix(0.26458333,0,0,0.26458333,2.1795125,115.96555)" />
    <path
       transform="matrix(0.26458333,0,0,0.26458333,2.2658145,6.0153765)"
       d="m 274.5625,310.6875 v 20.38867 l 17.04492,-20.38867 z"
       style="display:inline;opacity:0.05;fill:#000000;fill-opacity:1;stroke:none;stroke-width:0.999999px;stroke-linecap:butt;stroke-linejoin:miter;stroke-opacity:1"
       id="path1145"
       inkscape:label="light shadow" />
    <path
       id="path3175"
       style="font-style:normal;font-variant:normal;font-weight:bold;font-stretch:normal;font-size:42.6344px;line-height:1.25;font-family:'Charlemagne Std';-inkscape-font-specification:'Charlemagne Std, Bold';font-variant-ligatures:normal;font-variant-caps:normal;font-variant-numeric:normal;font-feature-settings:normal;text-align:start;letter-spacing:0px;word-spacing:0px;writing-mode:lr-tb;text-anchor:start;display:inline;opacity:0.3;fill:#ffffff;fill-opacity:1;stroke:none;stroke-width:4.02845"
       inkscape:label="light"
       d="m 274.88867,-124.9082 v 20.03515 h 17.04492 z m -27.55859,39.75195 -0.004,0.002 2.23047,1.447266 20.14648,1.955078 6.51172,3.771484 0.0449,97.16211 5.61328,5.044921 18.46093,2.882813 2.42188,1.820313 c 4.5e-4,4.1e-5 0.002,-4.2e-5 0.002,0 l -0.80664,-3.382813 c -3.22277,-0.32239 -12.89147,-1.289049 -16.91992,-2.255859 -0.64456,-3.22276 -0.80469,-30.1341119 -0.80469,-51.082032 v -9.990234 c 0,-19.81996 0.16001,-38.511615 0.80469,-41.734375 l -2.23828,-2.066406 16.73633,-1.414063 2.42187,1.22461 0.80664,-3.384766 c -2.73933,0.32228 -16.59838,0.644531 -24.8164,0.644531 -0.98709,0 -2.00981,-0.01378 -3.01563,-0.01758 -0.0122,-5.2e-5 -0.0249,5.3e-5 -0.0371,0 -0.013,-6.15e-4 -0.026,-0.0013 -0.0391,-0.002 l 0.002,0.002 c -11.93861,-0.04525 -24.6929,-0.330438 -27.51953,-0.626953 -4.6e-4,-4.8e-5 -10e-4,4.8e-5 -0.002,0 z m 17.7207,108.447266 c -3.38393,0.64453 -14.34075,2.094699 -17.08008,2.255859 l -0.19336,1.015625 14.73633,-1.683594 z"
       transform="matrix(0.26458333,0,0,0.26458333,2.1795125,115.96555)" />
  </g>
  <g
     id="g1044"
     inkscape:label="M"
     transform="translate(72.124435,52.825177)">
    <path
       id="path1372"
       style="font-style:normal;font-variant:normal;font-weight:bold;font-stretch:normal;font-size:42.6344px;line-height:1.25;font-family:'Charlemagne Std';-inkscape-font-specification:'Charlemagne Std, Bold';font-variant-ligatures:normal;font-variant-caps:normal;font-variant-numeric:normal;font-feature-settings:normal;font-variation-settings:normal;text-align:start;letter-spacing:0px;word-spacing:0px;writing-mode:lr-tb;text-anchor:start;display:inline;opacity:1;vector-effect:none;fill:none;fill-opacity:1;stroke:#000000;stroke-width:0.926042;stroke-linecap:butt;stroke-linejoin:round;stroke-miterlimit:4;stroke-dasharray:none;stroke-dashoffset:0;stroke-opacity:1;stop-color:#000000;stop-opacity:1"
       d="M 29.047951,6.7597321 C 28.408435,6.6744633 26.020908,6.3333881 25.253489,6.1628505 25.082951,0.66301293 27.598381,-11.18935 28.706875,-17.712413 h 0.170538 c 0.511613,1.620107 8.52688,22.8946723 9.720643,25.5380051 1.279032,-2.4301608 9.678009,-22.8946721 10.829137,-25.4953701 h 0.170538 c 0.511613,3.154945 4.220806,22.3404245 4.306074,23.9178973 -0.852688,0.085269 -4.092902,0.4689784 -4.689784,0.5116128 l -0.08527,0.8953224 c 1.236397,-0.085269 5.926181,-0.1705376 7.887364,-0.1705376 2.003816,0 4.56188,0.085269 6.01145,0.1705376 L 62.814395,6.7597321 C 62.046976,6.6318289 60.3416,6.4186569 59.27574,6.1628505 58.550955,3.4768833 54.500687,-16.262843 53.690633,-21.037896 c 0.895323,-0.213172 2.984408,-0.511613 3.58129,-0.596882 l 0.127903,-0.895322 c -0.980591,0.08527 -4.561881,0.170538 -5.926181,0.170538 -1.492204,0 -4.391344,-0.08527 -5.755644,-0.170538 l 0.213172,0.895322 c 0.767419,0.127904 2.089085,0.298441 2.899139,0.596882 -0.08527,0.980591 -7.46102,18.6312322 -8.697418,21.06139294 -1.321666,-3.24021434 -6.523063,-17.18166294 -7.75946,-21.06139294 0.810053,-0.170538 2.003816,-0.468978 3.19758,-0.596882 l 0.170537,-0.895322 c -1.193763,0.08527 -4.561881,0.170538 -6.39516,0.170538 -2.259623,0 -5.585106,-0.08527 -6.139353,-0.170538 l 0.255806,0.895322 4.220806,0.596882 c -0.639516,3.496021 -5.286666,24.5574137 -6.224623,27.2433809 -0.937956,0.2558064 -2.302257,0.426344 -3.027042,0.5542472 l -0.298441,0.8953224 c 1.406935,-0.085269 3.58129,-0.1705376 4.732419,-0.1705376 0.810053,0 5.755644,0.085269 6.352525,0.1705376 z"
       inkscape:label="border" />
    <path
       id="path1044"
       style="font-style:normal;font-variant:normal;font-weight:bold;font-stretch:normal;font-size:42.6344px;line-height:1.25;font-family:'Charlemagne Std';-inkscape-font-specification:'Charlemagne Std, Bold';font-variant-ligatures:normal;font-variant-caps:normal;font-variant-numeric:normal;font-feature-settings:normal;text-align:start;letter-spacing:0px;word-spacing:0px;writing-mode:lr-tb;text-anchor:start;display:inline;fill:#0b6acb;fill-opacity:1;stroke:none;stroke-width:1.06586"
       d="M 29.047951,6.7597321 C 28.408435,6.6744633 26.020908,6.3333881 25.253489,6.1628505 25.082951,0.66301293 27.598381,-11.18935 28.706875,-17.712413 h 0.170538 c 0.511613,1.620107 8.52688,22.8946723 9.720643,25.5380051 1.279032,-2.4301608 9.678009,-22.8946721 10.829137,-25.4953701 h 0.170538 c 0.511613,3.154945 4.220806,22.3404245 4.306074,23.9178973 -0.852688,0.085269 -4.092902,0.4689784 -4.689784,0.5116128 l -0.08527,0.8953224 c 1.236397,-0.085269 5.926181,-0.1705376 7.887364,-0.1705376 2.003816,0 4.56188,0.085269 6.01145,0.1705376 L 62.814395,6.7597321 C 62.046976,6.6318289 60.3416,6.4186569 59.27574,6.1628505 58.550955,3.4768833 54.500687,-16.262843 53.690633,-21.037896 c 0.895323,-0.213172 2.984408,-0.511613 3.58129,-0.596882 l 0.127903,-0.895322 c -0.980591,0.08527 -4.561881,0.170538 -5.926181,0.170538 -1.492204,0 -4.391344,-0.08527 -5.755644,-0.170538 l 0.213172,0.895322 c 0.767419,0.127904 2.089085,0.298441 2.899139,0.596882 -0.08527,0.980591 -7.46102,18.6312322 -8.697418,21.06139294 -1.321666,-3.24021434 -6.523063,-17.18166294 -7.75946,-21.06139294 0.810053,-0.170538 2.003816,-0.468978 3.19758,-0.596882 l 0.170537,-0.895322 c -1.193763,0.08527 -4.561881,0.170538 -6.39516,0.170538 -2.259623,0 -5.585106,-0.08527 -6.139353,-0.170538 l 0.255806,0.895322 4.220806,0.596882 c -0.639516,3.496021 -5.286666,24.5574137 -6.224623,27.2433809 -0.937956,0.2558064 -2.302257,0.426344 -3.027042,0.5542472 l -0.298441,0.8953224 c 1.406935,-0.085269 3.58129,-0.1705376 4.732419,-0.1705376 0.810053,0 5.755644,0.085269 6.352525,0.1705376 z"
       inkscape:label="background" />
    <path
       id="path3137"
       style="font-style:normal;font-variant:normal;font-weight:bold;font-stretch:normal;font-size:42.6344px;line-height:1.25;font-family:'Charlemagne Std';-inkscape-font-specification:'Charlemagne Std, Bold';font-variant-ligatures:normal;font-variant-caps:normal;font-variant-numeric:normal;font-feature-settings:normal;text-align:start;letter-spacing:0px;word-spacing:0px;writing-mode:lr-tb;text-anchor:start;display:inline;opacity:0.2;fill:#000000;fill-opacity:1;stroke:none;stroke-width:4.02845"
       inkscape:label="shadow"
       d="m 87.710938,-85.152344 0.966796,3.382813 15.953126,2.255859 c -2.41707,13.213308 -19.980357,92.81511 -23.525391,102.966797 h -0.002 l -0.002,0.002 -2.373046,1.603516 -9.294922,1.18164 -0.896485,2.691407 c 5.31755,-0.322277 13.534042,-0.644532 17.884766,-0.644532 3.061139,0 21.747108,0.322307 24.007818,0.644532 l -1.75977,-1.632813 -14.384767,-1.996094 -5.683594,-5.111328 17.292971,-88.197265 2.60156,1.060547 v 0.0059 c 3.2e-4,-0.0018 0.002,-0.004 0.002,-0.0059 h 0.64453 c 1.93347,6.122662 32.22199,86.514712 36.73828,96.517578 L 147.58398,5.8574219 114.52734,-77.228516 108.25,-81.736328 89.341797,-83.90625 Z m 85.082032,0.002 0.80469,3.38086 c 2.90048,0.483416 7.89541,1.127893 10.95703,2.255859 -0.32228,3.706171 -28.1981,70.4167032 -32.8711,79.60156262 v 0.0019531 l 2.26368,1.61328128 30.76953,-69.421875 2.09375,0.935547 h 0.64453 c 1.93365,11.924201 15.95312,84.436335 16.27539,90.398437 -3.4e-4,3.4e-5 -0.002,-3.3e-5 -0.002,0 l -0.002,0.002 -2.55664,1.478515 -15.23242,1.175781 -0.25391,2.660157 c 4.673,-0.322277 22.39821,-0.644532 29.81055,-0.644532 7.57271,0 17.23977,0.322289 22.71875,0.644532 l -2.59375,-1.839844 -13.92383,-1.992188 -7.32226,-6.037109 -18.70703,-95.052734 -7.59961,-5.480469 -13.59961,-2.560547 z m 41.86133,2.119141 -14.0625,0.9375 2.33203,2.580078 0.002,0.002 c -8e-5,-4.64e-4 8e-5,-0.0015 0,-0.002 3.38339,-0.805568 11.27591,-1.933389 13.5332,-2.255859 z m -81.77344,0.0332 -12.26953,1.054688 1.74414,2.429687 c 3.06118,-0.644461 7.57276,-1.772328 12.08398,-2.255859 z"
       transform="scale(0.26458333)" />
    <path
       id="path1005"
       style="font-style:normal;font-variant:normal;font-weight:bold;font-stretch:normal;font-size:42.6344px;line-height:1.25;font-family:'Charlemagne Std';-inkscape-font-specification:'Charlemagne Std, Bold';font-variant-ligatures:normal;font-variant-caps:normal;font-variant-numeric:normal;font-feature-settings:normal;text-align:start;letter-spacing:0px;word-spacing:0px;writing-mode:lr-tb;text-anchor:start;display:inline;opacity:0.3;fill:#ffffff;fill-opacity:1;stroke:none;stroke-width:1.06586"
       d="m 23.207069,-22.529795 0.431498,0.329696 5.002795,0.574125 1.660882,1.192691 8.746236,21.9831543 -0.45062,6.2755859 C 39.876893,5.3952963 48.276047,-15.068928 49.427175,-17.669626 L 48.873203,-17.917156 40.732097,0.4507128 40.13265,0.02334987 C 38.810984,-3.2168646 33.609832,-17.158168 32.373434,-21.037896 l -0.461471,-0.642855 3.246314,-0.279053 0.412379,0.325045 0.170533,-0.895036 c -1.193763,0.08527 -4.561681,0.170532 -6.394958,0.170532 -2.259625,0 -5.584914,-0.08526 -6.139162,-0.170532 z m 22.510771,0 0.443383,0.296623 3.59823,0.677478 2.01073,1.450042 4.949569,25.1493674 1.93735,1.5973186 3.684011,0.5271003 0.686263,0.486791 -0.213424,-0.8950351 C 62.046535,6.6319879 60.341527,6.4188343 59.27567,6.1630272 58.550883,3.4770593 54.500532,-16.262844 53.690479,-21.037896 l -0.617016,-0.682646 3.720703,-0.248047 0.477491,0.33383 0.128156,-0.895036 c -0.980591,0.08527 -4.561957,0.170532 -5.926251,0.170532 -1.492205,0 -4.391422,-0.08526 -5.755722,-0.170532 z m -17.699697,4.536674 -4.57542,23.3354643 1.503774,1.3524329 3.805971,0.5281348 0.465603,0.4320143 -0.170532,-0.8950351 C 28.408023,6.6746202 26.020875,6.3335644 25.253456,6.1630272 25.082918,0.66318909 27.59798,-11.189456 28.706476,-17.712517 Z M 21.458855,6.2054002 c -0.937956,0.2558071 -2.30242,0.4265877 -3.027205,0.55449 l -0.06098,0.1829329 2.459798,-0.3126423 z m 32.444531,0.042892 c -0.852688,0.08527 -4.092755,0.4689634 -4.689636,0.5115984 l -0.01809,0.1912011 4.030763,-0.3110918 z"
       sodipodi:nodetypes="cccccccccccccccsccccccccccccccccscccccccccccccccccccc"
       inkscape:label="light" />
  </g>
  <g
     id="g1144"
     transform="matrix(0.63709822,0,0,0.63709822,74.569309,13.610797)"
     inkscape:label="dice 1">
    <path
       id="path1374"
       style="font-variation-settings:normal;opacity:1;vector-effect:none;fill:none;fill-opacity:1;stroke:#000000;stroke-width:5.49366;stroke-linecap:butt;stroke-linejoin:round;stroke-miterlimit:4;stroke-dasharray:none;stroke-dashoffset:0;stroke-opacity:1;stop-color:#000000;stop-opacity:1"
       d="m -22.724609,85.486328 c -0.666832,-0.0085 -1.337416,-0.0054 -2.009766,0.0098 -11.833358,0.267631 -24.372632,4.181069 -32.517578,10.794922 l -44.578127,36.19726 c -2.27964,1.85112 -4.08948,3.7837 -5.44922,5.74024 -0.002,0.003 -0.004,0.005 -0.006,0.008 -6.20426,8.20299 -12.53999,21.84395 -13.65625,31.9375 -0.25357,1.9387 -0.22776,4.08505 0.1211,6.42187 l 7.44922,49.89258 c 1.9759,13.23608 14.307844,28.86679 28.02734,35.3711 l 53.726562,25.4707 c 0.05131,0.0243 0.101111,0.0462 0.152344,0.0703 0.074,0.0347 0.146871,0.0635 0.220703,0.0977 0.415814,0.19256 0.830059,0.38178 1.240235,0.55664 0.127955,0.0545 0.253475,0.10342 0.380859,0.15625 0.07559,0.0346 0.142837,0.0605 0.220703,0.0976 11.059749,5.29259 27.8314575,3.71422 39.3066409,-1.97656 2.7349351,-1.20862 5.6757981,-3.26953 8.6855471,-6.21484 l 41.03125,-40.1543 c 10.753625,-10.52335 18.860336,-29.95762 18.34375,-43.98242 l -1.972656,-53.56445 c -0.169315,-4.59655 -1.159053,-8.20891 -2.765626,-10.75 -0.0016,-0.002 -0.0023,-0.005 -0.0039,-0.008 -3.443885,-7.41304 -9.725131,-15.15142 -16.580078,-20.49609 -2.438329,-2.39202 -5.923082,-4.40841 -10.390625,-5.83789 L -9.515625,87.480469 c -4.031897,-1.290085 -8.54116,-1.93458 -13.208984,-1.994141 z"
       transform="scale(0.26458333)"
       inkscape:label="border"
       sodipodi:nodetypes="scccsccccccsssccccccccccccs" />
    <path
       id="path1124"
       style="display:inline;opacity:1;fill:#0b6acb;fill-opacity:1;stroke:none;stroke-width:0.253756;stroke-opacity:1"
       d="m -22.724609,85.486328 c -0.666832,-0.0085 -1.337416,-0.0054 -2.009766,0.0098 -11.833358,0.267631 -24.372632,4.181069 -32.517578,10.794922 l -44.578127,36.19726 c -2.27964,1.85112 -4.08948,3.7837 -5.44922,5.74024 -0.002,0.003 -0.004,0.005 -0.006,0.008 -6.20426,8.20299 -12.53999,21.84395 -13.65625,31.9375 -0.25357,1.9387 -0.22776,4.08505 0.1211,6.42187 l 7.44922,49.89258 c 1.9759,13.23608 14.307844,28.86679 28.02734,35.3711 l 53.726562,25.4707 c 0.05131,0.0243 0.101111,0.0462 0.152344,0.0703 0.074,0.0347 0.146871,0.0635 0.220703,0.0977 0.415814,0.19256 0.830059,0.38178 1.240235,0.55664 0.127955,0.0545 0.253475,0.10342 0.380859,0.15625 0.07559,0.0346 0.142837,0.0605 0.220703,0.0976 11.059749,5.29259 27.8314575,3.71422 39.3066409,-1.97656 2.7349351,-1.20862 5.6757981,-3.26953 8.6855471,-6.21484 l 41.03125,-40.1543 c 10.753625,-10.52335 18.860336,-29.95762 18.34375,-43.98242 l -1.972656,-53.56445 c -0.169315,-4.59655 -1.159053,-8.20891 -2.765626,-10.75 -0.0016,-0.002 -0.0023,-0.005 -0.0039,-0.008 -3.443885,-7.41304 -9.725131,-15.15142 -16.580078,-20.49609 -2.438329,-2.39202 -5.923082,-4.40841 -10.390625,-5.83789 L -9.515625,87.480469 c -4.031897,-1.290085 -8.54116,-1.93458 -13.208984,-1.994141 z m 88.078125,41.853512 c 0.02394,-10e-4 0.04643,0.003 0.07031,0.002 -0.03405,10e-4 -0.0674,3e-4 -0.101562,0.002 0.01024,-4.7e-4 0.02102,-0.003 0.03125,-0.004 z m -172.859376,31.39844 c 0.0666,0.002 0.13813,0.0134 0.20508,0.0156 -0.11333,-0.004 -0.22763,-0.01 -0.33984,-0.0117 0.046,7.4e-4 0.0885,-0.005 0.13476,-0.004 z"
       transform="scale(0.26458333)"
       inkscape:label="background" />
    <path
       inkscape:connector-curvature="0"
       style="display:inline;opacity:0.2;fill:#000000;fill-opacity:1;stroke:none;stroke-width:0.0671396;stroke-opacity:1"
       d="m -26.27439,42.454301 c 0,0 14.7744,5.508906 14.7744,5.508906 4.35668,1.624465 8.29621,6.312685 8.69518,10.404942 0,0 1.40687,14.430442 1.40687,14.430442 0.37185,3.814101 -2.79126,5.204213 -6.96723,3.224414 0,0 -14.2154,-6.739422 -14.2154,-6.739422 -3.62995,-1.720932 -6.89284,-5.856443 -7.41563,-9.35849 0,0 -1.97065,-13.200715 -1.97065,-13.200715 -0.55676,-3.729456 1.93362,-5.671631 5.69246,-4.270077 0,0 0,0 0,0"
       id="path5140"
       inkscape:label="left side" />
    <path
       inkscape:connector-curvature="0"
       style="display:inline;opacity:0.9;fill:#ffffff;fill-opacity:1;stroke:none;stroke-width:0.0789877;stroke-opacity:1"
       d="m -23.932716,50.361689 c -0.555202,0.01067 -0.887836,0.422879 -0.795814,1.09399 0.122264,0.89184 0.949616,1.913838 1.854147,2.287199 0.911093,0.376071 1.559084,-0.04588 1.440736,-0.947229 -0.118745,-0.904399 -0.962343,-1.938791 -1.877404,-2.305286 -0.227119,-0.09096 -0.436616,-0.132231 -0.621665,-0.128674 z m 10.435007,4.184758 c -0.608912,-0.0012 -0.984646,0.416517 -0.902255,1.110009 0.109458,0.921454 0.988219,1.991757 1.969373,2.396753 0.988589,0.40806 1.710796,-0.01152 1.6061,-0.943095 -0.105039,-0.934853 -1.001289,-2.020069 -1.994694,-2.41794 -0.246485,-0.09872 -0.475535,-0.145336 -0.678524,-0.145727 z m -9.107461,5.590873 c -0.548798,-0.01651 -0.87884,0.36216 -0.790125,1.009241 0.117899,0.859956 0.932365,1.878062 1.825228,2.27893 0.89916,0.403723 1.540828,0.03103 1.426766,-0.837675 -0.114432,-0.871593 -0.944351,-1.902621 -1.847427,-2.297534 -0.224155,-0.09803 -0.431482,-0.14746 -0.614442,-0.152962 z m 10.286736,4.503084 c -0.600816,-0.03015 -0.972291,0.351931 -0.892969,1.019576 0.105384,0.88717 0.968798,1.953284 1.935798,2.387451 0.974142,0.437388 1.6882264,0.07014 1.5874995,-0.826306 -0.1010973,-0.899545 -0.9822925,-1.980591 -1.9611185,-2.408639 -0.242914,-0.106219 -0.468947,-0.162032 -0.66921,-0.172082 z"
       id="path5144"
       inkscape:label="dots left side" />
    <path
       inkscape:connector-curvature="0"
       id="path5156"
       d="m 2.6031,45.518151 c 0,0 11.73914,-10.369357 11.73914,-10.369357 3.06661,-2.708784 5.61445,-1.525701 5.76392,2.532095 0,0 0.52204,14.172332 0.52204,14.172332 0.13668,3.710728 -2.00809,8.852751 -4.85332,11.637054 0,0 -10.85635,10.623891 -10.85635,10.623891 -3.10534,3.038857 -5.93937,2.552217 -6.30635,-1.21202 0,0 -1.40619,-14.423454 -1.40619,-14.423454 -0.40397,-4.143397 2.02812,-9.984652 5.39711,-12.960541 0,0 0,0 0,0"
       style="display:inline;opacity:0.2;fill:#ffffff;fill-opacity:1;stroke:none;stroke-width:0.0671396;stroke-opacity:1"
       inkscape:label="right side" />
    <path
       inkscape:connector-curvature="0"
       style="display:inline;opacity:0.9;fill:#ffffff;fill-opacity:1;stroke:none;stroke-width:0.0789877;stroke-opacity:1"
       d="m 13.911476,43.980167 c -0.218908,0.004 -0.477065,0.124505 -0.749308,0.37207 -0.729361,0.66325 -1.278064,1.979706 -1.222663,2.933671 0.05512,0.949452 0.688075,1.174026 1.410766,0.508496 0.719378,-0.662475 1.260927,-1.96168 1.212329,-2.908866 -0.03047,-0.594782 -0.286274,-0.912057 -0.651124,-0.905371 z m -8.2031151,7.467244 c -0.2341588,0.01278 -0.5080343,0.144904 -0.7947845,0.40566 -0.7682997,0.698668 -1.331288,2.05002 -1.2541885,3.010669 0.076682,0.955984 0.7578223,1.157058 1.5187719,0.456303 C 5.9355295,54.62259 6.4907947,53.289642 6.421495,52.335729 6.3779208,51.736649 6.098624,51.426107 5.7083609,51.447411 Z m 4.4860291,1.451591 c -0.2230439,0.01408 -0.4852698,0.144707 -0.7606772,0.399976 -0.7378383,0.683883 -1.286346,1.999669 -1.2221475,2.93212 0.063931,0.928041 0.7107423,1.118865 1.4417728,0.433049 0.7276699,-0.682664 1.2690129,-1.981192 1.2118129,-2.907316 -0.03591,-0.581556 -0.299016,-0.881295 -0.670761,-0.857829 z m 4.259688,1.378727 c -0.212743,0.01523 -0.463801,0.143778 -0.728636,0.393775 -0.709422,0.669684 -1.243743,1.951869 -1.191143,2.857706 0.05234,0.901661 0.666824,1.083327 1.369943,0.411861 0.699969,-0.66846 1.22794,-1.934561 1.181839,-2.834452 -0.02894,-0.565015 -0.277429,-0.854278 -0.632003,-0.82889 z m -7.8605006,7.529256 c -0.249084,-0.0166 -0.5571278,0.122648 -0.8821182,0.429431 -0.746289,0.704479 -1.2941141,2.019616 -1.2211129,2.930571 0.07271,0.906646 0.7334382,1.063653 1.4727793,0.357601 0.7359385,-0.70281 1.2766781,-2.00068 1.2107783,-2.905766 -0.037198,-0.511509 -0.2600775,-0.79049 -0.5803265,-0.811837 z"
       id="path5158"
       inkscape:label="dots right side" />
    <path
       inkscape:connector-curvature="0"
       id="path5170"
       d="m -2.5175,23.145809 c 0,0 14.75495,4.721138 14.75495,4.721138 4.18269,1.338335 5.11761,4.620569 2.00119,7.373353 0,0 -11.7457,10.375165 -11.7457,10.375165 -3.31798,2.930824 -9.45558,4.039576 -13.65882,2.47232 0,0 -14.80211,-5.519239 -14.80211,-5.519239 -3.90723,-1.456881 -4.30031,-4.813455 -0.97431,-7.51423 0,0 11.79425,-9.577126 11.79425,-9.577126 3.13457,-2.545331 8.72921,-3.579692 12.63055,-2.331381 0,0 0,0 0,0"
       style="display:inline;opacity:0.3;fill:#ffffff;fill-opacity:1;stroke:none;stroke-width:0.0671396;stroke-opacity:1"
       inkscape:label="top side" />
    <path
       inkscape:connector-curvature="0"
       style="display:inline;opacity:0.9;fill:#ffffff;fill-opacity:1;stroke:none;stroke-width:0.0789877;stroke-opacity:1"
       d="m -5.6237616,27.310384 c -0.8145198,-0.03092 -1.7215379,0.226242 -2.2820312,0.690914 -0.7495911,0.621441 -0.5998369,1.38142 0.3395133,1.696537 0.9427369,0.316244 2.3182791,0.06341 3.0674998,-0.56379 0.7469716,-0.625287 0.584782,-1.383466 -0.3575844,-1.693954 -0.2347648,-0.07735 -0.4959085,-0.119399 -0.7673975,-0.129707 z m 10.5709269,3.485575 c -0.8387054,-0.03416 -1.7618207,0.228422 -2.3213033,0.706416 -0.748292,0.6393 -0.5666529,1.423929 0.4108264,1.751832 0.9810406,0.329099 2.3864755,0.07227 3.1341748,-0.573092 C 6.9162447,32.03776 6.7213658,31.254905 5.7409153,30.931868 5.4966916,30.8514 5.2267346,30.807344 4.9471653,30.795959 Z m -16.2651573,1.248502 c -0.819705,-0.0348 -1.737942,0.226269 -2.311479,0.701766 -0.767107,0.635944 -0.630899,1.417692 0.309007,1.745113 0.943345,0.328608 2.333757,0.07401 3.100599,-0.567924 0.7644605,-0.639952 0.6154472,-1.419908 -0.327634,-1.742529 -0.234923,-0.08037 -0.497258,-0.124824 -0.770493,-0.136426 z m 10.58126971,3.622518 c -0.84431191,-0.03826 -1.77953451,0.228427 -2.35230451,0.717786 -0.7661011,0.654522 -0.5981965,1.462124 0.3803385,1.80299 0.9821333,0.342125 2.40368663,0.08309 3.16930612,-0.577742 C 1.2238375,36.95126 1.0423016,36.145939 0.06064191,35.810123 -0.18387013,35.726476 -0.455285,35.679732 -0.73672229,35.666979 Z M -17.145016,36.889643 c -0.824945,-0.03886 -1.754902,0.226428 -2.341986,0.713135 -0.785178,0.650959 -0.663813,1.455017 0.276463,1.795239 0.943716,0.341469 2.349632,0.08513 3.134704,-0.572058 0.782611,-0.655139 0.647462,-1.457414 -0.296122,-1.792655 -0.235029,-0.08351 -0.498104,-0.130707 -0.773059,-0.143661 z m 10.5884923,3.765145 c -0.849921,-0.04255 -1.7972881,0.228023 -2.3838429,0.729155 -0.7845689,0.670295 -0.6310312,1.501855 0.3482975,1.856217 0.9830065,0.355688 2.420276,0.09447 3.2044746,-0.582393 0.7817114,-0.674709 0.6141773,-1.503998 -0.3684588,-1.853117 -0.2447395,-0.08696 -0.5171545,-0.135678 -0.8004704,-0.149862 z"
       id="path5174"
       inkscape:label="dots top side" />
  </g>
  <g
     id="g3116"
     style="display:inline"
     inkscape:label="D"
     transform="translate(72.124435,52.825177)">
    <path
       id="path1376"
       style="display:inline;fill:none;fill-opacity:1;stroke:#000000;stroke-width:0.926042;stroke-linecap:butt;stroke-linejoin:round;stroke-miterlimit:4;stroke-dasharray:none;stroke-opacity:1"
       d="m -44.821868,-52.362168 -3.60133,3.32072 -0.09353,7.8109 c -5.098165,0.23386 -11.69313,-3.78865 -11.27218,-6.31435 0.42095,-2.52575 5.425508,-2.43189 5.425508,-2.43189 -8.138355,-2.71279 -11.225154,10.38334 -11.225154,10.38334 1.637025,3.78854 9.915673,5.70612 9.915673,5.70612 -1.917659,1.96443 -6.03374,10.38334 -6.03374,10.38334 0,0 3.380557,11.98387 2.619479,22.0766898 -0.839749,11.13606 -9.171107,12.3766802 -9.214425,12.7687302 -0.982216,1.12253 -1.575379,4.053367 -2.057755,6.033741 -0.75492,3.099285 0.347183,3.23555 2.993615,5.331974 0,0 3.726175,2.640152 3.367237,5.799645 -0.01138,0.100134 0.09382,1.870721 -5.004346,3.975468 -5.098166,2.104747 -1.309481,5.004863 -1.309481,5.004863 -1.356392,-3.180508 1.402705,-3.367846 4.30258,-4.911328 2.899874,-1.543481 3.527082,-3.835566 3.414778,-5.09788 -0.317452,-3.568208 -5.987231,-7.436755 -5.987231,-7.436755 5.986348,-4.311065 20.112224,-2.01154 19.971907,-1.684136 -0.140316,0.327406 -0.09359,19.270456 0.467672,18.755963 0.561266,-0.514493 2.713013,-18.288291 2.713013,-18.288291 1.730571,0.280633 6.501411,2.011246 6.501411,2.011246 2.245063,-5.332026 3.039977,-5.612302 6.828525,-10.61692 3.788545,-5.0046202 8.840054,-14.0787902 8.606192,-25.72505 -0.23386,-11.64625 -1.964531,-16.51032 -6.314342,-21.70203 -4.349814,-5.19171 -14.779977,-4.11603 -14.779977,-4.11603 -0.23386,-3.08696 1.49655,-9.91567 1.49655,-9.91567 z m -6.641454,19.41018 3.040124,0.23409 0.09353,41.2998098 c 0,0 -8.699557,-0.32747 -10.289811,0.56121 0,0 9.214467,-8.85953567 7.325671,-21.7573428 -0.744585,-5.084467 -2.696191,-12.647795 -0.169514,-20.337767 z m 7.423834,0.40204 c 2.649861,0.0139 13.227405,1.15334 12.875184,18.49396 -0.35618,17.5356698 -6.22081,24.36854 -6.22081,24.36854 0,0 -3.461149,-1.2164302 -7.15615,-1.4970602 l -0.09354,-41.3463198 c 0,0 0.216763,-0.0211 0.595312,-0.0191 z m -11.22567,2.39004 c 0,0 -0.529166,6.68073 -0.165364,8.59896 l -3.175,1.81901 -0.56224,-3.24115 c 0,0 2.645833,-5.82083 3.902604,-7.17682 z m 0,9.72344 0.56224,3.27421 -3.108854,1.7198 -0.529167,-3.20808 z m 0.859896,4.2664 0.463021,3.07578 -3.208073,1.75287 -0.363802,-3.04271 z m 0.661459,4.06797 0.198437,2.7781298 -3.208073,1.68671 -0.165364,-2.7450498 z m 0.264583,3.8364598 c 0,0 -0.132292,5.35781 -4.233333,12.43542 0,0 1.289843,-3.80338005 0.992187,-10.78178 z"
       sodipodi:nodetypes="cccsccccscscsscsscssccssscccccccsccsccccccccccccccccccccccccccccc"
       inkscape:label="border" />
    <path
       id="path3066"
       style="display:inline;fill:#0b6acb;fill-opacity:1;stroke:none;stroke-width:0.264583px;stroke-linecap:butt;stroke-linejoin:miter;stroke-opacity:1"
       d="m -44.821868,-52.362168 -3.60133,3.32072 -0.09353,7.8109 c -5.098165,0.23386 -11.69313,-3.78865 -11.27218,-6.31435 0.42095,-2.52575 5.425508,-2.43189 5.425508,-2.43189 -8.138355,-2.71279 -11.225154,10.38334 -11.225154,10.38334 1.637025,3.78854 9.915673,5.70612 9.915673,5.70612 -1.917659,1.96443 -6.03374,10.38334 -6.03374,10.38334 0,0 3.380557,11.98387 2.619479,22.0766898 -0.839749,11.13606 -9.171107,12.3766802 -9.214425,12.7687302 -0.982216,1.12253 -1.575379,4.053367 -2.057755,6.033741 -0.75492,3.099285 0.347183,3.23555 2.993615,5.331974 0,0 3.726175,2.640152 3.367237,5.799645 -0.01138,0.100134 0.09382,1.870721 -5.004346,3.975468 -5.098166,2.104747 -1.309481,5.004863 -1.309481,5.004863 -1.356392,-3.180508 1.402705,-3.367846 4.30258,-4.911328 2.899874,-1.543481 3.527082,-3.835566 3.414778,-5.09788 -0.317452,-3.568208 -5.987231,-7.436755 -5.987231,-7.436755 5.986348,-4.311065 20.112224,-2.01154 19.971907,-1.684136 -0.140316,0.327406 -0.09359,19.270456 0.467672,18.755963 0.561266,-0.514493 2.713013,-18.288291 2.713013,-18.288291 1.730571,0.280633 6.501411,2.011246 6.501411,2.011246 2.245063,-5.332026 3.039977,-5.612302 6.828525,-10.61692 3.788545,-5.0046202 8.840054,-14.0787902 8.606192,-25.72505 -0.23386,-11.64625 -1.964531,-16.51032 -6.314342,-21.70203 -4.349814,-5.19171 -14.779977,-4.11603 -14.779977,-4.11603 -0.23386,-3.08696 1.49655,-9.91567 1.49655,-9.91567 z m -6.641454,19.41018 3.040124,0.23409 0.09353,41.2998098 c 0,0 -8.699557,-0.32747 -10.289811,0.56121 0,0 9.214467,-8.85953567 7.325671,-21.7573428 -0.744585,-5.084467 -2.696191,-12.647795 -0.169514,-20.337767 z m 7.423834,0.40204 c 2.649861,0.0139 13.227405,1.15334 12.875184,18.49396 -0.35618,17.5356698 -6.22081,24.36854 -6.22081,24.36854 0,0 -3.461149,-1.2164302 -7.15615,-1.4970602 l -0.09354,-41.3463198 c 0,0 0.216763,-0.0211 0.595312,-0.0191 z m -11.22567,2.39004 c 0,0 -0.529166,6.68073 -0.165364,8.59896 l -3.175,1.81901 -0.56224,-3.24115 c 0,0 2.645833,-5.82083 3.902604,-7.17682 z m 0,9.72344 0.56224,3.27421 -3.108854,1.7198 -0.529167,-3.20808 z m 0.859896,4.2664 0.463021,3.07578 -3.208073,1.75287 -0.363802,-3.04271 z m 0.661459,4.06797 0.198437,2.7781298 -3.208073,1.68671 -0.165364,-2.7450498 z m 0.264583,3.8364598 c 0,0 -0.132292,5.35781 -4.233333,12.43542 0,0 1.289843,-3.80338005 0.992187,-10.78178 z"
       sodipodi:nodetypes="cccsccccscscsscsscssccssscccccccsccsccccccccccccccccccccccccccccc"
       inkscape:label="background" />
    <path
       id="path3105"
       style="display:inline;opacity:0.2;fill:#000000;fill-opacity:1;stroke:none;stroke-width:0.999999px;stroke-linecap:butt;stroke-linejoin:miter;stroke-opacity:1"
       d="m -169.40625,-197.9043 -13.61133,12.55078 -0.35351,29.52149 7.47461,7.9082 0.88671,-37.51562 z m -44.21484,7.61719 c -24.69039,-0.009 -34.27344,40.64258 -34.27344,40.64258 6.18718,14.31889 37.47656,21.56641 37.47656,21.56641 -7.24784,7.42461 -22.80469,39.244136 -22.80469,39.244136 0,0 12.77691,45.293362 9.90039,83.4394528 -3.17385,42.0890452 -34.66245,46.7780022 -34.82617,48.2597652 -3.71231,4.242633 -5.95419,15.31981 -7.77734,22.804688 -2.85324,11.713833 1.31219,12.228851 11.31445,20.152344 0,0 14.08318,9.978531 12.72656,21.919924 -0.043,0.37846 0.3546,7.07044 -18.91406,15.02539 -19.26866,7.95495 -4.94922,18.91601 -4.94922,18.91601 -5.53197,-5.70395 0.41407,-10.11523 0.41407,-10.11523 l 0.002,0.002 c 2.97425,-3.3149 9.31415,-4.97274 15.8457,-8.44922 1.31369,-0.69922 2.49736,-1.44003 3.57422,-2.20898 v -0.002 c 9.56779,-13.56707 5.98535,-20.76501 5.16211,-22.41016 -5.19454,-10.380775 -22.1875,-22.625 -22.1875,-22.625 l 3.72852,-0.128906 c 22.62556,-16.293789 76.0147,-7.602667 75.48437,-6.365235 -0.52239,1.21891 -0.35861,70.701471 1.67383,70.923831 l 5.54101,-78.705081 c -8.64076,-1.827121 -17.51663,-2.935357 -27.44921,-3.201171 -19.99753,-0.535189 -53.7129,7.271484 -53.7129,7.271484 l 5.11524,-16.462891 c 13.06812,-5.045598 24.78398,-19.400485 30.60547,-27.585937 l -1.65039,-4.140625 c 1.66368,-5.026436 3.11061,-12.656703 3.81445,-21.9902346 2.87652,-38.1460754 -9.27539,-83.3769534 -9.27539,-83.3769534 0,0 10.56269,-20.930561 18.38672,-32.375001 l 1.79883,6.27149 c 0,0 -2,25.249992 -0.625,32.499996 l -12,6.875 0.0351,2.416015 0.96485,1.708985 11.625,-6.75 2.125,12.375 -11.75,6.5 0.14257,2.441406 0.98243,1.558594 11.75,-6.75 1.75,11.625 -12.125,6.625 -0.11524,2.121093 0.99024,1.503907 12,-6.5 0.75,10.5 -12.125,6.375 -0.46875,2.115234 0.59375,1.759766 12.25,-6.25 c 0,0 -0.50001,20.249978 -16,47 l 1.83203,4.455078 c 9.52604,-14.1575129 21.49253,-37.969762 17.07422,-68.140625 -2.89906,-19.198046 -7.68402,-42.117857 -5.10742,-64.917969 0.54679,-4.83993 3.83007,-20.97266 3.83007,-20.97266 l 5.99024,9.27344 11.49023,0.88477 0.35352,156.093747 7.17968,8.304687 -0.44921,-171.611324 7.23437,7.91992 c 0,0 0.81926,-0.0798 2.25,-0.0723 10.01522,0.0525 49.99334,4.35909 48.66211,69.89844 -1.34619,66.276547 -23.51172,92.101562 -23.51172,92.101562 l 2.40039,9.205079 7.62696,-9.714844 c 12.87563,-22.029656 18.30645,-47.5251098 20.45507,-72.710938 1.69889,-21.138928 2.313,-43.402973 -6.4414,-63.214843 -7.98425,-20.709636 -30.06506,-34.712716 -52.28516,-33.435546 -22.52775,0.70128 -50.8259,-5.20757 -69.62305,-19.99805 1.21084,-3.93357 7.62612,-18.43861 7.69532,-18.12109 0,0 3.0488,-14.73288 9.04101,-15.92188 0.005,-0.002 0.0104,-0.001 0.0156,-0.002 6.5e-4,-7e-5 10e-4,1.1e-4 0.002,0 5.92303,-4.15211 16.94336,-3.95117 16.94336,-3.95117 -2.88367,-0.96123 -5.59817,-1.39749 -8.15234,-1.39844 z m 37.11328,251.886719 4.80469,9.548829 c 6.54074,1.06066 24.57226,7.601562 24.57226,7.601562 l -4.41992,-9.988281 c -8.58144,-2.990148 -16.66015,-5.407596 -24.95703,-7.16211 z"
       transform="scale(0.26458333)"
       inkscape:label="shadow" />
    <path
       id="path2954"
       style="display:inline;opacity:0.3;fill:#ffffff;stroke:none;stroke-width:0.999999px;stroke-linecap:butt;stroke-linejoin:miter;stroke-opacity:1"
       d="m -169.40625,-197.9043 -5.60352,12.46485 -0.88671,37.51562 c 3.00584,0.0555 5.95044,-0.0542 8.78515,-0.34179 12.61649,-0.55355 25.78966,-0.0327 37.51172,5.12695 8.3271,3.44386 13.91359,10.90036 18.65234,18.23437 10.68133,16.73012 12.896816,37.173185 13.787114,56.449222 1.126518,17.673347 -0.249315,35.135519 -5.242184,52.03125 -5.72644,19.9125669 -16.07422,38.809729 -28.86914,54.890625 l -7.62696,9.714844 c -4.85051,6.436202 -9.32579,13.215793 -12.65234,20.580078 l 4.41992,9.988281 c 8.48528,-20.152539 11.48967,-21.211862 25.80859,-40.126953 14.31891,-18.9151 33.411236,-53.211156 32.527348,-97.228516 -0.88388,-44.017321 -7.425001,-62.401231 -23.865238,-82.023441 -16.44024,-19.62221 -55.86132,-15.55664 -55.86132,-15.55664 -0.88388,-11.66725 5.65625,-37.47656 5.65625,-37.47656 z m 30.50781,246.085941 -2.40039,-9.205079 c 0,0 -13.08152,-4.597554 -27.04687,-5.658203 l -0.35352,-156.269529 -7.23437,-7.91992 0.44921,171.611324 -7.17968,-8.304687 c 0,0 -32.88022,-1.237697 -38.89063,2.121094 0,0 2.13147,-2.055468 5.21875,-5.859375 0.008,-0.0094 0.0158,-0.02183 0.0234,-0.03125 0.12909,-0.158997 0.27582,-0.352428 0.4082,-0.517578 0.60131,-0.751182 1.23342,-1.564207 1.89258,-2.439454 0.39731,-0.526929 0.80099,-1.069537 1.21484,-1.640625 0.1505,-0.207934 0.29687,-0.401556 0.44922,-0.615234 0.006,-0.0087 0.0133,-0.0186 0.0195,-0.02734 0.5663,-0.793772 1.14566,-1.639684 1.73242,-2.511719 0.20768,-0.309006 0.41745,-0.626697 0.62695,-0.945312 0.47029,-0.714508 0.94547,-1.458383 1.42187,-2.220703 0.18723,-0.299883 0.37284,-0.58544 0.56055,-0.892578 0.009,-0.01462 0.0183,-0.03028 0.0274,-0.04492 0.58093,-0.950643 1.16178,-1.947713 1.74218,-2.966797 1.38088,-2.42655 2.74871,-5.0325322 4.05274,-7.828125 1.38588,-2.9710618 2.69823,-6.14458266 3.87695,-9.5039062 0.018,-0.051398 0.0367,-0.1028114 0.0547,-0.1542969 0.38411,-1.1004161 0.75447,-2.2195752 1.10742,-3.359375 0.70733,-2.2841981 1.34436,-4.6497769 1.90039,-7.0859379 0.0321,-0.140729 0.0625,-0.282604 0.0937,-0.423828 0.23979,-1.073175 0.46257,-2.160499 0.66797,-3.261719 0.0274,-0.146881 0.0573,-0.292074 0.084,-0.439453 0.44119,-2.430152 0.79092,-4.930298 1.04102,-7.490234 0.0255,-0.261817 0.047,-0.525926 0.0703,-0.789063 0.0899,-1.011123 0.16223,-2.032248 0.21875,-3.0625 0.0205,-0.3756 0.0466,-0.748837 0.0625,-1.126953 0.0128,-0.303156 0.0234,-0.607358 0.0332,-0.912109 0.0243,-0.760979 0.0399,-1.52603 0.0449,-2.296875 0.001,-0.164583 0.006,-0.327165 0.006,-0.492187 5e-5,-0.0453 -0.002,-0.09138 -0.002,-0.136719 -4.5e-4,-0.897066 -0.0171,-1.800919 -0.0449,-2.710938 -0.007,-0.220317 -0.0151,-0.441046 -0.0234,-0.662109 -0.0375,-0.991261 -0.0847,-1.988026 -0.15625,-2.994141 -0.0709,-0.996914 -0.16583,-2.004468 -0.27148,-3.015625 -0.0243,-0.232596 -0.05,-0.465887 -0.0762,-0.699218 -0.11435,-1.01869 -0.23941,-2.041586 -0.39063,-3.074219 -0.31319,-2.138638 -0.6858,-4.403239 -1.08203,-6.761719 -0.0493,-0.29314 -0.0945,-0.570863 -0.14453,-0.867188 -0.0269,-0.159356 -0.0569,-0.339729 -0.084,-0.5 -0.39495,-2.336249 -0.80312,-4.740073 -1.21094,-7.257812 -0.11323,-0.697792 -0.22244,-1.394844 -0.33399,-2.105469 -0.089,-0.567934 -0.17642,-1.133131 -0.26367,-1.708984 -0.13253,-0.873016 -0.25991,-1.754024 -0.38672,-2.644531 -0.0844,-0.594276 -0.16692,-1.189271 -0.24804,-1.791016 -0.12314,-0.911261 -0.23978,-1.8282 -0.35352,-2.755859 -0.065,-0.531855 -0.1261,-1.066502 -0.1875,-1.603516 -0.11405,-0.994622 -0.22269,-1.992398 -0.32227,-3.003906 -0.0517,-0.526853 -0.0953,-1.05863 -0.14257,-1.589844 -0.0909,-1.018615 -0.17742,-2.038418 -0.25,-3.072266 -0.036,-0.514487 -0.0628,-1.034671 -0.0937,-1.552734 -0.0651,-1.083414 -0.12696,-2.167452 -0.16797,-3.265625 -0.016,-0.431389 -0.0196,-0.869196 -0.0312,-1.302734 -0.31233,-11.201282 0.72325,-23.096002 4.66211,-35.083982 l -5.99024,-9.27344 c 0,0 -3.28318,16.13273 -3.83007,20.97266 -2.5766,22.800136 2.20836,45.719919 5.10742,64.917965 4.41831,30.170873 -7.54818,53.9831121 -17.07422,68.140625 l -1.83203,-4.455078 c 0,0 4.875,-14.3749503 3.75,-40.75 l -0.59375,-1.759766 0.46875,-2.115234 -0.625,-10.375 -0.99024,-1.503907 0.11524,-2.121093 -1.375,-11.5 -0.98243,-1.558594 -0.14257,-2.441406 -2,-12.125 -0.96485,-1.708985 -0.0351,-2.416015 -2.125,-12.25 c 0,0 10,-21.999992 14.75,-27.124992 l -1.79883,-6.27149 c -7.82403,11.44444 -18.38672,32.374997 -18.38672,32.374997 0,0 12.15191,45.230868 9.27539,83.3769534 -0.70384,9.3335336 -2.15077,16.9637986 -3.81445,21.9902346 l 1.65039,4.140625 c -5.82149,8.185452 -17.53735,22.540339 -30.60547,27.585937 0,0 16.76214,-4.424979 32.42187,-6.789062 12.11924,-1.874892 24.0948,-2.028037 36.28125,-1.958985 2.78532,0.01579 5.58056,0.11149 8.375,0.28711 12.40783,0.779783 24.82733,3.16538 36.58008,7.435547 z m -36.99804,-196.105471 -7.47461,-7.9082 c -19.26866,0.88388 -44.19451,-14.31928 -42.60352,-23.86524 0.37615,-2.25696 1.72854,-3.9546 3.5625,-5.24023 -0.006,0.001 -0.0115,7e-4 -0.0176,0.002 -5.99221,1.189 -9.04101,15.92188 -9.04101,15.92188 11.66561,12.59187 35.0727,20.71113 55.57422,21.08984 z m -0.61329,209.519533 -5.54101,78.708987 c 0.0301,0.003 0.0609,-0.006 0.0918,-0.0332 l 0.002,-0.002 c 2.12132,-1.94454 10.2539,-69.121094 10.25391,-69.121092 z m -82.69921,14.150391 -3.72852,0.128906 c 0,0 16.99296,12.244225 22.1875,22.625 0.82324,1.64515 4.40568,8.84309 -5.16211,22.41016 7.90669,-5.64629 9.7056,-12.8577 9.33203,-17.05664 -1.19982,-13.486149 -22.6289,-28.107426 -22.6289,-28.107426 z m -6.125,55.822266 c 0,0 -5.94604,4.41128 -0.41407,10.11523 -2.07144,-4.85717 -1.60062,-7.86567 0.41602,-10.11328 z"
       transform="scale(0.26458333)"
       inkscape:label="light" />
  </g>
</svg>
