<?xml version="1.0" encoding="UTF-8" standalone="no"?>
<svg
   xmlns:dc="http://purl.org/dc/elements/1.1/"
   xmlns:cc="http://creativecommons.org/ns#"
   xmlns:rdf="http://www.w3.org/1999/02/22-rdf-syntax-ns#"
   xmlns:svg="http://www.w3.org/2000/svg"
   xmlns="http://www.w3.org/2000/svg"
   xmlns:xlink="http://www.w3.org/1999/xlink"
   xmlns:sodipodi="http://sodipodi.sourceforge.net/DTD/sodipodi-0.dtd"
   xmlns:inkscape="http://www.inkscape.org/namespaces/inkscape"
   inkscape:version="1.0.1 (3bc2e813f5, 2020-09-07)"
   sodipodi:docname="logo.svg"
   id="svg8"
   version="1.1"
   viewBox="0 0 219.98257 50"
   height="50"
   width="219.98257">
  <defs
     id="defs2" />
  <sodipodi:namedview
     inkscape:guide-bbox="true"
     inkscape:document-rotation="0"
     inkscape:object-nodes="true"
     inkscape:snap-smooth-nodes="false"
     inkscape:snap-intersection-paths="false"
     inkscape:object-paths="true"
     inkscape:window-maximized="1"
     inkscape:window-y="-8"
     inkscape:window-x="-8"
     inkscape:window-height="1137"
     inkscape:window-width="3840"
     inkscape:measure-end="0,0"
     inkscape:measure-start="0,0"
     inkscape:snap-nodes="true"
     showguides="true"
     showborder="false"
     showgrid="false"
     inkscape:current-layer="svg8"
     inkscape:document-units="px"
     inkscape:cy="25.520538"
     inkscape:cx="110.77569"
     inkscape:zoom="7.9999999"
     inkscape:pageshadow="2"
     inkscape:pageopacity="0.0"
     borderopacity="1.0"
     bordercolor="#666666"
     pagecolor="#ffffff"
     id="base"
     inkscape:snap-global="true"
     units="px"
     fit-margin-top="0"
     fit-margin-left="0"
     fit-margin-right="0"
     fit-margin-bottom="0" />
  <metadata
     id="metadata5">
    <rdf:RDF>
      <cc:Work
         rdf:about="">
        <dc:format>image/svg+xml</dc:format>
        <dc:type
           rdf:resource="http://purl.org/dc/dcmitype/StillImage" />
        <dc:title />
      </cc:Work>
    </rdf:RDF>
  </metadata>
  <g
     id="g3121"
     inkscape:label="R">
    <path
       d="M 205.543 24.7417 C 205.543 27.2075 205.52 31.8102 205.426 32.4913 C 204.769 32.6557 203.266 32.7966 202.937 32.82 L 202.843 33.3132 C 203.383 33.2662 205.849 33.2193 206.812 33.2193 C 207.892 33.2193 210.264 33.2662 210.851 33.3132 L 210.757 32.82 C 210.24 32.7731 208.69 32.6087 208.291 32.4913 C 208.221 31.411 208.174 27.7946 208.174 26.2681 L 208.174 25.6576 C 208.573 25.6576 209.536 25.5871 210.428 25.5167 C 210.804 26.0098 217.05 33.2193 218.694 33.9707 L 219.728 33.8063 C 217.285 31.2232 213.504 25.0705 213.246 24.4834 C 215.054 23.4736 216.557 21.5245 216.557 20.045 C 216.557 18.7534 215.782 17.861 214.538 17.3679 C 212.941 16.7338 210.146 16.7104 207.915 16.7104 L 202.843 16.7338 L 202.913 17.227 C 203.43 17.274 205.027 17.4149 205.426 17.5088 C 205.52 17.955 205.543 22.4638 205.543 23.3092 Z M 208.174 24.2016 C 208.174 22.5343 208.221 18.3307 208.291 17.3679 C 212.354 17.3679 213.716 19.1996 213.716 20.7026 C 213.716 23.0274 212.048 24.1077 211.039 24.4834 C 210.029 24.8591 209.019 24.9296 208.174 24.9296 Z"
       style="-inkscape-font-specification:'Charlemagne Std, Bold';display:inline;fill:none;fill-opacity:1;font-family:'Charlemagne Std';font-feature-settings:normal;font-size:42.6344px;font-stretch:normal;font-style:normal;font-variant:normal;font-variant-caps:normal;font-variant-ligatures:normal;font-variant-numeric:normal;font-variation-settings:normal;font-weight:bold;letter-spacing:0px;line-height:1.25;opacity:1;stop-color:#000000;stop-opacity:1;stroke:#000000;stroke-dasharray:none;stroke-dashoffset:0;stroke-linecap:butt;stroke-linejoin:round;stroke-miterlimit:4;stroke-opacity:1;stroke-width:0.510074120062;text-align:start;text-anchor:start;vector-effect:none;word-spacing:0px;writing-mode:lr-tb"
       id="path1360" />
    <path
       d="M 205.543 24.7417 C 205.543 27.2075 205.52 31.8102 205.426 32.4913 C 204.769 32.6557 203.266 32.7966 202.937 32.82 L 202.843 33.3132 C 203.383 33.2662 205.849 33.2193 206.812 33.2193 C 207.892 33.2193 210.264 33.2662 210.851 33.3132 L 210.757 32.82 C 210.24 32.7731 208.69 32.6087 208.291 32.4913 C 208.221 31.411 208.174 27.7946 208.174 26.2681 L 208.174 25.6576 C 208.573 25.6576 209.536 25.5871 210.428 25.5167 C 210.804 26.0098 217.05 33.2193 218.694 33.9707 L 219.728 33.8063 C 217.285 31.2232 213.504 25.0705 213.246 24.4834 C 215.054 23.4736 216.557 21.5245 216.557 20.045 C 216.557 18.7534 215.782 17.861 214.538 17.3679 C 212.941 16.7338 210.146 16.7104 207.915 16.7104 L 202.843 16.7338 L 202.913 17.227 C 203.43 17.274 205.027 17.4149 205.426 17.5088 C 205.52 17.955 205.543 22.4638 205.543 23.3092 Z M 208.174 24.2016 C 208.174 22.5343 208.221 18.3307 208.291 17.3679 C 212.354 17.3679 213.716 19.1996 213.716 20.7026 C 213.716 23.0274 212.048 24.1077 211.039 24.4834 C 210.029 24.8591 209.019 24.9296 208.174 24.9296 Z"
       style="-inkscape-font-specification:'Charlemagne Std, Bold';display:inline;fill:#0b6acb;fill-opacity:1;font-family:'Charlemagne Std';font-feature-settings:normal;font-size:42.6344px;font-stretch:normal;font-style:normal;font-variant:normal;font-variant-caps:normal;font-variant-ligatures:normal;font-variant-numeric:normal;font-weight:bold;letter-spacing:0px;line-height:1.25;stroke:none;stroke-width:0.5870874124600001;text-align:start;text-anchor:start;word-spacing:0px;writing-mode:lr-tb"
       id="path1062" />
    <path
       id="path1080"
       style="-inkscape-font-specification:'Charlemagne Std, Bold';display:inline;fill:#000000;fill-opacity:1;font-family:'Charlemagne Std';font-feature-settings:normal;font-size:42.6344px;font-stretch:normal;font-style:normal;font-variant:normal;font-variant-caps:normal;font-variant-ligatures:normal;font-variant-numeric:normal;font-weight:bold;letter-spacing:0px;line-height:1.25;opacity:0.2;stroke:none;stroke-width:0.58708707445483;text-align:start;text-anchor:start;word-spacing:0px;writing-mode:lr-tb"
       d="M 202.843 16.7345 L 202.913 17.227 C 203.43 17.2739 205.027 17.4148 205.426 17.5088 C 205.52 17.9549 205.543 22.4637 205.543 23.3091 L 205.543 24.7417 C 205.543 27.2075 205.52 31.8103 205.426 32.4913 L 205.426 32.4913 L 205.071 32.7293 L 202.908 32.9726 L 202.843 33.3131 C 203.383 33.2661 205.849 33.2191 206.812 33.2191 C 207.892 33.2191 210.263 33.2661 210.851 33.3131 L 210.569 33.068 L 207.979 32.7711 L 207.051 32.1142 L 206.89 17.7516 L 205.628 17.0431 L 203.123 16.9338 Z M 208.997 17.0596 C 208.359 17.0571 207.943 17.0915 207.943 17.0915 L 208.291 17.3679 C 212.353 17.3679 213.715 19.1998 213.715 20.7027 C 213.715 22.2256 213 23.2118 212.222 23.8184 L 212.224 23.8203 L 212.224 23.8209 L 213.206 23.7774 C 213.846 23.4238 215.664 21.5923 215.383 20.0233 C 214.738 17.5996 210.911 17.0671 208.997 17.0596 Z M 212.04 25.0799 C 210.706 25.266 209.262 25.3166 207.898 25.3551 L 208.173 25.6577 L 208.173 25.6583 L 208.173 25.6577 C 208.572 25.6577 209.535 25.5872 210.428 25.5168 C 210.803 26.0099 217.05 33.2194 218.694 33.9709 L 219.229 33.8855 C 218.406 33.5926 212.04 25.0799 212.04 25.0799 Z" />
    <path
       id="path1084"
       style="-inkscape-font-specification:'Charlemagne Std, Bold';display:inline;fill:#ffffff;fill-opacity:1;font-family:'Charlemagne Std';font-feature-settings:normal;font-size:42.6344px;font-stretch:normal;font-style:normal;font-variant:normal;font-variant-caps:normal;font-variant-ligatures:normal;font-variant-numeric:normal;font-weight:bold;letter-spacing:0px;line-height:1.25;opacity:0.3;stroke:none;stroke-width:0.58708707445483;text-align:start;text-anchor:start;word-spacing:0px;writing-mode:lr-tb"
       d="M 207.915 16.7103 L 202.842 16.734 L 203.122 16.9338 L 205.628 17.0431 L 206.89 17.7516 L 207.051 32.1142 L 207.979 32.7711 L 210.569 33.068 L 210.85 33.3131 L 210.756 32.8201 C 210.24 32.7731 208.69 32.6087 208.29 32.4913 C 208.22 31.4111 208.173 27.7947 208.173 26.2682 L 208.173 25.6577 L 207.898 25.3551 C 209.262 25.3166 210.706 25.266 212.04 25.0799 C 212.04 25.0799 218.406 33.5926 219.23 33.8855 C 219.395 33.8589 219.561 33.8327 219.727 33.8063 C 219.669 33.7451 219.609 33.6788 219.55 33.6134 C 217.106 30.9309 213.498 25.0564 213.245 24.4833 C 214.758 23.6889 216.552 21.7031 216.557 20.0449 C 216.557 18.7533 215.782 17.861 214.538 17.3679 C 212.941 16.7338 210.146 16.7103 207.915 16.7103 Z M 208.997 17.0596 C 210.911 17.0671 214.738 17.5995 215.383 20.0231 C 215.664 21.5922 213.846 23.4238 213.206 23.7774 L 212.223 23.8209 L 212.223 23.8203 C 211.836 24.123 211.42 24.3412 211.038 24.4833 C 210.029 24.859 209.019 24.9296 208.173 24.9296 L 208.173 24.2015 C 208.173 22.5342 208.22 18.3307 208.291 17.3679 L 207.943 17.0915 C 207.943 17.0915 208.359 17.0571 208.997 17.0596 Z M 205.426 32.4913 C 204.768 32.6557 203.265 32.7966 202.936 32.8201 L 202.907 32.9726 L 205.071 32.7293 Z" />
  </g>
  <g
     id="g3129"
     inkscape:label="E">
    <path
       d="M 190.615 25.1644 C 190.615 27.7476 190.544 32.0686 190.45 32.4913 C 189.816 32.6557 188.407 32.7966 188.031 32.82 L 187.914 33.3132 C 188.83 33.2662 190.685 33.2193 191.483 33.2193 C 192.963 33.2193 198.176 33.3132 198.857 33.4306 C 198.881 33.8063 198.881 34.229 198.881 34.8631 L 199.374 34.957 C 199.468 33.7829 199.984 30.2134 200.149 29.5323 L 199.609 29.6732 C 199.468 30.1899 199.35 30.9179 199.092 31.7398 C 198.012 32.3504 195.804 32.5382 193.456 32.5382 C 193.386 31.8572 193.292 26.7378 193.292 25.3053 L 193.292 24.8356 C 195.311 24.8356 197.143 24.9765 197.871 25.3523 C 197.871 25.822 197.847 26.4325 197.824 26.9257 L 198.27 27.1135 C 198.388 26.3621 198.81 23.1448 198.881 22.7221 L 198.388 22.7691 C 198.341 23.0979 198.27 23.4266 198.153 23.7789 C 197.589 23.9902 195.311 24.1546 193.292 24.1546 L 193.292 23.685 C 193.292 22.2994 193.386 17.7671 193.456 17.4383 C 194.701 17.4383 198.317 17.7436 198.74 18.4247 C 198.763 18.8943 198.74 19.9511 198.74 20.1155 L 199.256 20.2798 C 199.303 19.5519 199.609 15.9119 199.726 15.4188 L 199.186 15.5127 C 199.139 15.9354 199.069 16.3346 198.998 16.6164 C 198.364 16.7808 192.845 16.7808 192.094 16.7808 C 191.577 16.7808 190.802 16.7573 190.027 16.7573 L 187.914 16.6869 L 188.008 17.18 C 188.571 17.2505 190.004 17.4149 190.45 17.5088 C 190.544 18.2368 190.615 21.9707 190.615 24.0842 Z"
       style="-inkscape-font-specification:'Charlemagne Std, Bold';display:inline;fill:none;fill-opacity:1;font-family:'Charlemagne Std';font-feature-settings:normal;font-size:42.6344px;font-stretch:normal;font-style:normal;font-variant:normal;font-variant-caps:normal;font-variant-ligatures:normal;font-variant-numeric:normal;font-variation-settings:normal;font-weight:bold;letter-spacing:0px;line-height:1.25;opacity:1;stop-color:#000000;stop-opacity:1;stroke:#000000;stroke-dasharray:none;stroke-dashoffset:0;stroke-linecap:butt;stroke-linejoin:round;stroke-miterlimit:4;stroke-opacity:1;stroke-width:0.510074120062;text-align:start;text-anchor:start;vector-effect:none;word-spacing:0px;writing-mode:lr-tb"
       id="path1362" />
    <path
       d="M 190.615 25.1644 C 190.615 27.7476 190.544 32.0686 190.45 32.4913 C 189.816 32.6557 188.407 32.7966 188.031 32.82 L 187.914 33.3132 C 188.83 33.2662 190.685 33.2193 191.483 33.2193 C 192.963 33.2193 198.176 33.3132 198.857 33.4306 C 198.881 33.8063 198.881 34.229 198.881 34.8631 L 199.374 34.957 C 199.468 33.7829 199.984 30.2134 200.149 29.5323 L 199.609 29.6732 C 199.468 30.1899 199.35 30.9179 199.092 31.7398 C 198.012 32.3504 195.804 32.5382 193.456 32.5382 C 193.386 31.8572 193.292 26.7378 193.292 25.3053 L 193.292 24.8356 C 195.311 24.8356 197.143 24.9765 197.871 25.3523 C 197.871 25.822 197.847 26.4325 197.824 26.9257 L 198.27 27.1135 C 198.388 26.3621 198.81 23.1448 198.881 22.7221 L 198.388 22.7691 C 198.341 23.0979 198.27 23.4266 198.153 23.7789 C 197.589 23.9902 195.311 24.1546 193.292 24.1546 L 193.292 23.685 C 193.292 22.2994 193.386 17.7671 193.456 17.4383 C 194.701 17.4383 198.317 17.7436 198.74 18.4247 C 198.763 18.8943 198.74 19.9511 198.74 20.1155 L 199.256 20.2798 C 199.303 19.5519 199.609 15.9119 199.726 15.4188 L 199.186 15.5127 C 199.139 15.9354 199.069 16.3346 198.998 16.6164 C 198.364 16.7808 192.845 16.7808 192.094 16.7808 C 191.577 16.7808 190.802 16.7573 190.027 16.7573 L 187.914 16.6869 L 188.008 17.18 C 188.571 17.2505 190.004 17.4149 190.45 17.5088 C 190.544 18.2368 190.615 21.9707 190.615 24.0842 Z"
       style="-inkscape-font-specification:'Charlemagne Std, Bold';display:inline;fill:#0b6acb;fill-opacity:1;font-family:'Charlemagne Std';font-feature-settings:normal;font-size:42.6344px;font-stretch:normal;font-style:normal;font-variant:normal;font-variant-caps:normal;font-variant-ligatures:normal;font-variant-numeric:normal;font-weight:bold;letter-spacing:0px;line-height:1.25;stroke:none;stroke-width:0.5870874124600001;text-align:start;text-anchor:start;word-spacing:0px;writing-mode:lr-tb"
       id="path1060" />
    <path
       id="path1049"
       style="-inkscape-font-specification:'Charlemagne Std, Bold';display:inline;fill:#000000;fill-opacity:1;font-family:'Charlemagne Std';font-feature-settings:normal;font-size:42.6344px;font-stretch:normal;font-style:normal;font-variant:normal;font-variant-caps:normal;font-variant-ligatures:normal;font-variant-numeric:normal;font-weight:bold;letter-spacing:0px;line-height:1.25;opacity:0.2;stroke:none;stroke-width:0.58708707445483;text-align:start;text-anchor:start;word-spacing:0px;writing-mode:lr-tb"
       d="M 199.42 15.4719 L 199.186 15.5126 C 199.139 15.9352 199.068 16.3343 198.998 16.6161 L 198.998 16.6161 L 199.263 16.5114 L 199.419 15.4724 Z M 187.914 16.687 L 188.008 17.18 C 188.571 17.2504 190.004 17.4148 190.45 17.5088 C 190.544 18.2367 190.614 21.9707 190.614 24.0842 L 190.614 25.1644 C 190.614 27.7476 190.544 32.0686 190.45 32.4913 L 190.056 32.725 L 188.002 32.9422 L 187.914 33.3131 C 188.83 33.2661 190.685 33.2191 191.483 33.2191 C 192.963 33.2191 198.176 33.3132 198.857 33.4306 C 198.88 33.8064 198.881 34.2292 198.881 34.8632 L 199.218 34.9275 L 199.218 34.9272 L 199.218 34.9264 L 199.197 33.1132 L 198.915 32.7216 L 192.995 32.8491 L 192.135 31.9852 L 191.984 17.8201 L 190.827 17.1461 L 188.185 16.9002 Z M 193.099 17.1501 L 193.455 17.4382 L 193.455 17.4385 L 193.455 17.4393 L 193.455 17.4385 C 194.7 17.4385 198.316 17.7437 198.739 18.4247 C 198.763 18.8944 198.739 19.9511 198.739 20.1155 L 199.083 20.2248 L 199.083 20.2245 L 199.124 17.7609 L 198.718 17.2053 Z M 198.61 22.7481 L 198.387 22.7692 C 198.34 23.0979 198.27 23.4265 198.152 23.7788 C 198.062 23.8129 197.913 23.845 197.741 23.8761 L 197.743 23.8787 L 198.42 23.7668 Z M 197.905 24.4884 L 192.959 24.4947 L 193.291 24.8354 L 193.291 24.8357 C 195.311 24.8357 197.142 24.9765 197.87 25.3523 C 197.87 25.8219 197.847 26.4326 197.823 26.9258 L 198.111 27.0465 L 198.214 24.939 Z M 199.811 29.6207 L 199.608 29.6734 C 199.468 30.19 199.35 30.9179 199.092 31.7399 C 198.903 31.8464 198.679 31.9393 198.427 32.0214 L 198.427 32.0222 L 199.413 31.7308 L 199.81 29.6236 Z" />
    <path
       id="path1074"
       style="-inkscape-font-specification:'Charlemagne Std, Bold';display:inline;fill:#ffffff;fill-opacity:1;font-family:'Charlemagne Std';font-feature-settings:normal;font-size:42.6344px;font-stretch:normal;font-style:normal;font-variant:normal;font-variant-caps:normal;font-variant-ligatures:normal;font-variant-numeric:normal;font-weight:bold;letter-spacing:0px;line-height:1.25;opacity:0.3;stroke:none;stroke-width:0.58708707445483;text-align:start;text-anchor:start;word-spacing:0px;writing-mode:lr-tb"
       d="M 199.726 15.4187 L 199.42 15.4719 L 199.42 15.4724 L 199.264 16.5114 L 198.998 16.6161 L 198.998 16.6161 L 198.998 16.6164 C 198.364 16.7808 192.846 16.7809 192.094 16.7809 C 191.578 16.7809 190.802 16.7573 190.027 16.7573 L 187.914 16.687 L 188.185 16.9002 L 190.827 17.1461 L 191.984 17.8202 L 192.135 31.9852 L 192.995 32.8491 L 198.915 32.7216 L 199.197 33.1132 L 199.218 34.9264 L 199.218 34.9273 L 199.218 34.9276 L 199.374 34.9572 C 199.468 33.783 199.984 30.2135 200.149 29.5325 L 199.811 29.6204 L 199.811 29.6207 L 199.811 29.6236 L 199.413 31.7307 L 198.427 32.0222 L 198.427 32.0214 C 197.236 32.4095 195.395 32.5383 193.457 32.5383 C 193.386 31.8572 193.292 26.7378 193.292 25.3053 L 193.292 24.8356 L 193.292 24.8354 L 192.96 24.4946 L 197.906 24.4884 L 198.215 24.939 L 198.112 27.0464 L 198.112 27.0467 L 198.271 27.1136 C 198.388 26.3621 198.811 23.1449 198.881 22.7222 L 198.611 22.7478 L 198.611 22.7481 L 198.421 23.7668 L 197.744 23.8787 L 197.742 23.8761 C 196.849 24.0382 194.986 24.1545 193.292 24.1545 L 193.292 23.6849 C 193.292 22.3 193.386 17.772 193.457 17.4393 L 193.457 17.4384 L 193.457 17.4382 L 193.1 17.1501 L 198.72 17.2053 L 199.126 17.7609 L 199.085 20.2245 L 199.085 20.2248 L 199.258 20.2797 C 199.305 19.5517 199.61 15.9118 199.727 15.4186 Z M 190.45 32.4913 C 189.816 32.6557 188.407 32.7966 188.031 32.8201 L 188.002 32.9422 L 190.056 32.725 Z" />
  </g>
  <g
     id="g3125"
     inkscape:label="Z">
    <path
       d="M 172.256 21.4775 C 172.397 21.0783 172.867 19.364 173.102 18.7534 C 173.806 18.0959 180.288 17.6967 181.885 17.7436 C 181.133 19.1057 171.716 32.1155 170.542 33.3602 C 172.632 33.2897 175.943 33.2193 176.953 33.2193 C 179.114 33.2193 183.763 33.3367 184.045 33.5011 C 184.045 33.9472 183.951 35.3093 183.928 35.7555 L 184.468 35.9199 C 184.562 34.7222 185.642 28.5695 185.759 27.8885 L 185.219 28.0294 C 185.055 28.6165 184.538 30.683 184.233 31.0823 C 183.012 32.092 177.423 32.4913 174.511 32.3738 C 175.755 30.4717 184.444 18.5421 185.736 16.9217 C 184.28 16.9922 179.513 17.0391 179.02 17.0391 C 178.433 17.0391 173.571 16.9217 173.078 16.8278 C 173.055 16.4755 173.031 15.2779 173.008 14.6438 L 172.468 14.5264 C 172.397 15.5362 172.233 19.2935 171.716 21.548 Z"
       style="-inkscape-font-specification:'Charlemagne Std, Bold';display:inline;fill:none;fill-opacity:1;font-family:'Charlemagne Std';font-feature-settings:normal;font-size:42.6344px;font-stretch:normal;font-style:normal;font-variant:normal;font-variant-caps:normal;font-variant-ligatures:normal;font-variant-numeric:normal;font-variation-settings:normal;font-weight:bold;letter-spacing:0px;line-height:1.25;opacity:1;stop-color:#000000;stop-opacity:1;stroke:#000000;stroke-dasharray:none;stroke-dashoffset:0;stroke-linecap:butt;stroke-linejoin:round;stroke-miterlimit:4;stroke-opacity:1;stroke-width:0.510074120062;text-align:start;text-anchor:start;vector-effect:none;word-spacing:0px;writing-mode:lr-tb"
       id="path1364" />
    <path
       d="M 172.256 21.4775 C 172.397 21.0783 172.867 19.364 173.102 18.7534 C 173.806 18.0959 180.288 17.6967 181.885 17.7436 C 181.133 19.1057 171.716 32.1155 170.542 33.3602 C 172.632 33.2897 175.943 33.2193 176.953 33.2193 C 179.114 33.2193 183.763 33.3367 184.045 33.5011 C 184.045 33.9472 183.951 35.3093 183.928 35.7555 L 184.468 35.9199 C 184.562 34.7222 185.642 28.5695 185.759 27.8885 L 185.219 28.0294 C 185.055 28.6165 184.538 30.683 184.233 31.0823 C 183.012 32.092 177.423 32.4913 174.511 32.3738 C 175.755 30.4717 184.444 18.5421 185.736 16.9217 C 184.28 16.9922 179.513 17.0391 179.02 17.0391 C 178.433 17.0391 173.571 16.9217 173.078 16.8278 C 173.055 16.4755 173.031 15.2779 173.008 14.6438 L 172.468 14.5264 C 172.397 15.5362 172.233 19.2935 171.716 21.548 Z"
       style="-inkscape-font-specification:'Charlemagne Std, Bold';display:inline;fill:#0b6acb;fill-opacity:1;font-family:'Charlemagne Std';font-feature-settings:normal;font-size:42.6344px;font-stretch:normal;font-style:normal;font-variant:normal;font-variant-caps:normal;font-variant-ligatures:normal;font-variant-numeric:normal;font-weight:bold;letter-spacing:0px;line-height:1.25;stroke:none;stroke-width:0.5870874124600001;text-align:start;text-anchor:start;word-spacing:0px;writing-mode:lr-tb"
       id="path1058" />
    <path
       id="path1036"
       style="-inkscape-font-specification:'Charlemagne Std, Bold';display:inline;fill:#000000;fill-opacity:1;font-family:'Charlemagne Std';font-feature-settings:normal;font-size:42.6344px;font-stretch:normal;font-style:normal;font-variant:normal;font-variant-caps:normal;font-variant-ligatures:normal;font-variant-numeric:normal;font-weight:bold;letter-spacing:0px;line-height:1.25;opacity:0.2;stroke:none;stroke-width:0.58708707445483;text-align:start;text-anchor:start;word-spacing:0px;writing-mode:lr-tb"
       d="M 172.467 14.5263 C 172.397 15.5361 172.233 19.2937 171.716 21.5481 L 172.108 21.4968 L 172.692 19.0956 L 173.101 18.7535 L 173.102 18.7535 C 173.806 18.0959 180.288 17.6966 181.885 17.7436 C 181.133 19.1056 171.716 32.1154 170.542 33.36 C 172.632 33.2896 175.943 33.2191 176.953 33.2191 C 179.113 33.2191 183.763 33.3365 184.045 33.5009 C 184.045 33.9471 183.951 35.3094 183.927 35.7555 L 184.271 35.86 L 184.392 33.1033 L 183.768 32.4942 L 173.89 32.8021 L 173.172 32.1526 L 183.604 17.7931 L 181.987 17.408 L 173.244 17.552 L 172.748 16.9079 L 172.729 14.8275 Z M 185.44 27.9718 L 185.219 28.0293 C 185.055 28.6164 184.538 30.6831 184.233 31.0823 C 184.081 31.2082 183.86 31.3245 183.586 31.4316 L 183.587 31.4319 L 184.706 31.0394 Z" />
    <path
       d="M 172.467 14.5263 L 172.729 14.8275 L 172.748 16.9079 L 173.244 17.552 L 181.987 17.4081 L 183.604 17.793 L 173.172 32.1526 L 173.89 32.8021 L 183.768 32.4942 L 184.392 33.1033 L 184.271 35.8601 L 184.468 35.9198 C 184.479 35.7701 184.507 35.5429 184.545 35.2589 L 184.545 35.2586 C 184.584 34.9745 184.634 34.6333 184.692 34.2555 L 184.692 34.2552 C 184.809 33.4994 184.956 32.5969 185.105 31.7105 L 185.105 31.7102 C 185.401 29.9372 185.7 28.2289 185.759 27.8884 L 185.44 27.9719 L 184.706 31.0394 L 183.251 31.5494 L 183.249 31.5488 C 181.167 32.2135 176.922 32.471 174.511 32.3737 C 174.588 32.2549 174.695 32.0967 174.827 31.9046 L 174.828 31.9044 C 174.96 31.7122 175.118 31.4859 175.297 31.2303 L 175.297 31.23 C 176.016 30.2073 177.084 28.7166 178.269 27.076 L 178.269 27.0757 C 178.861 26.2554 179.483 25.3978 180.106 24.5421 L 180.106 24.5419 C 182.595 21.1192 185.09 17.732 185.736 16.9218 C 185.372 16.9394 184.801 16.9553 184.141 16.9696 C 182.823 16.9982 181.15 17.0195 180.072 17.0305 C 179.533 17.036 179.143 17.0391 179.019 17.0391 C 178.579 17.0391 175.735 16.9731 174.132 16.9004 C 173.598 16.8762 173.201 16.8513 173.078 16.8279 C 173.066 16.6518 173.055 16.2642 173.043 15.8416 L 173.043 15.8413 C 173.042 15.8293 173.042 15.8194 173.042 15.8074 C 173.03 15.3949 173.019 14.9519 173.007 14.6438 Z M 173.101 18.7535 L 172.692 19.0956 L 172.108 21.4968 L 172.152 21.4911 L 172.256 21.4775 L 172.432 20.9102 C 172.442 20.8756 172.456 20.828 172.467 20.7918 C 172.534 20.565 172.605 20.326 172.682 20.0679 C 172.74 19.8722 172.793 19.6981 172.85 19.514 C 172.874 19.4356 172.898 19.3584 172.921 19.2855 C 172.938 19.2323 172.954 19.182 172.97 19.1326 C 173.014 18.9981 173.056 18.8773 173.091 18.7822 C 173.094 18.7744 173.099 18.761 173.101 18.7535 Z"
       style="-inkscape-font-specification:'Charlemagne Std, Bold';display:inline;fill:#ffffff;fill-opacity:1;font-family:'Charlemagne Std';font-feature-settings:normal;font-size:26.0332px;font-stretch:normal;font-style:normal;font-variant:normal;font-variant-caps:normal;font-variant-ligatures:normal;font-variant-numeric:normal;font-weight:bold;letter-spacing:0px;line-height:1.25;opacity:0.3;stroke:none;stroke-width:0.58708707445483;text-align:start;text-anchor:start;word-spacing:0px;writing-mode:lr-tb"
       id="path1083" />
  </g>
  <use
     x="0"
     y="0"
     xlink:href="#g1118"
     id="use1060"
     transform="translate(84.9448)"
     width="100%"
     height="100%"
     inkscape:label="I clone 2" />
  <use
     x="0"
     y="0"
     xlink:href="#g1042"
     id="use1074"
     transform="translate(53.29645)"
     width="100%"
     height="100%"
     inkscape:label="N clone" />
  <g
     id="g1207"
     style="display:inline"
     inkscape:label="dice 2">
    <path
       id="path1366"
       style="font-variation-settings:normal;opacity:1;vector-effect:none;fill:none;fill-opacity:1;stroke:#000000;stroke-width:0.510073;stroke-linecap:butt;stroke-linejoin:round;stroke-miterlimit:4;stroke-dasharray:none;stroke-dashoffset:0;stroke-opacity:1;stop-color:#000000;stop-opacity:1"
       d="m 125.876,16.1416 c -0.307,-9e-4 -0.575,0.0193 -0.783,0.0631 l -3.319,0.7004 c -0.002,5e-4 -0.003,0.0011 -0.005,0.0014 l -0.001,2e-4 c -0.093,0.0195 -0.061,0.0127 -0.164,0.0345 -1.01,0.2141 -1.873,1.6868 -2.25,3.4265 -0.005,0.019 -0.009,0.0384 -0.013,0.0576 -0.009,0.0402 -0.019,0.0803 -0.027,0.1213 l -1.276,6.5563 c -0.347,1.7869 0.663,3.6637 2.277,4.2146 l 6.002,2.0486 c 0.003,10e-4 0.006,0.0018 0.009,0.0028 0.009,0.0032 0.027,0.0093 0.037,0.0125 0.933,0.3222 3.465,0.7364 4.273,0.2632 l 1.018,-0.5953 v -4e-4 l 1.657,-0.9702 c 0.669,-0.3917 1.487,-1.9917 1.853,-3.6205 l 1.393,-6.191 c 0.212,-0.9416 0.25,-1.732 0.138,-2.2285 v 0 c 0,-0.0043 -0.002,-0.009 -0.003,-0.0134 -0.006,-0.0263 -0.011,-0.0537 -0.018,-0.0782 -0.087,-0.3527 -0.242,-0.7635 -0.501,-0.9698 h -0.002 c -0.275,-0.2324 -0.845,-0.4942 -1.632,-0.7273 l -5.384,-1.5928 c -1.078,-0.319 -2.356,-0.5127 -3.279,-0.5156 z" />
    <path
       id="path1386"
       style="opacity:1;fill:#0b6acb;fill-opacity:1;stroke:none;stroke-width:0.0268108;stroke-opacity:1"
       d="m 125.876,16.1416 c -0.307,-9e-4 -0.575,0.0193 -0.783,0.0631 l -3.319,0.7004 c -0.002,5e-4 -0.003,0.0011 -0.005,0.0014 l -0.001,2e-4 c -0.093,0.0195 -0.061,0.0127 -0.164,0.0345 -1.01,0.2141 -1.873,1.6868 -2.25,3.4265 -0.005,0.019 -0.009,0.0384 -0.013,0.0576 -0.009,0.0402 -0.019,0.0803 -0.027,0.1213 l -1.276,6.5563 c -0.347,1.7869 0.663,3.6637 2.277,4.2146 l 6.002,2.0486 c 0.003,10e-4 0.006,0.0018 0.009,0.0028 0.009,0.0032 0.027,0.0093 0.037,0.0125 0.933,0.3222 3.465,0.7364 4.273,0.2632 l 1.018,-0.5953 v -4e-4 l 1.657,-0.9702 c 0.669,-0.3917 1.487,-1.9917 1.853,-3.6205 l 1.393,-6.191 c 0.212,-0.9416 0.25,-1.732 0.138,-2.2285 v 0 c 0,-0.0043 -0.002,-0.009 -0.003,-0.0134 -0.006,-0.0263 -0.011,-0.0537 -0.018,-0.0782 -0.087,-0.3527 -0.242,-0.7635 -0.501,-0.9698 h -0.002 c -0.275,-0.2324 -0.845,-0.4942 -1.632,-0.7273 l -5.384,-1.5928 c -1.078,-0.319 -2.356,-0.5127 -3.279,-0.5156 z" />
    <path
       style="opacity:0.2;fill:#000000;fill-opacity:1;stroke:none;stroke-width:0.0268108;stroke-opacity:1"
       d="m 126.317,33.3662 -6.001,-2.0488 c -1.614,-0.5509 -2.625,-2.4276 -2.278,-4.2145 l 1.276,-6.5562 c 0.351,-1.8025 1.941,-2.8526 3.576,-2.3479 l 6.08,1.8771 c 1.694,0.5232 2.768,2.4392 2.396,4.2892 l -1.355,6.7278 c -0.369,1.8335 -2.021,2.8442 -3.694,2.2733 z"
       id="path1404" />
    <path
       style="opacity:0.9;fill:#ffffff;fill-opacity:1;stroke:none;stroke-width:0.0315422;stroke-opacity:1"
       d="m 122.845,21.8683 c -0.306,0.0076 -0.572,0.2372 -0.641,0.5866 -0.084,0.4298 0.162,0.8792 0.551,1.004 0.389,0.1251 0.775,-0.1227 0.86,-0.5538 0.085,-0.4313 -0.163,-0.8816 -0.553,-1.0054 -0.073,-0.0231 -0.146,-0.0332 -0.217,-0.0314 z m 1.689,3.0724 c -0.309,0.0054 -0.577,0.2339 -0.646,0.584 -0.085,0.4308 0.163,0.8837 0.555,1.0118 0.393,0.1283 0.781,-0.1176 0.866,-0.5496 0.086,-0.4323 -0.164,-0.8861 -0.557,-1.0132 -0.073,-0.0237 -0.147,-0.0343 -0.218,-0.033 z m 1.702,3.0958 c -0.311,0.0032 -0.582,0.2306 -0.651,0.5815 -0.086,0.4316 0.164,0.8878 0.559,1.0192 0.396,0.1317 0.787,-0.1122 0.873,-0.5452 0.086,-0.4332 -0.165,-0.8903 -0.561,-1.0207 -0.074,-0.0244 -0.148,-0.0356 -0.22,-0.0348 z"
       id="path1408" />
    <path
       id="path1394"
       d="m 133.311,32.0788 -2.592,1.5171 c -0.753,0.4407 -1.093,-0.5908 -0.738,-2.3524 l 1.353,-6.7221 c 0.387,-1.9229 1.338,-3.7355 2.105,-4.0229 l 2.631,-0.9852 c 0.677,-0.2534 0.884,0.9901 0.487,2.754 l -1.393,6.191 c -0.366,1.6288 -1.184,3.2288 -1.853,3.6205 z"
       style="opacity:0.2;fill:#ffffff;fill-opacity:1;stroke:none;stroke-width:0.0268108;stroke-opacity:1" />
    <path
       style="display:inline;opacity:0.9;fill:#ffffff;fill-opacity:1;stroke:none;stroke-width:0.0315422;stroke-opacity:1"
       d="m 133.142,23.9003 c -0.018,-0.0016 -0.039,0.0021 -0.061,0.0116 -0.177,0.0768 -0.395,0.4964 -0.486,0.935 -0.091,0.4366 -0.02,0.7231 0.156,0.6418 0.176,-0.0807 0.391,-0.4948 0.482,-0.927 0.08,-0.3799 0.039,-0.6508 -0.091,-0.6614 z m 0.876,3.7716 c -0.017,10e-5 -0.036,0.0052 -0.056,0.0157 -0.165,0.0839 -0.37,0.4827 -0.458,0.8886 -0.088,0.4042 -0.025,0.6593 0.139,0.5716 0.163,-0.0872 0.366,-0.481 0.453,-0.8815 0.078,-0.3519 0.041,-0.595 -0.078,-0.5944 z"
       id="path1398" />
    <path
       id="path1388"
       d="m 128.93,20.0637 -6.078,-1.8767 c -1.617,-0.4991 -2.073,-1.0718 -1.078,-1.2818 l 3.319,-0.7004 c 0.832,-0.1754 2.625,0.027 4.062,0.4523 l 5.384,1.5929 c 1.511,0.4471 2.23,1.0014 1.576,1.2467 l -2.626,0.9831 c -0.79,0.2959 -2.846,0.1127 -4.559,-0.4161 z"
       style="opacity:0.3;fill:#ffffff;fill-opacity:1;stroke:none;stroke-width:0.0268108;stroke-opacity:1" />
    <path
       id="path1390"
       d="m 128.382,18.0182 c 0.195,-0.0529 0.65,-0.0059 1.018,0.1048 0.369,0.111 0.516,0.2456 0.325,0.3006 -0.192,0.0557 -0.653,0.0091 -1.027,-0.1041 -0.373,-0.1129 -0.514,-0.2479 -0.316,-0.3013 z"
       style="opacity:0.9;fill:#ffffff;fill-opacity:1;stroke:none;stroke-width:0.0315422;stroke-opacity:1" />
  </g>
  <use
     x="0"
     y="0"
     xlink:href="#g1118"
     id="use1054"
     transform="translate(31.6478)"
     width="100%"
     height="100%"
     inkscape:label="I clone 1" />
  <g
     id="g1042"
     inkscape:label="N">
    <path
       id="path1368"
       style="font-style:normal;font-variant:normal;font-weight:bold;font-stretch:normal;font-size:42.6344px;line-height:1.25;font-family:'Charlemagne Std';-inkscape-font-specification:'Charlemagne Std, Bold';font-variant-ligatures:normal;font-variant-caps:normal;font-variant-numeric:normal;font-feature-settings:normal;font-variation-settings:normal;text-align:start;letter-spacing:0px;word-spacing:0px;writing-mode:lr-tb;text-anchor:start;display:inline;opacity:1;vector-effect:none;fill:none;fill-opacity:1;stroke:#000000;stroke-width:0.510074;stroke-linecap:butt;stroke-linejoin:round;stroke-miterlimit:4;stroke-dasharray:none;stroke-dashoffset:0;stroke-opacity:1;stop-color:#000000;stop-opacity:1"
       d="m 85.9971,17.274 c 0.8923,0.0469 2.043,0.1643 2.5831,0.2818 0,0.7749 -0.2583,13.9492 -0.6575,14.9355 -0.5401,0.1644 -1.2916,0.2348 -1.9491,0.3287 l -0.0705,0.4932 c 0.681,-0.047 2.5128,-0.0939 3.1938,-0.0939 0.6105,0 3.0528,0.0469 3.4755,0.0939 L 92.502,32.82 C 92.0558,32.7731 90.2945,32.6087 89.9423,32.4913 89.637,31.6459 89.3552,19.317 89.4256,18.8474 c 0.775,0.8923 5.2369,6.3405 5.5656,6.6928 0.5402,0.6105 7.0448,8.1957 7.7498,8.8532 0.141,-0.9393 0.329,-10.8024 0.399,-11.9061 0.047,-0.7515 0.164,-4.0626 0.446,-4.9785 0.634,-0.0939 1.48,-0.2818 1.785,-0.3288 l 0.094,-0.4931 c -0.493,0.0469 -2.442,0.0939 -2.959,0.0939 -0.517,0 -3.0529,-0.047 -3.4991,-0.0939 l 0.1174,0.4931 c 0.6576,0.047 1.9017,0.2349 2.3717,0.3288 0.47,1.2211 0.493,9.4638 0.493,12.0705 -0.751,-0.634 -4.485,-5.1664 -5.0956,-5.8239 -0.3992,-0.4227 -5.1194,-6.3405 -5.636,-7.139 -1.8318,0.094 -4.0392,0.1174 -5.3543,0.1644 z" />
    <path
       id="path1048"
       style="font-style:normal;font-variant:normal;font-weight:bold;font-stretch:normal;font-size:42.6344px;line-height:1.25;font-family:'Charlemagne Std';-inkscape-font-specification:'Charlemagne Std, Bold';font-variant-ligatures:normal;font-variant-caps:normal;font-variant-numeric:normal;font-feature-settings:normal;text-align:start;letter-spacing:0px;word-spacing:0px;writing-mode:lr-tb;text-anchor:start;display:inline;fill:#0b6acb;fill-opacity:1;stroke:none;stroke-width:0.587087"
       d="m 85.9971,17.274 c 0.8923,0.0469 2.043,0.1643 2.5831,0.2818 0,0.7749 -0.2583,13.9492 -0.6575,14.9355 -0.5401,0.1644 -1.2916,0.2348 -1.9491,0.3287 l -0.0705,0.4932 c 0.681,-0.047 2.5128,-0.0939 3.1938,-0.0939 0.6105,0 3.0528,0.0469 3.4755,0.0939 L 92.502,32.82 C 92.0558,32.7731 90.2945,32.6087 89.9423,32.4913 89.637,31.6459 89.3552,19.317 89.4256,18.8474 c 0.775,0.8923 5.2369,6.3405 5.5656,6.6928 0.5402,0.6105 7.0448,8.1957 7.7498,8.8532 0.141,-0.9393 0.329,-10.8024 0.399,-11.9061 0.047,-0.7515 0.164,-4.0626 0.446,-4.9785 0.634,-0.0939 1.48,-0.2818 1.785,-0.3288 l 0.094,-0.4931 c -0.493,0.0469 -2.442,0.0939 -2.959,0.0939 -0.517,0 -3.0529,-0.047 -3.4991,-0.0939 l 0.1174,0.4931 c 0.6576,0.047 1.9017,0.2349 2.3717,0.3288 0.47,1.2211 0.493,9.4638 0.493,12.0705 -0.751,-0.634 -4.485,-5.1664 -5.0956,-5.8239 -0.3992,-0.4227 -5.1194,-6.3405 -5.636,-7.139 -1.8318,0.094 -4.0392,0.1174 -5.3543,0.1644 z" />
    <path
       id="path1019"
       style="font-style:normal;font-variant:normal;font-weight:bold;font-stretch:normal;font-size:42.6344px;line-height:1.25;font-family:'Charlemagne Std';-inkscape-font-specification:'Charlemagne Std, Bold';font-variant-ligatures:normal;font-variant-caps:normal;font-variant-numeric:normal;font-feature-settings:normal;text-align:start;letter-spacing:0px;word-spacing:0px;writing-mode:lr-tb;text-anchor:start;opacity:0.2;fill:#000000;fill-opacity:1;stroke:none;stroke-width:0.587087"
       d="m 99.007,16.687 0.1173,0.493 c 0.6575,0.047 1.9017,0.2348 2.3717,0.3288 0.47,1.2211 0.493,9.464 0.493,12.0706 l 0.496,0.2258 0.145,-12.1123 -0.764,-0.4984 -2.5607,-0.2667 z m -13.104,0.0939 0.094,0.493 c 0.8924,0.047 2.043,0.1644 2.5831,0.2818 0,0.775 -0.2583,13.9493 -0.6575,14.9356 l -0.2443,0.2215 -1.7209,0.2211 -0.0544,0.3792 c 0.6811,-0.047 2.5127,-0.094 3.1937,-0.094 0.6104,0 3.0514,0.047 3.4752,0.094 l -0.4116,-0.2747 -2.6466,-0.3894 -0.5465,-0.5101 0.0911,-13.4258 0.3672,0.1343 c 0.7749,0.8924 5.237,6.3405 5.5658,6.6927 0.5401,0.6106 7.0447,8.1959 7.7497,8.8534 l -0.89,-3.1836 -11.4307,-13.4882 -1.4531,-0.6573 -2.6961,-0.091 z m 19.131,0.2107 -1.675,0.2004 0.227,0.3168 c 0.634,-0.094 1.48,-0.2818 1.785,-0.3288 z" />
    <path
       d="m 91.2574,16.6164 c -1.8317,0.0939 -4.0393,0.1176 -5.3544,0.1645 l 0.3681,0.1925 2.6961,0.091 1.4531,0.6571 11.4307,13.4884 c 0.096,-1.1301 0.096,-1.1301 0,0 l 0.89,3.1836 c 0.14,-0.9393 0.328,-10.8024 0.399,-11.9061 0.047,-0.7515 0.164,-4.0628 0.446,-4.9786 l -0.227,-0.3168 1.675,-0.2004 0.337,0.1884 0.094,-0.493 c -0.493,0.047 -2.443,0.0939 -2.959,0.0939 -0.517,0 -3.0528,-0.0469 -3.499,-0.0939 l 0.2983,0.2408 2.5607,0.2667 0.764,0.4984 -0.145,12.1123 -0.496,-0.2258 c -0.751,-0.634 -4.4852,-5.1664 -5.0957,-5.824 -0.3993,-0.4227 -5.1193,-6.3405 -5.6359,-7.139 z m -2.1991,2.0967 -0.0911,13.4258 0.5465,0.5101 2.6466,0.3894 0.4116,0.2747 h 5e-4 l -0.0705,-0.493 C 92.0557,32.7731 90.2943,32.6087 89.9421,32.4913 89.6368,31.6459 89.355,19.3171 89.4255,18.8474 Z m -1.1357,13.7782 c -0.5402,0.1644 -1.2914,0.2348 -1.949,0.3288 l -0.0162,0.1138 1.7209,-0.2211 z"
       style="display:inline;opacity:0.3;fill:#ffffff;fill-opacity:1;stroke:none;stroke-width:0.145735;stroke-linecap:butt;stroke-linejoin:miter;stroke-opacity:1"
       id="path1017" />
  </g>
  <g
     id="g1118"
     inkscape:label="I">
    <path
       d="m 79.7879,10.8932 -2.4394,2.9199 2.434,2.9648 C 78.0417,16.7713 76.1818,16.7297 75.771,16.6865 l 0.1173,0.4933 c 0.4462,0.0469 1.9962,0.2348 2.4658,0.3287 0.094,0.7985 0.1173,5.19 0.1173,5.9649 v 1.3854 c 0,2.3013 -0.0233,6.646 -0.1173,7.6323 -0.4931,0.0939 -2.0899,0.3052 -2.4891,0.3287 l -0.094,0.493 c 0.7045,-0.047 2.8649,-0.0939 3.6633,-0.0939 1.456,0 3.8984,0.047 4.4151,0.0939 l -0.1176,-0.493 C 83.2621,32.7728 81.8531,32.632 81.266,32.4911 81.1721,32.0214 81.1487,28.0995 81.1487,25.0466 v -1.4559 c 0,-2.8885 0.0233,-5.6125 0.1173,-6.0822 0.8454,-0.0939 1.9961,-0.2818 2.4658,-0.3287 l 0.1176,-0.4933 c -0.3992,0.047 -2.419,0.0939 -3.6166,0.0939 -0.1439,0 -0.2929,-0.002 -0.4395,-0.0026 l 2.4786,-2.9648 z"
       style="font-style:normal;font-variant:normal;font-weight:bold;font-stretch:normal;font-size:42.6344px;line-height:1.25;font-family:'Charlemagne Std';-inkscape-font-specification:'Charlemagne Std, Bold';font-variant-ligatures:normal;font-variant-caps:normal;font-variant-numeric:normal;font-feature-settings:normal;font-variation-settings:normal;text-align:start;letter-spacing:0px;word-spacing:0px;writing-mode:lr-tb;text-anchor:start;display:inline;opacity:1;vector-effect:none;fill:none;fill-opacity:1;stroke:#000000;stroke-width:0.510073;stroke-linecap:butt;stroke-linejoin:round;stroke-miterlimit:4;stroke-dasharray:none;stroke-dashoffset:0;stroke-opacity:1;stop-color:#000000;stop-opacity:1"
       id="path1370" />
    <path
       d="m 79.7879,10.8932 -2.4394,2.9199 2.434,2.9648 C 78.0417,16.7713 76.1818,16.7297 75.771,16.6865 l 0.1173,0.4933 c 0.4462,0.0469 1.9962,0.2348 2.4658,0.3287 0.094,0.7985 0.1173,5.19 0.1173,5.9649 v 1.3854 c 0,2.3013 -0.0233,6.646 -0.1173,7.6323 -0.4931,0.0939 -2.0899,0.3052 -2.4891,0.3287 l -0.094,0.493 c 0.7045,-0.047 2.8649,-0.0939 3.6633,-0.0939 1.456,0 3.8984,0.047 4.4151,0.0939 l -0.1176,-0.493 C 83.2621,32.7728 81.8531,32.632 81.266,32.4911 81.1721,32.0214 81.1487,28.0995 81.1487,25.0466 v -1.4559 c 0,-2.8885 0.0233,-5.6125 0.1173,-6.0822 0.8454,-0.0939 1.9961,-0.2818 2.4658,-0.3287 l 0.1176,-0.4933 c -0.3992,0.047 -2.419,0.0939 -3.6166,0.0939 -0.1439,0 -0.2929,-0.002 -0.4395,-0.0026 l 2.4786,-2.9648 z"
       style="font-style:normal;font-variant:normal;font-weight:bold;font-stretch:normal;font-size:42.6344px;line-height:1.25;font-family:'Charlemagne Std';-inkscape-font-specification:'Charlemagne Std, Bold';font-variant-ligatures:normal;font-variant-caps:normal;font-variant-numeric:normal;font-feature-settings:normal;text-align:start;letter-spacing:0px;word-spacing:0px;writing-mode:lr-tb;text-anchor:start;display:inline;opacity:1;fill:#0b6acb;fill-opacity:1;stroke:none;stroke-width:0.587087"
       id="path1065" />
    <path
       id="path3207"
       style="font-style:normal;font-variant:normal;font-weight:bold;font-stretch:normal;font-size:42.6344px;line-height:1.25;font-family:'Charlemagne Std';-inkscape-font-specification:'Charlemagne Std, Bold';font-variant-ligatures:normal;font-variant-caps:normal;font-variant-numeric:normal;font-feature-settings:normal;text-align:start;letter-spacing:0px;word-spacing:0px;writing-mode:lr-tb;text-anchor:start;display:inline;opacity:0.2;fill:#000000;fill-opacity:1;stroke:none;stroke-width:0.587087"
       d="m 79.7879,10.8934 -2.4394,2.9199 2.4337,2.9645 c 0.0019,10e-5 0.0038,2e-4 0.0057,3e-4 v -2.9648 z m -4.0169,5.7933 v 3e-4 l 6e-4,-3e-4 z m 0,3e-4 0.1173,0.493 c 0.4462,0.0469 1.9962,0.2348 2.4658,0.3287 0.094,0.7985 0.1173,5.19 0.1173,5.9649 v 1.3854 c 0,2.3013 -0.0233,6.646 -0.1173,7.6323 l -0.3697,0.2314 -2.1476,0.2453 -0.0658,0.345 c 0.7045,-0.047 2.8649,-0.0939 3.6633,-0.0939 1.4558,0 3.8977,0.047 4.4148,0.0939 l -0.353,-0.2653 -2.6904,-0.4201 -0.818,-0.7352 -0.0066,-14.1599 -0.949,-0.5497 -2.936,-0.2849 z m 7.6079,0.3145 -2.4391,0.2061 0.3262,0.3011 c 0.8454,-0.0939 1.9961,-0.2818 2.4658,-0.3287 z" />
    <path
       d="m 79.7879,13.8131 v 2.9713 l 2.484,-2.9713 z"
       style="display:inline;opacity:0.05;fill:#000000;fill-opacity:1;stroke:none;stroke-width:0.145735;stroke-linecap:butt;stroke-linejoin:miter;stroke-opacity:1"
       id="path1145" />
    <path
       id="path3175"
       style="font-style:normal;font-variant:normal;font-weight:bold;font-stretch:normal;font-size:42.6344px;line-height:1.25;font-family:'Charlemagne Std';-inkscape-font-specification:'Charlemagne Std, Bold';font-variant-ligatures:normal;font-variant-caps:normal;font-variant-numeric:normal;font-feature-settings:normal;text-align:start;letter-spacing:0px;word-spacing:0px;writing-mode:lr-tb;text-anchor:start;display:inline;opacity:0.3;fill:#ffffff;fill-opacity:1;stroke:none;stroke-width:0.587087"
       d="m 79.7879,10.8934 v 2.9199 h 2.484 z m -4.0163,5.7933 -6e-4,3e-4 0.3251,0.2109 2.936,0.2849 0.949,0.5497 0.0066,14.1599 0.818,0.7352 2.6904,0.4201 0.353,0.2653 h 3e-4 L 83.7318,32.82 C 83.2621,32.7731 81.8531,32.6322 81.266,32.4913 81.172,32.0216 81.1487,28.0997 81.1487,25.0468 v -1.4559 c 0,-2.8885 0.0233,-5.6125 0.1173,-6.0822 l -0.3262,-0.3011 2.4391,-0.2061 0.3529,0.1785 0.1176,-0.4933 c -0.3993,0.047 -2.419,0.0939 -3.6167,0.0939 -0.1438,0 -0.2929,-0.002 -0.4394,-0.0025 -0.0018,0 -0.0037,0 -0.0054,0 -0.0019,-10e-5 -0.0038,-2e-4 -0.0057,-3e-4 l 2e-4,3e-4 c -1.7398,-0.0066 -3.5986,-0.0482 -4.0105,-0.0914 z m 2.5825,15.8046 C 77.861,32.5852 76.2642,32.7965 75.865,32.82 l -0.0282,0.148 2.1476,-0.2453 z" />
  </g>
  <g
     id="g1044"
     inkscape:label="M">
    <path
       id="path1372"
       style="-inkscape-font-specification:'Charlemagne Std, Bold';display:inline;fill:none;fill-opacity:1;font-family:'Charlemagne Std';font-feature-settings:normal;font-size:42.6344px;font-stretch:normal;font-style:normal;font-variant:normal;font-variant-caps:normal;font-variant-ligatures:normal;font-variant-numeric:normal;font-variation-settings:normal;font-weight:bold;letter-spacing:0px;line-height:1.25;opacity:1;stop-color:#000000;stop-opacity:1;stroke:#000000;stroke-dasharray:none;stroke-dashoffset:0;stroke-linecap:butt;stroke-linejoin:round;stroke-miterlimit:4;stroke-opacity:1;stroke-width:0.510074120062;text-align:start;text-anchor:start;vector-effect:none;word-spacing:0px;writing-mode:lr-tb"
       d="M 55.7268 32.82 C 55.3746 32.7731 54.0595 32.5852 53.6368 32.4913 C 53.5429 29.4619 54.9284 22.9335 55.539 19.3405 L 55.6329 19.3405 C 55.9147 20.2329 60.3296 31.9511 60.9871 33.4071 C 61.6916 32.0686 66.3179 20.7965 66.9519 19.364 L 67.0459 19.364 C 67.3277 21.1018 69.3707 31.6693 69.4177 32.5382 C 68.948 32.5852 67.1633 32.7966 66.8345 32.82 L 66.7876 33.3132 C 67.4686 33.2662 70.0518 33.2193 71.132 33.2193 C 72.2357 33.2193 73.6447 33.2662 74.4432 33.3132 L 74.3258 32.82 C 73.9031 32.7496 72.9637 32.6322 72.3766 32.4913 C 71.9774 31.0118 69.7465 20.1389 69.3003 17.5088 C 69.7934 17.3914 70.9441 17.227 71.2729 17.18 L 71.3434 16.6869 C 70.8032 16.7338 68.8306 16.7808 68.0791 16.7808 C 67.2572 16.7808 65.6603 16.7338 64.9089 16.6869 L 65.0263 17.18 C 65.449 17.2505 66.177 17.3444 66.6232 17.5088 C 66.5762 18.0489 62.5136 27.7711 61.8325 29.1096 C 61.1046 27.3249 58.2396 19.6458 57.5585 17.5088 C 58.0047 17.4149 58.6623 17.2505 59.3198 17.18 L 59.4137 16.6869 C 58.7562 16.7338 56.901 16.7808 55.8912 16.7808 C 54.6466 16.7808 52.8149 16.7338 52.5096 16.6869 L 52.6505 17.18 L 54.9754 17.5088 C 54.6231 19.4344 52.0634 31.0353 51.5468 32.5147 C 51.0301 32.6557 50.2787 32.7496 49.8794 32.82 L 49.7151 33.3132 C 50.49 33.2662 51.6877 33.2193 52.3217 33.2193 C 52.7679 33.2193 55.492 33.2662 55.8208 33.3132 Z" />
    <path
       id="path1044"
       style="-inkscape-font-specification:'Charlemagne Std, Bold';display:inline;fill:#0b6acb;fill-opacity:1;font-family:'Charlemagne Std';font-feature-settings:normal;font-size:42.6344px;font-stretch:normal;font-style:normal;font-variant:normal;font-variant-caps:normal;font-variant-ligatures:normal;font-variant-numeric:normal;font-weight:bold;letter-spacing:0px;line-height:1.25;stroke:none;stroke-width:0.5870874124600001;text-align:start;text-anchor:start;word-spacing:0px;writing-mode:lr-tb"
       d="M 55.7268 32.82 C 55.3746 32.7731 54.0595 32.5852 53.6368 32.4913 C 53.5429 29.4619 54.9284 22.9335 55.539 19.3405 L 55.6329 19.3405 C 55.9147 20.2329 60.3296 31.9511 60.9871 33.4071 C 61.6916 32.0686 66.3179 20.7965 66.9519 19.364 L 67.0459 19.364 C 67.3277 21.1018 69.3707 31.6693 69.4177 32.5382 C 68.948 32.5852 67.1633 32.7966 66.8345 32.82 L 66.7876 33.3132 C 67.4686 33.2662 70.0518 33.2193 71.132 33.2193 C 72.2357 33.2193 73.6447 33.2662 74.4432 33.3132 L 74.3258 32.82 C 73.9031 32.7496 72.9637 32.6322 72.3766 32.4913 C 71.9774 31.0118 69.7465 20.1389 69.3003 17.5088 C 69.7934 17.3914 70.9441 17.227 71.2729 17.18 L 71.3434 16.6869 C 70.8032 16.7338 68.8306 16.7808 68.0791 16.7808 C 67.2572 16.7808 65.6603 16.7338 64.9089 16.6869 L 65.0263 17.18 C 65.449 17.2505 66.177 17.3444 66.6232 17.5088 C 66.5762 18.0489 62.5136 27.7711 61.8325 29.1096 C 61.1046 27.3249 58.2396 19.6458 57.5585 17.5088 C 58.0047 17.4149 58.6623 17.2505 59.3198 17.18 L 59.4137 16.6869 C 58.7562 16.7338 56.901 16.7808 55.8912 16.7808 C 54.6466 16.7808 52.8149 16.7338 52.5096 16.6869 L 52.6505 17.18 L 54.9754 17.5088 C 54.6231 19.4344 52.0634 31.0353 51.5468 32.5147 C 51.0301 32.6557 50.2787 32.7496 49.8794 32.82 L 49.7151 33.3132 C 50.49 33.2662 51.6877 33.2193 52.3217 33.2193 C 52.7679 33.2193 55.492 33.2662 55.8208 33.3132 Z" />
    <path
       id="path3137"
       style="-inkscape-font-specification:'Charlemagne Std, Bold';display:inline;fill:#000000;fill-opacity:1;font-family:'Charlemagne Std';font-feature-settings:normal;font-size:42.6344px;font-stretch:normal;font-style:normal;font-variant:normal;font-variant-caps:normal;font-variant-ligatures:normal;font-variant-numeric:normal;font-weight:bold;letter-spacing:0px;line-height:1.25;opacity:0.2;stroke:none;stroke-width:0.58708707445483;text-align:start;text-anchor:start;word-spacing:0px;writing-mode:lr-tb"
       d="M 52.5095 16.687 L 52.6504 17.18 L 54.9753 17.5088 C 54.623 19.4344 52.0635 31.0352 51.5468 32.5146 L 51.5465 32.5146 L 51.5462 32.5149 L 51.2004 32.7486 L 49.8458 32.9208 L 49.7152 33.3131 C 50.4901 33.2661 51.6875 33.2191 52.3216 33.2191 C 52.7677 33.2191 55.4909 33.2661 55.8204 33.3131 L 55.5639 33.0751 L 53.4676 32.7842 L 52.6393 32.0393 L 55.1595 19.1859 L 55.5386 19.3404 L 55.5386 19.3413 L 55.5389 19.3404 L 55.6328 19.3404 C 55.9146 20.2327 60.3287 31.9487 60.9869 33.4064 L 61.2351 29.9503 L 56.4176 17.8418 L 55.5027 17.1848 L 52.7471 16.8686 Z M 64.9089 16.6873 L 65.0262 17.18 C 65.4489 17.2505 66.1768 17.3444 66.623 17.5088 C 66.5761 18.0489 62.5136 27.771 61.8325 29.1095 L 61.8325 29.1098 L 62.1624 29.3449 L 66.6466 19.2277 L 66.9518 19.364 L 67.0457 19.364 C 67.3275 21.1018 69.3706 31.6694 69.4176 32.5383 L 69.4173 32.5383 L 69.417 32.5386 L 69.0444 32.754 L 66.8245 32.9254 L 66.7875 33.3131 C 67.4685 33.2661 70.0517 33.2191 71.132 33.2191 C 72.2356 33.2191 73.6444 33.2661 74.4429 33.3131 L 74.0649 33.0449 L 72.0357 32.7546 L 70.9686 31.8748 L 68.2423 18.0223 L 67.1348 17.2236 L 65.1528 16.8504 Z M 71.0096 16.9961 L 68.9602 17.1328 L 69.3001 17.5088 L 69.3003 17.5091 L 69.3003 17.5088 C 69.7934 17.3914 70.9436 17.227 71.2726 17.18 Z M 59.0923 17.001 L 57.3042 17.1547 L 57.5584 17.5088 C 58.0045 17.4148 58.662 17.2505 59.3195 17.18 Z" />
    <path
       id="path1005"
       style="-inkscape-font-specification:'Charlemagne Std, Bold';display:inline;fill:#ffffff;fill-opacity:1;font-family:'Charlemagne Std';font-feature-settings:normal;font-size:42.6344px;font-stretch:normal;font-style:normal;font-variant:normal;font-variant-caps:normal;font-variant-ligatures:normal;font-variant-numeric:normal;font-weight:bold;letter-spacing:0px;line-height:1.25;opacity:0.3;stroke:none;stroke-width:0.5870874124600001;text-align:start;text-anchor:start;word-spacing:0px;writing-mode:lr-tb"
       d="M 52.5096 16.687 L 52.7473 16.8686 L 55.5029 17.1849 L 56.4177 17.8418 L 61.2352 29.9504 L 60.987 33.407 C 61.6915 32.0685 66.3179 20.7966 66.9519 19.3641 L 66.6468 19.2277 L 62.1626 29.345 L 61.8324 29.1096 C 61.1044 27.3248 58.2396 19.6458 57.5585 17.5088 L 57.3044 17.1547 L 59.0925 17.001 L 59.3196 17.18 L 59.4135 16.687 C 58.756 16.734 56.9009 16.781 55.8911 16.781 C 54.6465 16.781 52.8149 16.734 52.5096 16.687 Z M 64.9088 16.687 L 65.153 16.8504 L 67.135 17.2236 L 68.2425 18.0223 L 70.9688 31.8748 L 72.0359 32.7547 L 74.0651 33.045 L 74.4431 33.3131 L 74.3255 32.8201 C 73.9028 32.7497 72.9637 32.6323 72.3766 32.4914 C 71.9774 31.0119 69.7464 20.1389 69.3002 17.5088 L 68.9603 17.1328 L 71.0098 16.9962 L 71.2728 17.18 L 71.3433 16.687 C 70.8032 16.734 68.8306 16.781 68.0791 16.781 C 67.2572 16.781 65.6603 16.734 64.9088 16.687 Z M 55.1596 19.1859 L 52.6394 32.0393 L 53.4677 32.7843 L 55.5641 33.0752 L 55.8205 33.3131 L 55.7266 32.8201 C 55.3744 32.7732 54.0595 32.5853 53.6368 32.4914 C 53.5428 29.462 54.9282 22.9334 55.5387 19.3405 Z M 51.5467 32.5147 C 51.03 32.6556 50.2785 32.7497 49.8793 32.8201 L 49.8457 32.9209 L 51.2006 32.7487 Z M 69.4175 32.5383 C 68.9478 32.5853 67.1631 32.7966 66.8344 32.8201 L 66.8244 32.9254 L 69.0446 32.7541 Z" />
  </g>
  <g
     id="g1144"
     inkscape:label="dice 1">
    <path
       id="path1374"
       style="fill:none;fill-opacity:1;font-variation-settings:normal;opacity:1;stop-color:#000000;stop-opacity:1;stroke:#000000;stroke-dasharray:none;stroke-dashoffset:0;stroke-linecap:butt;stroke-linejoin:round;stroke-miterlimit:4;stroke-opacity:1;stroke-width:0.5100738655723214;vector-effect:none"
       d="M 38.9637 15.4342 C 38.9018 15.4334 38.8395 15.4337 38.7771 15.4351 C 37.6784 15.46 36.5141 15.8233 35.7579 16.4374 L 31.6189 19.7982 C 31.4072 19.9701 31.2392 20.1495 31.113 20.3312 L 31.1124 20.3319 C 30.5364 21.0936 29.9481 22.3601 29.8445 23.2973 C 29.8209 23.4773 29.8233 23.6765 29.8557 23.8935 L 30.5473 28.5259 C 30.7308 29.7549 31.8758 31.2061 33.1496 31.81 L 38.138 34.1749 C 38.1428 34.1772 38.1474 34.1792 38.1521 34.1815 C 38.159 34.1847 38.1658 34.1874 38.1726 34.1905 C 38.2112 34.2084 38.2497 34.226 38.2878 34.2422 C 38.2997 34.2473 38.3113 34.2518 38.3232 34.2567 C 38.3302 34.2599 38.3364 34.2624 38.3436 34.2658 C 39.3705 34.7572 40.9277 34.6107 41.9932 34.0823 C 42.2471 33.9701 42.5202 33.7787 42.7996 33.5052 L 46.6093 29.777 C 47.6077 28.7999 48.3604 26.9955 48.3124 25.6933 L 48.1293 20.72 C 48.1136 20.2932 48.0217 19.9578 47.8725 19.7219 L 47.8721 19.7211 C 47.5524 19.0329 46.9692 18.3144 46.3327 17.8181 C 46.1063 17.596 45.7828 17.4088 45.368 17.2761 L 40.1901 15.6193 C 39.8157 15.4996 39.3971 15.4397 38.9637 15.4342 Z" />
    <path
       id="path1124"
       style="display:inline;fill:#0b6acb;fill-opacity:1;opacity:1;stroke:none;stroke-opacity:1;stroke-width:0.023560668813171908"
       d="M 38.9637 15.4342 C 38.9018 15.4334 38.8395 15.4337 38.7771 15.4351 C 37.6784 15.46 36.5141 15.8233 35.7579 16.4374 L 31.6189 19.7982 C 31.4072 19.9701 31.2392 20.1495 31.113 20.3312 L 31.1124 20.3319 C 30.5364 21.0936 29.9481 22.3601 29.8445 23.2973 C 29.8209 23.4773 29.8233 23.6765 29.8557 23.8935 L 30.5473 28.5259 C 30.7308 29.7549 31.8758 31.2061 33.1496 31.81 L 38.138 34.1749 C 38.1428 34.1772 38.1474 34.1792 38.1521 34.1815 C 38.159 34.1847 38.1658 34.1874 38.1726 34.1905 C 38.2112 34.2084 38.2497 34.226 38.2878 34.2422 C 38.2997 34.2473 38.3113 34.2518 38.3232 34.2567 C 38.3302 34.2599 38.3364 34.2624 38.3436 34.2658 C 39.3705 34.7572 40.9277 34.6107 41.9932 34.0823 C 42.2471 33.9701 42.5202 33.7787 42.7996 33.5052 L 46.6093 29.777 C 47.6077 28.7999 48.3604 26.9955 48.3124 25.6933 L 48.1293 20.72 C 48.1136 20.2932 48.0217 19.9578 47.8725 19.7219 L 47.8721 19.7211 C 47.5524 19.0329 46.9692 18.3144 46.3327 17.8181 C 46.1063 17.596 45.7828 17.4088 45.368 17.2761 L 40.1901 15.6193 C 39.8157 15.4996 39.3971 15.4397 38.9637 15.4342 Z M 47.1415 19.3202 C 47.1437 19.3201 47.1458 19.3205 47.1481 19.3204 C 47.1449 19.3205 47.1418 19.3204 47.1386 19.3206 C 47.1396 19.3205 47.1406 19.3203 47.1415 19.3202 Z M 31.0919 22.2355 C 31.0981 22.2357 31.1047 22.2367 31.111 22.2369 C 31.1004 22.2365 31.0898 22.236 31.0794 22.2358 C 31.0837 22.2359 31.0876 22.2354 31.0919 22.2355 Z" />
    <path
       style="display:inline;fill:#000000;fill-opacity:1;opacity:0.2;stroke:none;stroke-opacity:1;stroke-width:0.023560695571599996"
       d="M 31.8534 22.3951 L 37.038 24.3283 C 38.5669 24.8983 39.9493 26.5435 40.0893 27.9796 L 40.583 33.0435 C 40.7135 34.382 39.6035 34.8698 38.1381 34.175 L 33.1496 31.81 C 31.8758 31.2061 30.7308 29.7549 30.5473 28.526 L 29.8558 23.8935 C 29.6604 22.5848 30.5343 21.9033 31.8534 22.3951 Z"
       id="path5140" />
    <path
       style="display:inline;fill:#ffffff;fill-opacity:1;opacity:0.9;stroke:none;stroke-opacity:1;stroke-width:0.027718442671699997"
       d="M 32.6751 25.17 C 32.4803 25.1737 32.3635 25.3184 32.3958 25.5539 C 32.4387 25.8668 32.7291 26.2255 33.0465 26.3565 C 33.3662 26.4885 33.5936 26.3404 33.5521 26.0241 C 33.5104 25.7067 33.2144 25.3437 32.8933 25.2151 C 32.8136 25.1832 32.74 25.1687 32.6751 25.17 Z M 36.337 26.6385 C 36.1233 26.6381 35.9914 26.7846 36.0204 27.028 C 36.0588 27.3514 36.3671 27.7269 36.7114 27.8691 C 37.0584 28.0123 37.3118 27.865 37.2751 27.5381 C 37.2382 27.2101 36.9237 26.8292 36.5751 26.6896 C 36.4886 26.655 36.4082 26.6386 36.337 26.6385 Z M 33.141 28.6004 C 32.9484 28.5946 32.8326 28.7275 32.8637 28.9546 C 32.9051 29.2564 33.1909 29.6136 33.5042 29.7543 C 33.8197 29.896 34.0449 29.7652 34.0049 29.4604 C 33.9647 29.1545 33.6735 28.7927 33.3566 28.6541 C 33.2779 28.6197 33.2052 28.6024 33.141 28.6004 Z M 36.7508 30.1807 C 36.54 30.1701 36.4096 30.3042 36.4374 30.5384 C 36.4744 30.8498 36.7774 31.2239 37.1168 31.3763 C 37.4586 31.5297 37.7092 31.4009 37.6738 31.0863 C 37.6384 30.7706 37.3291 30.3913 36.9856 30.241 C 36.9004 30.2038 36.8211 30.1842 36.7508 30.1807 Z"
       id="path5144" />
    <path
       id="path5156"
       d="M 41.9871 23.4703 L 46.1066 19.8314 C 47.1827 18.8809 48.0768 19.296 48.1293 20.72 L 48.3125 25.6934 C 48.3604 26.9955 47.6078 28.8 46.6093 29.7771 L 42.7996 33.5052 C 41.7099 34.5716 40.7154 34.4008 40.5866 33.0799 L 40.0931 28.0184 C 39.9514 26.5644 40.8048 24.5146 41.9871 23.4703 Z"
       style="display:inline;fill:#ffffff;fill-opacity:1;opacity:0.2;stroke:none;stroke-opacity:1;stroke-width:0.023560695571599996" />
    <path
       style="display:inline;fill:#ffffff;fill-opacity:1;opacity:0.9;stroke:none;stroke-opacity:1;stroke-width:0.027718442671699997"
       d="M 45.9554 22.9305 C 45.8786 22.9319 45.788 22.9742 45.6925 23.0611 C 45.4365 23.2939 45.244 23.7558 45.2634 24.0906 C 45.2828 24.4238 45.5049 24.5026 45.7585 24.269 C 46.0109 24.0366 46.201 23.5806 46.1839 23.2483 C 46.1732 23.0395 46.0835 22.9282 45.9554 22.9305 Z M 43.0768 25.551 C 42.9946 25.5554 42.8985 25.6018 42.7979 25.6933 C 42.5283 25.9385 42.3307 26.4127 42.3578 26.7498 C 42.3847 27.0853 42.6237 27.1559 42.8907 26.9099 C 43.1565 26.6652 43.3514 26.1974 43.327 25.8627 C 43.3117 25.6525 43.2137 25.5435 43.0768 25.551 Z M 44.651 26.0604 C 44.5728 26.0653 44.4807 26.1111 44.3841 26.2007 C 44.1252 26.4407 43.9327 26.9024 43.9552 27.2297 C 43.9776 27.5553 44.2046 27.6223 44.4612 27.3816 C 44.7165 27.1421 44.9065 26.6864 44.8864 26.3614 C 44.8738 26.1573 44.7815 26.0521 44.651 26.0604 Z M 46.1458 26.5442 C 46.0712 26.5495 45.9831 26.5946 45.8901 26.6824 C 45.6412 26.9174 45.4537 27.3673 45.4721 27.6852 C 45.4905 28.0016 45.7062 28.0654 45.9529 27.8297 C 46.1985 27.5951 46.3838 27.1508 46.3676 26.835 C 46.3575 26.6368 46.2703 26.5353 46.1458 26.5442 Z M 43.3874 29.1863 C 43.3 29.1805 43.1919 29.2294 43.0779 29.337 C 42.816 29.5843 42.6237 30.0458 42.6494 30.3654 C 42.6749 30.6836 42.9067 30.7387 43.1662 30.4909 C 43.4244 30.2443 43.6142 29.7889 43.5911 29.4712 C 43.578 29.2917 43.4998 29.1938 43.3874 29.1863 Z"
       id="path5158" />
    <path
       id="path5170"
       d="M 40.1902 15.6193 L 45.368 17.2761 C 46.8358 17.7457 47.1639 18.8975 46.0702 19.8635 L 41.9484 23.5044 C 40.7841 24.5329 38.6303 24.922 37.1553 24.372 L 31.9609 22.4352 C 30.5898 21.9239 30.4518 20.746 31.619 19.7983 L 35.7578 16.4375 C 36.8578 15.5443 38.8211 15.1813 40.1902 15.6193 Z"
       style="display:inline;fill:#ffffff;fill-opacity:1;opacity:0.3;stroke:none;stroke-opacity:1;stroke-width:0.023560695571599996" />
    <path
       style="display:inline;fill:#ffffff;fill-opacity:1;opacity:0.9;stroke:none;stroke-opacity:1;stroke-width:0.027718442671699997"
       d="M 39.1001 17.0808 C 38.8143 17.0699 38.496 17.1602 38.2993 17.3232 C 38.0362 17.5413 38.0888 17.808 38.4184 17.9186 C 38.7493 18.0296 39.232 17.9408 39.4949 17.7207 C 39.757 17.5013 39.7001 17.2352 39.3694 17.1263 C 39.287 17.0991 39.1954 17.0844 39.1001 17.0808 Z M 42.8097 18.3039 C 42.5153 18.2919 42.1914 18.3841 41.9951 18.5518 C 41.7325 18.7762 41.7962 19.0515 42.1392 19.1666 C 42.4835 19.2821 42.9767 19.1919 43.2391 18.9655 C 43.5007 18.7397 43.4323 18.465 43.0882 18.3516 C 43.0025 18.3234 42.9078 18.3079 42.8097 18.3039 Z M 37.1019 18.7421 C 36.8142 18.7298 36.492 18.8215 36.2907 18.9883 C 36.0215 19.2115 36.0693 19.4858 36.3992 19.6007 C 36.7302 19.716 37.2181 19.6267 37.4872 19.4014 C 37.7555 19.1768 37.7032 18.9031 37.3723 18.7899 C 37.2898 18.7617 37.1978 18.7461 37.1019 18.7421 Z M 40.8151 20.0133 C 40.5188 19.9998 40.1906 20.0934 39.9896 20.2652 C 39.7208 20.4948 39.7797 20.7782 40.1231 20.8979 C 40.4677 21.0179 40.9666 20.927 41.2352 20.6951 C 41.5031 20.464 41.4394 20.1813 41.0949 20.0635 C 41.0091 20.0342 40.9138 20.0177 40.8151 20.0133 Z M 35.0571 20.4423 C 34.7676 20.4287 34.4412 20.5218 34.2352 20.6926 C 33.9597 20.921 34.0023 21.2032 34.3322 21.3226 C 34.6634 21.4424 35.1568 21.3524 35.4323 21.1218 C 35.7069 20.8919 35.6595 20.6104 35.3283 20.4927 C 35.2459 20.4634 35.1535 20.4469 35.0571 20.4423 Z M 38.7728 21.7636 C 38.4745 21.7487 38.1421 21.8436 37.9362 22.0195 C 37.6609 22.2547 37.7148 22.5465 38.0585 22.6709 C 38.4034 22.7957 38.9078 22.704 39.183 22.4665 C 39.4573 22.2297 39.3985 21.9387 39.0537 21.8162 C 38.9678 21.7857 38.8722 21.7686 38.7728 21.7636 Z"
       id="path5174" />
  </g>
  <g
     id="g3116"
     style="display:inline"
     inkscape:label="D">
    <path
       id="path1376"
       style="display:inline;fill:none;fill-opacity:1;stroke:#000000;stroke-width:0.510074;stroke-linecap:butt;stroke-linejoin:round;stroke-miterlimit:4;stroke-dasharray:none;stroke-opacity:1"
       d="M 15.0385,0.255042 13.0549,2.08413 13.0034,6.38646 C 10.1952,6.51527 6.56265,4.29963 6.79451,2.90845 7.02638,1.51724 9.78294,1.56894 9.78294,1.56894 5.30025,0.0747009 3.6,7.28819 3.6,7.28819 c 0.90169,2.08677 5.46166,3.14301 5.46166,3.14301 -1.05626,1.082 -3.32345,5.7192 -3.32345,5.7192 0,0 1.86205,6.6009 1.44284,12.1601 -0.46254,6.1339 -5.05154,6.8172 -5.0754,7.0332 -0.54102,0.6183 -0.86774,2.2326 -1.133439,3.3234 -0.415818,1.7072 0.191229,1.7822 1.648919,2.9369 0,0 2.05242,1.4543 1.85471,3.1946 C 4.46957,44.8537 4.52752,45.829 1.71939,46.9883 -1.08874,48.1476 0.998113,49.745 0.998113,49.745 0.250998,47.9932 1.77074,47.89 3.36802,47.0398 4.9653,46.1896 5.31078,44.9271 5.24892,44.2318 5.07406,42.2664 1.95109,40.1356 1.95109,40.1356 5.24843,37.761 13.0291,39.0276 12.9518,39.208 c -0.0773,0.1803 -0.0515,10.6143 0.2576,10.3309 0.3092,-0.2833 1.4944,-10.0734 1.4944,-10.0734 0.9532,0.1546 3.581,1.1079 3.581,1.1079 1.2366,-2.937 1.6745,-3.0914 3.7613,-5.848 2.0867,-2.7566 4.8692,-7.7547 4.7403,-14.1696 C 26.6576,14.1409 25.7044,11.4617 23.3084,8.60209 20.9125,5.74244 15.1675,6.33494 15.1675,6.33494 15.0387,4.63461 15.9918,0.873278 15.9918,0.873278 Z m -3.6582,10.691358 1.6746,0.1289 0.0515,22.7484 c 0,0 -4.79182,-0.1804 -5.66775,0.3091 0,0 5.07545,-4.8799 4.03505,-11.9842 -0.4101,-2.8005 -1.48509,-6.9665 -0.0934,-11.2022 z m 4.0892,0.2214 c 1.4595,0.0077 7.2858,0.6353 7.0918,10.1867 -0.1962,9.6588 -3.4265,13.4225 -3.4265,13.4225 0,0 -1.9065,-0.6701 -3.9417,-0.8246 l -0.0515,-22.774 c 0,0 0.1194,-0.0117 0.3279,-0.0106 z m -6.18326,1.3165 c 0,0 -0.29147,3.6798 -0.09108,4.7364 L 7.44633,18.2226 7.13665,16.4374 c 0,0 1.45735,-3.2062 2.14959,-3.9531 z m 0,5.3558 0.30969,1.8034 -1.71239,0.9473 -0.29147,-1.767 z M 9.75988,20.19 10.0149,21.8842 8.24788,22.8497 8.04749,21.1738 Z M 10.1242,22.4307 10.2335,23.961 8.46648,24.89 8.3754,23.378 Z m 0.1458,2.1132 c 0,0 -0.0729,2.9511 -2.33181,6.8496 0,0 0.71046,-2.095 0.54651,-5.9388 z" />
    <path
       id="path3066"
       style="display:inline;fill:#0b6acb;fill-opacity:1;stroke:none;stroke-width:0.145735;stroke-linecap:butt;stroke-linejoin:miter;stroke-opacity:1"
       d="M 15.0385,0.255042 13.0549,2.08413 13.0034,6.38646 C 10.1952,6.51527 6.56265,4.29963 6.79451,2.90845 7.02638,1.51724 9.78294,1.56894 9.78294,1.56894 5.30025,0.0747009 3.6,7.28819 3.6,7.28819 c 0.90169,2.08677 5.46166,3.14301 5.46166,3.14301 -1.05626,1.082 -3.32345,5.7192 -3.32345,5.7192 0,0 1.86205,6.6009 1.44284,12.1601 -0.46254,6.1339 -5.05154,6.8172 -5.0754,7.0332 -0.54102,0.6183 -0.86774,2.2326 -1.133439,3.3234 -0.415818,1.7072 0.191229,1.7822 1.648919,2.9369 0,0 2.05242,1.4543 1.85471,3.1946 C 4.46957,44.8537 4.52752,45.829 1.71939,46.9883 -1.08874,48.1476 0.998113,49.745 0.998113,49.745 0.250998,47.9932 1.77074,47.89 3.36802,47.0398 4.9653,46.1896 5.31078,44.9271 5.24892,44.2318 5.07406,42.2664 1.95109,40.1356 1.95109,40.1356 5.24843,37.761 13.0291,39.0276 12.9518,39.208 c -0.0773,0.1803 -0.0515,10.6143 0.2576,10.3309 0.3092,-0.2833 1.4944,-10.0734 1.4944,-10.0734 0.9532,0.1546 3.581,1.1079 3.581,1.1079 1.2366,-2.937 1.6745,-3.0914 3.7613,-5.848 2.0867,-2.7566 4.8692,-7.7547 4.7403,-14.1696 C 26.6576,14.1409 25.7044,11.4617 23.3084,8.60209 20.9125,5.74244 15.1675,6.33494 15.1675,6.33494 15.0387,4.63461 15.9918,0.873278 15.9918,0.873278 Z m -3.6582,10.691358 1.6746,0.1289 0.0515,22.7484 c 0,0 -4.79182,-0.1804 -5.66775,0.3091 0,0 5.07545,-4.8799 4.03505,-11.9842 -0.4101,-2.8005 -1.48509,-6.9665 -0.0934,-11.2022 z m 4.0892,0.2214 c 1.4595,0.0077 7.2858,0.6353 7.0918,10.1867 -0.1962,9.6588 -3.4265,13.4225 -3.4265,13.4225 0,0 -1.9065,-0.6701 -3.9417,-0.8246 l -0.0515,-22.774 c 0,0 0.1194,-0.0117 0.3279,-0.0106 z m -6.18326,1.3165 c 0,0 -0.29147,3.6798 -0.09108,4.7364 L 7.44633,18.2226 7.13665,16.4374 c 0,0 1.45735,-3.2062 2.14959,-3.9531 z m 0,5.3558 0.30969,1.8034 -1.71239,0.9473 -0.29147,-1.767 z M 9.75988,20.19 10.0149,21.8842 8.24788,22.8497 8.04749,21.1738 Z M 10.1242,22.4307 10.2335,23.961 8.46648,24.89 8.3754,23.378 Z m 0.1458,2.1132 c 0,0 -0.0729,2.9511 -2.33181,6.8496 0,0 0.71046,-2.095 0.54651,-5.9388 z" />
    <path
       id="path3105"
       style="display:inline;opacity:0.2;fill:#000000;fill-opacity:1;stroke:none;stroke-width:0.145735;stroke-linecap:butt;stroke-linejoin:miter;stroke-opacity:1"
       d="M 15.0384,0.255072 13.0548,2.08416 13.0033,6.38648 14.0926,7.53899 14.2218,2.07164 Z M 8.59478,1.36516 C 4.99652,1.36385 3.59993,7.28822 3.59993,7.28822 c 0.90169,2.08677 5.46166,3.14298 5.46166,3.14298 -1.05627,1.082 -3.32345,5.7193 -3.32345,5.7193 0,0 1.86205,6.6008 1.44284,12.16 -0.46254,6.1339 -5.05154,6.8172 -5.0754,7.0332 -0.54102,0.6183 -0.86774,2.2326 -1.133434,3.3234 -0.415817,1.7071 0.191234,1.7822 1.648914,2.9369 0,0 2.05242,1.4543 1.85471,3.1945 C 4.4695,44.8537 4.52745,45.8289 1.71932,46.9883 -1.0888,48.1476 0.998048,49.745 0.998048,49.745 0.191845,48.9137 1.05839,48.2708 1.05839,48.2708 l 2.9e-4,3e-4 c 0.43346,-0.4831 1.3574,-0.7247 2.30928,-1.2313 0.19145,-0.1019 0.36395,-0.2099 0.52089,-0.3219 v -3e-4 c 1.39436,-1.9772 0.87228,-3.0262 0.7523,-3.266 -0.75703,-1.5128 -3.2335,-3.2972 -3.2335,-3.2972 L 1.95103,40.1356 C 5.24837,37.761 13.029,39.0276 12.9518,39.2079 12.8756,39.3856 12.8995,49.5116 13.1957,49.544 L 14.0032,38.0739 C 12.744,37.8077 11.4504,37.6461 10.0029,37.6074 7.08855,37.5294 2.17504,38.6671 2.17504,38.6671 L 2.92051,36.2679 C 4.82499,35.5326 6.53241,33.4406 7.3808,32.2477 L 7.14028,31.6442 c 0.24246,-0.7325 0.45333,-1.8445 0.5559,-3.2047 0.41921,-5.5593 -1.35175,-12.151 -1.35175,-12.151 0,0 1.53936,-3.0503 2.67959,-4.7182 l 0.26216,0.914 c 0,0 -0.29147,3.6798 -0.09109,4.7364 l -1.74882,1.0019 0.00512,0.3521 0.14061,0.2491 1.69417,-0.9837 0.30969,1.8035 -1.71239,0.9472 0.02078,0.3558 0.14317,0.2272 1.71239,-0.9837 0.25499,1.6941 -1.76699,0.9655 -0.0168,0.3091 0.14432,0.2192 1.74877,-0.9473 0.1093,1.5303 -1.76699,0.929 -0.06831,0.3083 0.08653,0.2564 1.78527,-0.9108 c 0,0 -0.0729,2.9511 -2.33178,6.8496 l 0.26699,0.6492 C 9.59339,29.9795 11.3373,26.5092 10.6934,22.1122 10.2709,19.3144 9.57359,15.9742 9.9491,12.6514 10.0288,11.946 10.5073,9.59494 10.5073,9.59494 l 0.873,1.35146 1.6745,0.1289 0.0515,22.7484 1.0463,1.2103 -0.0654,-25.0098 1.0543,1.1542 c 0,0 0.1194,-0.0116 0.3279,-0.0106 1.4596,0.0077 7.2858,0.6353 7.0918,10.1867 -0.1962,9.6588 -3.4265,13.4225 -3.4265,13.4225 l 0.3498,1.3415 1.1115,-1.4158 c 1.8765,-3.2105 2.6679,-6.9261 2.981,-10.5966 0.2476,-3.0807 0.3371,-6.3253 -0.9387,-9.2126 C 21.4747,11.8754 18.2568,9.83462 15.0185,10.0208 11.7354,10.123 7.61139,9.26183 4.87199,7.10633 5.04845,6.53307 5.98338,4.41918 5.99347,4.46545 c 0,0 0.44431,-2.1471 1.31759,-2.32038 7.3e-4,-2.9e-4 0.00151,-1.4e-4 0.00227,-2.9e-4 h 2.9e-4 C 8.17682,1.53967 9.78287,1.56896 9.78287,1.56896 9.36262,1.42887 8.96702,1.36529 8.59478,1.36515 Z m 5.40872,36.70874 0.7002,1.3916 c 0.9532,0.1546 3.5811,1.1078 3.5811,1.1078 L 17.6406,39.1177 C 16.39,38.6819 15.2126,38.3296 14.0035,38.0739 Z" />
    <path
       id="path2954"
       style="display:inline;opacity:0.3;fill:#ffffff;stroke:none;stroke-width:0.145735;stroke-linecap:butt;stroke-linejoin:miter;stroke-opacity:1"
       d="M 15.0384,0.255072 14.2218,2.07164 14.0926,7.53899 c 0.438,0.00809 0.8672,-0.0079 1.2803,-0.04981 1.8387,-0.08068 3.7585,-0.00477 5.4668,0.74717 1.2135,0.5019 2.0277,1.58857 2.7183,2.65735 1.5566,2.4382 1.8795,5.4175 2.0092,8.2267 0.1642,2.5756 -0.0363,5.1205 -0.7639,7.5828 -0.8346,2.9019 -2.3426,5.6559 -4.2073,7.9995 l -1.1115,1.4158 c -0.7069,0.9379 -1.3591,1.926 -1.8439,2.9992 l 0.6442,1.4556 c 1.2366,-2.9369 1.6744,-3.0913 3.7612,-5.8479 2.0867,-2.7566 4.8692,-7.7547 4.7404,-14.1696 C 26.6575,14.1409 25.7043,11.4618 23.3083,8.60211 20.9124,5.74247 15.1674,6.33496 15.1674,6.33496 15.0386,4.63463 15.9917,0.873308 15.9917,0.873308 Z M 19.4845,36.1185 19.1347,34.777 c 0,0 -1.9065,-0.6701 -3.9417,-0.8246 l -0.0515,-22.774 -1.0543,-1.1542 0.0654,25.0098 -1.0463,-1.2103 c 0,0 -4.79179,-0.1804 -5.66772,0.3091 0,0 0.31063,-0.2995 0.76055,-0.8539 0.00117,-0.0014 0.00231,-0.0032 0.00341,-0.0046 0.01882,-0.0231 0.0402,-0.0513 0.05949,-0.0754 0.08763,-0.1095 0.17975,-0.2279 0.27582,-0.3555 0.0579,-0.0768 0.11673,-0.1559 0.17704,-0.2391 0.02194,-0.0303 0.04327,-0.0585 0.06547,-0.0897 8.7e-4,-0.0012 0.00194,-0.0027 0.00284,-0.0039 0.08253,-0.1157 0.16696,-0.239 0.25248,-0.3661 0.03026,-0.045 0.06083,-0.0913 0.09136,-0.1377 0.06854,-0.1042 0.13779,-0.2126 0.20722,-0.3237 0.02729,-0.0437 0.05434,-0.0853 0.08169,-0.1301 0.00131,-0.0021 0.00267,-0.0044 0.004,-0.0065 0.08466,-0.1386 0.16931,-0.2839 0.25389,-0.4324 0.20125,-0.3536 0.40056,-0.7334 0.59066,-1.1408 0.2019,-0.433 0.3932,-0.8955 0.565,-1.3851 0.0026,-0.0075 0.0053,-0.0149 0.008,-0.0225 0.0559,-0.1603 0.1099,-0.3234 0.1613,-0.4895 0.1031,-0.3329 0.196,-0.6777 0.277,-1.0327 0.0047,-0.0205 0.0091,-0.0412 0.0136,-0.0618 0.035,-0.1564 0.0675,-0.3148 0.0974,-0.4753 0.004,-0.0214 0.0083,-0.0426 0.0122,-0.0641 0.0643,-0.3541 0.1153,-0.7185 0.1518,-1.0915 0.0037,-0.0382 0.0068,-0.0767 0.0102,-0.115 0.0131,-0.1474 0.0236,-0.2962 0.0319,-0.4464 0.003,-0.0547 0.0068,-0.1091 0.0091,-0.1642 0.0019,-0.0442 0.0034,-0.0885 0.0048,-0.1329 0.0036,-0.1109 0.0058,-0.2224 0.0066,-0.3348 10e-5,-0.0239 8e-4,-0.0476 8e-4,-0.0717 0,-0.0066 -3e-4,-0.0133 -3e-4,-0.0199 0,-0.1307 -0.0024,-0.2625 -0.0065,-0.3951 C 11.6064,23.6388 11.6052,23.6066 11.604,23.5744 11.5985,23.43 11.5917,23.2847 11.5812,23.1381 11.5709,22.9928 11.5571,22.8459 11.5417,22.6986 11.5381,22.6647 11.5344,22.6307 11.5306,22.5967 11.5139,22.4482 11.4957,22.2992 11.4736,22.1487 11.428,21.837 11.3737,21.507 11.3159,21.1632 11.3088,21.1205 11.3022,21.08 11.2949,21.0369 11.291,21.0136 11.2866,20.9873 11.2826,20.964 11.2251,20.6235 11.1656,20.2732 11.1062,19.9063 11.0897,19.8046 11.0737,19.703 11.0575,19.5994 11.0445,19.5167 11.0318,19.4343 11.0191,19.3504 10.9997,19.2231 10.9812,19.0947 10.9627,18.965 10.9504,18.8784 10.9384,18.7917 10.9265,18.704 10.9086,18.5712 10.8916,18.4375 10.875,18.3023 10.8656,18.2248 10.8567,18.1469 10.8477,18.0686 10.8311,17.9237 10.8152,17.7783 10.8007,17.6309 10.7932,17.5541 10.7868,17.4766 10.78,17.3992 c -0.0133,-0.1485 -0.0259,-0.2971 -0.0365,-0.4478 -0.0052,-0.0749 -0.0091,-0.1508 -0.0136,-0.2263 -0.0095,-0.1578 -0.0185,-0.3158 -0.0245,-0.4759 -0.0023,-0.0628 -0.0029,-0.1266 -0.0046,-0.1898 -0.0455,-1.6324 0.1054,-3.3659 0.6795,-5.113 l -0.873,-1.35146 c 0,0 -0.4785,2.35106 -0.55819,3.05646 -0.3755,3.3228 0.32179,6.663 0.74429,9.4608 0.6439,4.397 -1.09999,7.8673 -2.48827,9.9305 L 7.93814,31.3935 c 0,0 0.71046,-2.095 0.5465,-5.9388 L 8.39811,25.1983 8.46643,24.89 8.37534,23.378 8.23103,23.1588 8.24782,22.8497 8.04744,21.1738 7.90426,20.9466 7.88349,20.5908 7.59202,18.8238 7.4514,18.5747 7.44629,18.2226 7.1366,16.4374 c 0,0 1.45735,-3.2062 2.1496,-3.9531 l -0.26216,-0.914 c -1.14023,1.6679 -2.67959,4.7182 -2.67959,4.7182 0,0 1.77096,6.5917 1.35175,12.151 -0.10257,1.3602 -0.31344,2.4722 -0.5559,3.2047 l 0.24052,0.6035 c -0.8484,1.1929 -2.55581,3.2849 -4.46029,4.0202 0,0 2.44283,-0.6449 4.725,-0.9894 1.7662,-0.2732 3.51147,-0.2956 5.28747,-0.2855 0.4059,0.0023 0.8133,0.0162 1.2205,0.0418 1.8083,0.1137 3.6182,0.4613 5.331,1.0837 z M 14.0926,7.53899 13.0033,6.38648 C 10.1952,6.5153 6.56258,4.29966 6.79444,2.90848 6.84926,2.57956 7.04635,2.33215 7.31362,2.14479 7.31275,2.14494 7.31194,2.14489 7.31106,2.14508 6.43778,2.31836 5.99346,4.46546 5.99346,4.46546 7.69355,6.30054 11.1048,7.4838 14.0926,7.53899 Z M 14.0032,38.0734 13.1957,49.544 c 0.0044,5e-4 0.0089,-8e-4 0.0134,-0.0048 l 3e-4,-3e-4 c 0.3091,-0.2834 1.4943,-10.0734 1.4943,-10.0734 z M 1.95102,40.1356 1.40764,40.1544 c 0,0 2.47648,1.7844 3.2335,3.2972 0.11998,0.2398 0.64207,1.2888 -0.7523,3.266 C 5.04113,45.8947 5.30329,44.8437 5.24885,44.2318 5.07399,42.2664 1.95102,40.1356 1.95102,40.1356 Z m -0.89263,8.1352 c 0,0 -0.866545,0.6429 -0.060342,1.4742 C 0.696166,49.0371 0.764781,48.5987 1.05868,48.2711 Z" />
  </g>
</svg>
