<?xml version="1.0" encoding="UTF-8" standalone="no"?>
<svg
   xmlns:dc="http://purl.org/dc/elements/1.1/"
   xmlns:cc="http://creativecommons.org/ns#"
   xmlns:rdf="http://www.w3.org/1999/02/22-rdf-syntax-ns#"
   xmlns:svg="http://www.w3.org/2000/svg"
   xmlns="http://www.w3.org/2000/svg"
   xmlns:sodipodi="http://sodipodi.sourceforge.net/DTD/sodipodi-0.dtd"
   xmlns:inkscape="http://www.inkscape.org/namespaces/inkscape"
   inkscape:version="1.0.1 (3bc2e813f5, 2020-09-07)"
   sodipodi:docname="dominionizer-logo-short.svg"
   id="svg8"
   version="1.1"
   viewBox="0 0 88.178694 90.775225"
   height="343.08746"
   width="333.2738">
  <defs
     id="defs2" />
  <sodipodi:namedview
     inkscape:guide-bbox="true"
     inkscape:document-rotation="0"
     inkscape:object-nodes="true"
     inkscape:snap-smooth-nodes="false"
     inkscape:snap-intersection-paths="false"
     inkscape:object-paths="true"
     inkscape:window-maximized="1"
     inkscape:window-y="-8"
     inkscape:window-x="-8"
     inkscape:window-height="1137"
     inkscape:window-width="3840"
     inkscape:measure-end="0,0"
     inkscape:measure-start="0,0"
     inkscape:snap-nodes="true"
     showguides="true"
     showborder="false"
     showgrid="false"
     inkscape:current-layer="svg8"
     inkscape:document-units="px"
     inkscape:cy="278.79003"
     inkscape:cx="634.91739"
     inkscape:zoom="1"
     inkscape:pageshadow="2"
     inkscape:pageopacity="0.0"
     borderopacity="1.0"
     bordercolor="#666666"
     pagecolor="#ffffff"
     id="base"
     inkscape:snap-global="true"
     units="px"
     fit-margin-top="0"
     fit-margin-left="0"
     fit-margin-right="0"
     fit-margin-bottom="0" />
  <metadata
     id="metadata5">
    <rdf:RDF>
      <cc:Work
         rdf:about="">
        <dc:format>image/svg+xml</dc:format>
        <dc:type
           rdf:resource="http://purl.org/dc/dcmitype/StillImage" />
        <dc:title></dc:title>
      </cc:Work>
    </rdf:RDF>
  </metadata>
  <g
     id="g1144"
     transform="matrix(0.63709822,0,0,0.63709822,74.569309,13.610797)"
     inkscape:label="dice 1">
    <path
       id="path1374"
       style="font-variation-settings:normal;opacity:1;vector-effect:none;fill:none;fill-opacity:1;stroke:#000000;stroke-width:5.49366;stroke-linecap:butt;stroke-linejoin:round;stroke-miterlimit:4;stroke-dasharray:none;stroke-dashoffset:0;stroke-opacity:1;stop-color:#000000;stop-opacity:1"
       d="m -22.724609,85.486328 c -0.666832,-0.0085 -1.337416,-0.0054 -2.009766,0.0098 -11.833358,0.267631 -24.372632,4.181069 -32.517578,10.794922 l -44.578127,36.19726 c -2.27964,1.85112 -4.08948,3.7837 -5.44922,5.74024 -0.002,0.003 -0.004,0.005 -0.006,0.008 -6.20426,8.20299 -12.53999,21.84395 -13.65625,31.9375 -0.25357,1.9387 -0.22776,4.08505 0.1211,6.42187 l 7.44922,49.89258 c 1.9759,13.23608 14.307844,28.86679 28.02734,35.3711 l 53.726562,25.4707 c 0.05131,0.0243 0.101111,0.0462 0.152344,0.0703 0.074,0.0347 0.146871,0.0635 0.220703,0.0977 0.415814,0.19256 0.830059,0.38178 1.240235,0.55664 0.127955,0.0545 0.253475,0.10342 0.380859,0.15625 0.07559,0.0346 0.142837,0.0605 0.220703,0.0976 11.059749,5.29259 27.8314575,3.71422 39.3066409,-1.97656 2.7349351,-1.20862 5.6757981,-3.26953 8.6855471,-6.21484 l 41.03125,-40.1543 c 10.753625,-10.52335 18.860336,-29.95762 18.34375,-43.98242 l -1.972656,-53.56445 c -0.169315,-4.59655 -1.159053,-8.20891 -2.765626,-10.75 -0.0016,-0.002 -0.0023,-0.005 -0.0039,-0.008 -3.443885,-7.41304 -9.725131,-15.15142 -16.580078,-20.49609 -2.438329,-2.39202 -5.923082,-4.40841 -10.390625,-5.83789 L -9.515625,87.480469 c -4.031897,-1.290085 -8.54116,-1.93458 -13.208984,-1.994141 z"
       transform="scale(0.26458333)"
       inkscape:label="border"
       sodipodi:nodetypes="scccsccccccsssccccccccccccs" />
    <path
       id="path1124"
       style="display:inline;opacity:1;fill:#0b6acb;fill-opacity:1;stroke:none;stroke-width:0.253756;stroke-opacity:1"
       d="m -22.724609,85.486328 c -0.666832,-0.0085 -1.337416,-0.0054 -2.009766,0.0098 -11.833358,0.267631 -24.372632,4.181069 -32.517578,10.794922 l -44.578127,36.19726 c -2.27964,1.85112 -4.08948,3.7837 -5.44922,5.74024 -0.002,0.003 -0.004,0.005 -0.006,0.008 -6.20426,8.20299 -12.53999,21.84395 -13.65625,31.9375 -0.25357,1.9387 -0.22776,4.08505 0.1211,6.42187 l 7.44922,49.89258 c 1.9759,13.23608 14.307844,28.86679 28.02734,35.3711 l 53.726562,25.4707 c 0.05131,0.0243 0.101111,0.0462 0.152344,0.0703 0.074,0.0347 0.146871,0.0635 0.220703,0.0977 0.415814,0.19256 0.830059,0.38178 1.240235,0.55664 0.127955,0.0545 0.253475,0.10342 0.380859,0.15625 0.07559,0.0346 0.142837,0.0605 0.220703,0.0976 11.059749,5.29259 27.8314575,3.71422 39.3066409,-1.97656 2.7349351,-1.20862 5.6757981,-3.26953 8.6855471,-6.21484 l 41.03125,-40.1543 c 10.753625,-10.52335 18.860336,-29.95762 18.34375,-43.98242 l -1.972656,-53.56445 c -0.169315,-4.59655 -1.159053,-8.20891 -2.765626,-10.75 -0.0016,-0.002 -0.0023,-0.005 -0.0039,-0.008 -3.443885,-7.41304 -9.725131,-15.15142 -16.580078,-20.49609 -2.438329,-2.39202 -5.923082,-4.40841 -10.390625,-5.83789 L -9.515625,87.480469 c -4.031897,-1.290085 -8.54116,-1.93458 -13.208984,-1.994141 z m 88.078125,41.853512 c 0.02394,-10e-4 0.04643,0.003 0.07031,0.002 -0.03405,10e-4 -0.0674,3e-4 -0.101562,0.002 0.01024,-4.7e-4 0.02102,-0.003 0.03125,-0.004 z m -172.859376,31.39844 c 0.0666,0.002 0.13813,0.0134 0.20508,0.0156 -0.11333,-0.004 -0.22763,-0.01 -0.33984,-0.0117 0.046,7.4e-4 0.0885,-0.005 0.13476,-0.004 z"
       transform="scale(0.26458333)"
       inkscape:label="background" />
    <path
       inkscape:connector-curvature="0"
       style="display:inline;opacity:0.2;fill:#000000;fill-opacity:1;stroke:none;stroke-width:0.0671396;stroke-opacity:1"
       d="m -26.27439,42.454301 c 0,0 14.7744,5.508906 14.7744,5.508906 4.35668,1.624465 8.29621,6.312685 8.69518,10.404942 0,0 1.40687,14.430442 1.40687,14.430442 0.37185,3.814101 -2.79126,5.204213 -6.96723,3.224414 0,0 -14.2154,-6.739422 -14.2154,-6.739422 -3.62995,-1.720932 -6.89284,-5.856443 -7.41563,-9.35849 0,0 -1.97065,-13.200715 -1.97065,-13.200715 -0.55676,-3.729456 1.93362,-5.671631 5.69246,-4.270077 0,0 0,0 0,0"
       id="path5140"
       inkscape:label="left side" />
    <path
       inkscape:connector-curvature="0"
       style="display:inline;opacity:0.9;fill:#ffffff;fill-opacity:1;stroke:none;stroke-width:0.0789877;stroke-opacity:1"
       d="m -23.932716,50.361689 c -0.555202,0.01067 -0.887836,0.422879 -0.795814,1.09399 0.122264,0.89184 0.949616,1.913838 1.854147,2.287199 0.911093,0.376071 1.559084,-0.04588 1.440736,-0.947229 -0.118745,-0.904399 -0.962343,-1.938791 -1.877404,-2.305286 -0.227119,-0.09096 -0.436616,-0.132231 -0.621665,-0.128674 z m 10.435007,4.184758 c -0.608912,-0.0012 -0.984646,0.416517 -0.902255,1.110009 0.109458,0.921454 0.988219,1.991757 1.969373,2.396753 0.988589,0.40806 1.710796,-0.01152 1.6061,-0.943095 -0.105039,-0.934853 -1.001289,-2.020069 -1.994694,-2.41794 -0.246485,-0.09872 -0.475535,-0.145336 -0.678524,-0.145727 z m -9.107461,5.590873 c -0.548798,-0.01651 -0.87884,0.36216 -0.790125,1.009241 0.117899,0.859956 0.932365,1.878062 1.825228,2.27893 0.89916,0.403723 1.540828,0.03103 1.426766,-0.837675 -0.114432,-0.871593 -0.944351,-1.902621 -1.847427,-2.297534 -0.224155,-0.09803 -0.431482,-0.14746 -0.614442,-0.152962 z m 10.286736,4.503084 c -0.600816,-0.03015 -0.972291,0.351931 -0.892969,1.019576 0.105384,0.88717 0.968798,1.953284 1.935798,2.387451 0.974142,0.437388 1.6882264,0.07014 1.5874995,-0.826306 -0.1010973,-0.899545 -0.9822925,-1.980591 -1.9611185,-2.408639 -0.242914,-0.106219 -0.468947,-0.162032 -0.66921,-0.172082 z"
       id="path5144"
       inkscape:label="dots left side" />
    <path
       inkscape:connector-curvature="0"
       id="path5156"
       d="m 2.6031,45.518151 c 0,0 11.73914,-10.369357 11.73914,-10.369357 3.06661,-2.708784 5.61445,-1.525701 5.76392,2.532095 0,0 0.52204,14.172332 0.52204,14.172332 0.13668,3.710728 -2.00809,8.852751 -4.85332,11.637054 0,0 -10.85635,10.623891 -10.85635,10.623891 -3.10534,3.038857 -5.93937,2.552217 -6.30635,-1.21202 0,0 -1.40619,-14.423454 -1.40619,-14.423454 -0.40397,-4.143397 2.02812,-9.984652 5.39711,-12.960541 0,0 0,0 0,0"
       style="display:inline;opacity:0.2;fill:#ffffff;fill-opacity:1;stroke:none;stroke-width:0.0671396;stroke-opacity:1"
       inkscape:label="right side" />
    <path
       inkscape:connector-curvature="0"
       style="display:inline;opacity:0.9;fill:#ffffff;fill-opacity:1;stroke:none;stroke-width:0.0789877;stroke-opacity:1"
       d="m 13.911476,43.980167 c -0.218908,0.004 -0.477065,0.124505 -0.749308,0.37207 -0.729361,0.66325 -1.278064,1.979706 -1.222663,2.933671 0.05512,0.949452 0.688075,1.174026 1.410766,0.508496 0.719378,-0.662475 1.260927,-1.96168 1.212329,-2.908866 -0.03047,-0.594782 -0.286274,-0.912057 -0.651124,-0.905371 z m -8.2031151,7.467244 c -0.2341588,0.01278 -0.5080343,0.144904 -0.7947845,0.40566 -0.7682997,0.698668 -1.331288,2.05002 -1.2541885,3.010669 0.076682,0.955984 0.7578223,1.157058 1.5187719,0.456303 C 5.9355295,54.62259 6.4907947,53.289642 6.421495,52.335729 6.3779208,51.736649 6.098624,51.426107 5.7083609,51.447411 Z m 4.4860291,1.451591 c -0.2230439,0.01408 -0.4852698,0.144707 -0.7606772,0.399976 -0.7378383,0.683883 -1.286346,1.999669 -1.2221475,2.93212 0.063931,0.928041 0.7107423,1.118865 1.4417728,0.433049 0.7276699,-0.682664 1.2690129,-1.981192 1.2118129,-2.907316 -0.03591,-0.581556 -0.299016,-0.881295 -0.670761,-0.857829 z m 4.259688,1.378727 c -0.212743,0.01523 -0.463801,0.143778 -0.728636,0.393775 -0.709422,0.669684 -1.243743,1.951869 -1.191143,2.857706 0.05234,0.901661 0.666824,1.083327 1.369943,0.411861 0.699969,-0.66846 1.22794,-1.934561 1.181839,-2.834452 -0.02894,-0.565015 -0.277429,-0.854278 -0.632003,-0.82889 z m -7.8605006,7.529256 c -0.249084,-0.0166 -0.5571278,0.122648 -0.8821182,0.429431 -0.746289,0.704479 -1.2941141,2.019616 -1.2211129,2.930571 0.07271,0.906646 0.7334382,1.063653 1.4727793,0.357601 0.7359385,-0.70281 1.2766781,-2.00068 1.2107783,-2.905766 -0.037198,-0.511509 -0.2600775,-0.79049 -0.5803265,-0.811837 z"
       id="path5158"
       inkscape:label="dots right side" />
    <path
       inkscape:connector-curvature="0"
       id="path5170"
       d="m -2.5175,23.145809 c 0,0 14.75495,4.721138 14.75495,4.721138 4.18269,1.338335 5.11761,4.620569 2.00119,7.373353 0,0 -11.7457,10.375165 -11.7457,10.375165 -3.31798,2.930824 -9.45558,4.039576 -13.65882,2.47232 0,0 -14.80211,-5.519239 -14.80211,-5.519239 -3.90723,-1.456881 -4.30031,-4.813455 -0.97431,-7.51423 0,0 11.79425,-9.577126 11.79425,-9.577126 3.13457,-2.545331 8.72921,-3.579692 12.63055,-2.331381 0,0 0,0 0,0"
       style="display:inline;opacity:0.3;fill:#ffffff;fill-opacity:1;stroke:none;stroke-width:0.0671396;stroke-opacity:1"
       inkscape:label="top side" />
    <path
       inkscape:connector-curvature="0"
       style="display:inline;opacity:0.9;fill:#ffffff;fill-opacity:1;stroke:none;stroke-width:0.0789877;stroke-opacity:1"
       d="m -5.6237616,27.310384 c -0.8145198,-0.03092 -1.7215379,0.226242 -2.2820312,0.690914 -0.7495911,0.621441 -0.5998369,1.38142 0.3395133,1.696537 0.9427369,0.316244 2.3182791,0.06341 3.0674998,-0.56379 0.7469716,-0.625287 0.584782,-1.383466 -0.3575844,-1.693954 -0.2347648,-0.07735 -0.4959085,-0.119399 -0.7673975,-0.129707 z m 10.5709269,3.485575 c -0.8387054,-0.03416 -1.7618207,0.228422 -2.3213033,0.706416 -0.748292,0.6393 -0.5666529,1.423929 0.4108264,1.751832 0.9810406,0.329099 2.3864755,0.07227 3.1341748,-0.573092 C 6.9162447,32.03776 6.7213658,31.254905 5.7409153,30.931868 5.4966916,30.8514 5.2267346,30.807344 4.9471653,30.795959 Z m -16.2651573,1.248502 c -0.819705,-0.0348 -1.737942,0.226269 -2.311479,0.701766 -0.767107,0.635944 -0.630899,1.417692 0.309007,1.745113 0.943345,0.328608 2.333757,0.07401 3.100599,-0.567924 0.7644605,-0.639952 0.6154472,-1.419908 -0.327634,-1.742529 -0.234923,-0.08037 -0.497258,-0.124824 -0.770493,-0.136426 z m 10.58126971,3.622518 c -0.84431191,-0.03826 -1.77953451,0.228427 -2.35230451,0.717786 -0.7661011,0.654522 -0.5981965,1.462124 0.3803385,1.80299 0.9821333,0.342125 2.40368663,0.08309 3.16930612,-0.577742 C 1.2238375,36.95126 1.0423016,36.145939 0.06064191,35.810123 -0.18387013,35.726476 -0.455285,35.679732 -0.73672229,35.666979 Z M -17.145016,36.889643 c -0.824945,-0.03886 -1.754902,0.226428 -2.341986,0.713135 -0.785178,0.650959 -0.663813,1.455017 0.276463,1.795239 0.943716,0.341469 2.349632,0.08513 3.134704,-0.572058 0.782611,-0.655139 0.647462,-1.457414 -0.296122,-1.792655 -0.235029,-0.08351 -0.498104,-0.130707 -0.773059,-0.143661 z m 10.5884923,3.765145 c -0.849921,-0.04255 -1.7972881,0.228023 -2.3838429,0.729155 -0.7845689,0.670295 -0.6310312,1.501855 0.3482975,1.856217 0.9830065,0.355688 2.420276,0.09447 3.2044746,-0.582393 0.7817114,-0.674709 0.6141773,-1.503998 -0.3684588,-1.853117 -0.2447395,-0.08696 -0.5171545,-0.135678 -0.8004704,-0.149862 z"
       id="path5174"
       inkscape:label="dots top side" />
  </g>
  <g
     id="g3116"
     style="display:inline"
     inkscape:label="D"
     transform="translate(72.124435,52.825177)">
    <path
       id="path1376"
       style="display:inline;fill:none;fill-opacity:1;stroke:#000000;stroke-width:0.926042;stroke-linecap:butt;stroke-linejoin:round;stroke-miterlimit:4;stroke-dasharray:none;stroke-opacity:1"
       d="m -44.821868,-52.362168 -3.60133,3.32072 -0.09353,7.8109 c -5.098165,0.23386 -11.69313,-3.78865 -11.27218,-6.31435 0.42095,-2.52575 5.425508,-2.43189 5.425508,-2.43189 -8.138355,-2.71279 -11.225154,10.38334 -11.225154,10.38334 1.637025,3.78854 9.915673,5.70612 9.915673,5.70612 -1.917659,1.96443 -6.03374,10.38334 -6.03374,10.38334 0,0 3.380557,11.98387 2.619479,22.0766898 -0.839749,11.13606 -9.171107,12.3766802 -9.214425,12.7687302 -0.982216,1.12253 -1.575379,4.053367 -2.057755,6.033741 -0.75492,3.099285 0.347183,3.23555 2.993615,5.331974 0,0 3.726175,2.640152 3.367237,5.799645 -0.01138,0.100134 0.09382,1.870721 -5.004346,3.975468 -5.098166,2.104747 -1.309481,5.004863 -1.309481,5.004863 -1.356392,-3.180508 1.402705,-3.367846 4.30258,-4.911328 2.899874,-1.543481 3.527082,-3.835566 3.414778,-5.09788 -0.317452,-3.568208 -5.987231,-7.436755 -5.987231,-7.436755 5.986348,-4.311065 20.112224,-2.01154 19.971907,-1.684136 -0.140316,0.327406 -0.09359,19.270456 0.467672,18.755963 0.561266,-0.514493 2.713013,-18.288291 2.713013,-18.288291 1.730571,0.280633 6.501411,2.011246 6.501411,2.011246 2.245063,-5.332026 3.039977,-5.612302 6.828525,-10.61692 3.788545,-5.0046202 8.840054,-14.0787902 8.606192,-25.72505 -0.23386,-11.64625 -1.964531,-16.51032 -6.314342,-21.70203 -4.349814,-5.19171 -14.779977,-4.11603 -14.779977,-4.11603 -0.23386,-3.08696 1.49655,-9.91567 1.49655,-9.91567 z m -6.641454,19.41018 3.040124,0.23409 0.09353,41.2998098 c 0,0 -8.699557,-0.32747 -10.289811,0.56121 0,0 9.214467,-8.85953567 7.325671,-21.7573428 -0.744585,-5.084467 -2.696191,-12.647795 -0.169514,-20.337767 z m 7.423834,0.40204 c 2.649861,0.0139 13.227405,1.15334 12.875184,18.49396 -0.35618,17.5356698 -6.22081,24.36854 -6.22081,24.36854 0,0 -3.461149,-1.2164302 -7.15615,-1.4970602 l -0.09354,-41.3463198 c 0,0 0.216763,-0.0211 0.595312,-0.0191 z m -11.22567,2.39004 c 0,0 -0.529166,6.68073 -0.165364,8.59896 l -3.175,1.81901 -0.56224,-3.24115 c 0,0 2.645833,-5.82083 3.902604,-7.17682 z m 0,9.72344 0.56224,3.27421 -3.108854,1.7198 -0.529167,-3.20808 z m 0.859896,4.2664 0.463021,3.07578 -3.208073,1.75287 -0.363802,-3.04271 z m 0.661459,4.06797 0.198437,2.7781298 -3.208073,1.68671 -0.165364,-2.7450498 z m 0.264583,3.8364598 c 0,0 -0.132292,5.35781 -4.233333,12.43542 0,0 1.289843,-3.80338005 0.992187,-10.78178 z"
       sodipodi:nodetypes="cccsccccscscsscsscssccssscccccccsccsccccccccccccccccccccccccccccc"
       inkscape:label="border" />
    <path
       id="path3066"
       style="display:inline;fill:#0b6acb;fill-opacity:1;stroke:none;stroke-width:0.264583px;stroke-linecap:butt;stroke-linejoin:miter;stroke-opacity:1"
       d="m -44.821868,-52.362168 -3.60133,3.32072 -0.09353,7.8109 c -5.098165,0.23386 -11.69313,-3.78865 -11.27218,-6.31435 0.42095,-2.52575 5.425508,-2.43189 5.425508,-2.43189 -8.138355,-2.71279 -11.225154,10.38334 -11.225154,10.38334 1.637025,3.78854 9.915673,5.70612 9.915673,5.70612 -1.917659,1.96443 -6.03374,10.38334 -6.03374,10.38334 0,0 3.380557,11.98387 2.619479,22.0766898 -0.839749,11.13606 -9.171107,12.3766802 -9.214425,12.7687302 -0.982216,1.12253 -1.575379,4.053367 -2.057755,6.033741 -0.75492,3.099285 0.347183,3.23555 2.993615,5.331974 0,0 3.726175,2.640152 3.367237,5.799645 -0.01138,0.100134 0.09382,1.870721 -5.004346,3.975468 -5.098166,2.104747 -1.309481,5.004863 -1.309481,5.004863 -1.356392,-3.180508 1.402705,-3.367846 4.30258,-4.911328 2.899874,-1.543481 3.527082,-3.835566 3.414778,-5.09788 -0.317452,-3.568208 -5.987231,-7.436755 -5.987231,-7.436755 5.986348,-4.311065 20.112224,-2.01154 19.971907,-1.684136 -0.140316,0.327406 -0.09359,19.270456 0.467672,18.755963 0.561266,-0.514493 2.713013,-18.288291 2.713013,-18.288291 1.730571,0.280633 6.501411,2.011246 6.501411,2.011246 2.245063,-5.332026 3.039977,-5.612302 6.828525,-10.61692 3.788545,-5.0046202 8.840054,-14.0787902 8.606192,-25.72505 -0.23386,-11.64625 -1.964531,-16.51032 -6.314342,-21.70203 -4.349814,-5.19171 -14.779977,-4.11603 -14.779977,-4.11603 -0.23386,-3.08696 1.49655,-9.91567 1.49655,-9.91567 z m -6.641454,19.41018 3.040124,0.23409 0.09353,41.2998098 c 0,0 -8.699557,-0.32747 -10.289811,0.56121 0,0 9.214467,-8.85953567 7.325671,-21.7573428 -0.744585,-5.084467 -2.696191,-12.647795 -0.169514,-20.337767 z m 7.423834,0.40204 c 2.649861,0.0139 13.227405,1.15334 12.875184,18.49396 -0.35618,17.5356698 -6.22081,24.36854 -6.22081,24.36854 0,0 -3.461149,-1.2164302 -7.15615,-1.4970602 l -0.09354,-41.3463198 c 0,0 0.216763,-0.0211 0.595312,-0.0191 z m -11.22567,2.39004 c 0,0 -0.529166,6.68073 -0.165364,8.59896 l -3.175,1.81901 -0.56224,-3.24115 c 0,0 2.645833,-5.82083 3.902604,-7.17682 z m 0,9.72344 0.56224,3.27421 -3.108854,1.7198 -0.529167,-3.20808 z m 0.859896,4.2664 0.463021,3.07578 -3.208073,1.75287 -0.363802,-3.04271 z m 0.661459,4.06797 0.198437,2.7781298 -3.208073,1.68671 -0.165364,-2.7450498 z m 0.264583,3.8364598 c 0,0 -0.132292,5.35781 -4.233333,12.43542 0,0 1.289843,-3.80338005 0.992187,-10.78178 z"
       sodipodi:nodetypes="cccsccccscscsscsscssccssscccccccsccsccccccccccccccccccccccccccccc"
       inkscape:label="background" />
    <path
       id="path3105"
       style="display:inline;opacity:0.2;fill:#000000;fill-opacity:1;stroke:none;stroke-width:0.999999px;stroke-linecap:butt;stroke-linejoin:miter;stroke-opacity:1"
       d="m -169.40625,-197.9043 -13.61133,12.55078 -0.35351,29.52149 7.47461,7.9082 0.88671,-37.51562 z m -44.21484,7.61719 c -24.69039,-0.009 -34.27344,40.64258 -34.27344,40.64258 6.18718,14.31889 37.47656,21.56641 37.47656,21.56641 -7.24784,7.42461 -22.80469,39.244136 -22.80469,39.244136 0,0 12.77691,45.293362 9.90039,83.4394528 -3.17385,42.0890452 -34.66245,46.7780022 -34.82617,48.2597652 -3.71231,4.242633 -5.95419,15.31981 -7.77734,22.804688 -2.85324,11.713833 1.31219,12.228851 11.31445,20.152344 0,0 14.08318,9.978531 12.72656,21.919924 -0.043,0.37846 0.3546,7.07044 -18.91406,15.02539 -19.26866,7.95495 -4.94922,18.91601 -4.94922,18.91601 -5.53197,-5.70395 0.41407,-10.11523 0.41407,-10.11523 l 0.002,0.002 c 2.97425,-3.3149 9.31415,-4.97274 15.8457,-8.44922 1.31369,-0.69922 2.49736,-1.44003 3.57422,-2.20898 v -0.002 c 9.56779,-13.56707 5.98535,-20.76501 5.16211,-22.41016 -5.19454,-10.380775 -22.1875,-22.625 -22.1875,-22.625 l 3.72852,-0.128906 c 22.62556,-16.293789 76.0147,-7.602667 75.48437,-6.365235 -0.52239,1.21891 -0.35861,70.701471 1.67383,70.923831 l 5.54101,-78.705081 c -8.64076,-1.827121 -17.51663,-2.935357 -27.44921,-3.201171 -19.99753,-0.535189 -53.7129,7.271484 -53.7129,7.271484 l 5.11524,-16.462891 c 13.06812,-5.045598 24.78398,-19.400485 30.60547,-27.585937 l -1.65039,-4.140625 c 1.66368,-5.026436 3.11061,-12.656703 3.81445,-21.9902346 2.87652,-38.1460754 -9.27539,-83.3769534 -9.27539,-83.3769534 0,0 10.56269,-20.930561 18.38672,-32.375001 l 1.79883,6.27149 c 0,0 -2,25.249992 -0.625,32.499996 l -12,6.875 0.0351,2.416015 0.96485,1.708985 11.625,-6.75 2.125,12.375 -11.75,6.5 0.14257,2.441406 0.98243,1.558594 11.75,-6.75 1.75,11.625 -12.125,6.625 -0.11524,2.121093 0.99024,1.503907 12,-6.5 0.75,10.5 -12.125,6.375 -0.46875,2.115234 0.59375,1.759766 12.25,-6.25 c 0,0 -0.50001,20.249978 -16,47 l 1.83203,4.455078 c 9.52604,-14.1575129 21.49253,-37.969762 17.07422,-68.140625 -2.89906,-19.198046 -7.68402,-42.117857 -5.10742,-64.917969 0.54679,-4.83993 3.83007,-20.97266 3.83007,-20.97266 l 5.99024,9.27344 11.49023,0.88477 0.35352,156.093747 7.17968,8.304687 -0.44921,-171.611324 7.23437,7.91992 c 0,0 0.81926,-0.0798 2.25,-0.0723 10.01522,0.0525 49.99334,4.35909 48.66211,69.89844 -1.34619,66.276547 -23.51172,92.101562 -23.51172,92.101562 l 2.40039,9.205079 7.62696,-9.714844 c 12.87563,-22.029656 18.30645,-47.5251098 20.45507,-72.710938 1.69889,-21.138928 2.313,-43.402973 -6.4414,-63.214843 -7.98425,-20.709636 -30.06506,-34.712716 -52.28516,-33.435546 -22.52775,0.70128 -50.8259,-5.20757 -69.62305,-19.99805 1.21084,-3.93357 7.62612,-18.43861 7.69532,-18.12109 0,0 3.0488,-14.73288 9.04101,-15.92188 0.005,-0.002 0.0104,-0.001 0.0156,-0.002 6.5e-4,-7e-5 10e-4,1.1e-4 0.002,0 5.92303,-4.15211 16.94336,-3.95117 16.94336,-3.95117 -2.88367,-0.96123 -5.59817,-1.39749 -8.15234,-1.39844 z m 37.11328,251.886719 4.80469,9.548829 c 6.54074,1.06066 24.57226,7.601562 24.57226,7.601562 l -4.41992,-9.988281 c -8.58144,-2.990148 -16.66015,-5.407596 -24.95703,-7.16211 z"
       transform="scale(0.26458333)"
       inkscape:label="shadow" />
    <path
       id="path2954"
       style="display:inline;opacity:0.3;fill:#ffffff;stroke:none;stroke-width:0.999999px;stroke-linecap:butt;stroke-linejoin:miter;stroke-opacity:1"
       d="m -169.40625,-197.9043 -5.60352,12.46485 -0.88671,37.51562 c 3.00584,0.0555 5.95044,-0.0542 8.78515,-0.34179 12.61649,-0.55355 25.78966,-0.0327 37.51172,5.12695 8.3271,3.44386 13.91359,10.90036 18.65234,18.23437 10.68133,16.73012 12.896816,37.173185 13.787114,56.449222 1.126518,17.673347 -0.249315,35.135519 -5.242184,52.03125 -5.72644,19.9125669 -16.07422,38.809729 -28.86914,54.890625 l -7.62696,9.714844 c -4.85051,6.436202 -9.32579,13.215793 -12.65234,20.580078 l 4.41992,9.988281 c 8.48528,-20.152539 11.48967,-21.211862 25.80859,-40.126953 14.31891,-18.9151 33.411236,-53.211156 32.527348,-97.228516 -0.88388,-44.017321 -7.425001,-62.401231 -23.865238,-82.023441 -16.44024,-19.62221 -55.86132,-15.55664 -55.86132,-15.55664 -0.88388,-11.66725 5.65625,-37.47656 5.65625,-37.47656 z m 30.50781,246.085941 -2.40039,-9.205079 c 0,0 -13.08152,-4.597554 -27.04687,-5.658203 l -0.35352,-156.269529 -7.23437,-7.91992 0.44921,171.611324 -7.17968,-8.304687 c 0,0 -32.88022,-1.237697 -38.89063,2.121094 0,0 2.13147,-2.055468 5.21875,-5.859375 0.008,-0.0094 0.0158,-0.02183 0.0234,-0.03125 0.12909,-0.158997 0.27582,-0.352428 0.4082,-0.517578 0.60131,-0.751182 1.23342,-1.564207 1.89258,-2.439454 0.39731,-0.526929 0.80099,-1.069537 1.21484,-1.640625 0.1505,-0.207934 0.29687,-0.401556 0.44922,-0.615234 0.006,-0.0087 0.0133,-0.0186 0.0195,-0.02734 0.5663,-0.793772 1.14566,-1.639684 1.73242,-2.511719 0.20768,-0.309006 0.41745,-0.626697 0.62695,-0.945312 0.47029,-0.714508 0.94547,-1.458383 1.42187,-2.220703 0.18723,-0.299883 0.37284,-0.58544 0.56055,-0.892578 0.009,-0.01462 0.0183,-0.03028 0.0274,-0.04492 0.58093,-0.950643 1.16178,-1.947713 1.74218,-2.966797 1.38088,-2.42655 2.74871,-5.0325322 4.05274,-7.828125 1.38588,-2.9710618 2.69823,-6.14458266 3.87695,-9.5039062 0.018,-0.051398 0.0367,-0.1028114 0.0547,-0.1542969 0.38411,-1.1004161 0.75447,-2.2195752 1.10742,-3.359375 0.70733,-2.2841981 1.34436,-4.6497769 1.90039,-7.0859379 0.0321,-0.140729 0.0625,-0.282604 0.0937,-0.423828 0.23979,-1.073175 0.46257,-2.160499 0.66797,-3.261719 0.0274,-0.146881 0.0573,-0.292074 0.084,-0.439453 0.44119,-2.430152 0.79092,-4.930298 1.04102,-7.490234 0.0255,-0.261817 0.047,-0.525926 0.0703,-0.789063 0.0899,-1.011123 0.16223,-2.032248 0.21875,-3.0625 0.0205,-0.3756 0.0466,-0.748837 0.0625,-1.126953 0.0128,-0.303156 0.0234,-0.607358 0.0332,-0.912109 0.0243,-0.760979 0.0399,-1.52603 0.0449,-2.296875 0.001,-0.164583 0.006,-0.327165 0.006,-0.492187 5e-5,-0.0453 -0.002,-0.09138 -0.002,-0.136719 -4.5e-4,-0.897066 -0.0171,-1.800919 -0.0449,-2.710938 -0.007,-0.220317 -0.0151,-0.441046 -0.0234,-0.662109 -0.0375,-0.991261 -0.0847,-1.988026 -0.15625,-2.994141 -0.0709,-0.996914 -0.16583,-2.004468 -0.27148,-3.015625 -0.0243,-0.232596 -0.05,-0.465887 -0.0762,-0.699218 -0.11435,-1.01869 -0.23941,-2.041586 -0.39063,-3.074219 -0.31319,-2.138638 -0.6858,-4.403239 -1.08203,-6.761719 -0.0493,-0.29314 -0.0945,-0.570863 -0.14453,-0.867188 -0.0269,-0.159356 -0.0569,-0.339729 -0.084,-0.5 -0.39495,-2.336249 -0.80312,-4.740073 -1.21094,-7.257812 -0.11323,-0.697792 -0.22244,-1.394844 -0.33399,-2.105469 -0.089,-0.567934 -0.17642,-1.133131 -0.26367,-1.708984 -0.13253,-0.873016 -0.25991,-1.754024 -0.38672,-2.644531 -0.0844,-0.594276 -0.16692,-1.189271 -0.24804,-1.791016 -0.12314,-0.911261 -0.23978,-1.8282 -0.35352,-2.755859 -0.065,-0.531855 -0.1261,-1.066502 -0.1875,-1.603516 -0.11405,-0.994622 -0.22269,-1.992398 -0.32227,-3.003906 -0.0517,-0.526853 -0.0953,-1.05863 -0.14257,-1.589844 -0.0909,-1.018615 -0.17742,-2.038418 -0.25,-3.072266 -0.036,-0.514487 -0.0628,-1.034671 -0.0937,-1.552734 -0.0651,-1.083414 -0.12696,-2.167452 -0.16797,-3.265625 -0.016,-0.431389 -0.0196,-0.869196 -0.0312,-1.302734 -0.31233,-11.201282 0.72325,-23.096002 4.66211,-35.083982 l -5.99024,-9.27344 c 0,0 -3.28318,16.13273 -3.83007,20.97266 -2.5766,22.800136 2.20836,45.719919 5.10742,64.917965 4.41831,30.170873 -7.54818,53.9831121 -17.07422,68.140625 l -1.83203,-4.455078 c 0,0 4.875,-14.3749503 3.75,-40.75 l -0.59375,-1.759766 0.46875,-2.115234 -0.625,-10.375 -0.99024,-1.503907 0.11524,-2.121093 -1.375,-11.5 -0.98243,-1.558594 -0.14257,-2.441406 -2,-12.125 -0.96485,-1.708985 -0.0351,-2.416015 -2.125,-12.25 c 0,0 10,-21.999992 14.75,-27.124992 l -1.79883,-6.27149 c -7.82403,11.44444 -18.38672,32.374997 -18.38672,32.374997 0,0 12.15191,45.230868 9.27539,83.3769534 -0.70384,9.3335336 -2.15077,16.9637986 -3.81445,21.9902346 l 1.65039,4.140625 c -5.82149,8.185452 -17.53735,22.540339 -30.60547,27.585937 0,0 16.76214,-4.424979 32.42187,-6.789062 12.11924,-1.874892 24.0948,-2.028037 36.28125,-1.958985 2.78532,0.01579 5.58056,0.11149 8.375,0.28711 12.40783,0.779783 24.82733,3.16538 36.58008,7.435547 z m -36.99804,-196.105471 -7.47461,-7.9082 c -19.26866,0.88388 -44.19451,-14.31928 -42.60352,-23.86524 0.37615,-2.25696 1.72854,-3.9546 3.5625,-5.24023 -0.006,0.001 -0.0115,7e-4 -0.0176,0.002 -5.99221,1.189 -9.04101,15.92188 -9.04101,15.92188 11.66561,12.59187 35.0727,20.71113 55.57422,21.08984 z m -0.61329,209.519533 -5.54101,78.708987 c 0.0301,0.003 0.0609,-0.006 0.0918,-0.0332 l 0.002,-0.002 c 2.12132,-1.94454 10.2539,-69.121094 10.25391,-69.121092 z m -82.69921,14.150391 -3.72852,0.128906 c 0,0 16.99296,12.244225 22.1875,22.625 0.82324,1.64515 4.40568,8.84309 -5.16211,22.41016 7.90669,-5.64629 9.7056,-12.8577 9.33203,-17.05664 -1.19982,-13.486149 -22.6289,-28.107426 -22.6289,-28.107426 z m -6.125,55.822266 c 0,0 -5.94604,4.41128 -0.41407,10.11523 -2.07144,-4.85717 -1.60062,-7.86567 0.41602,-10.11328 z"
       transform="scale(0.26458333)"
       inkscape:label="light" />
  </g>
</svg>
